<svg version="1.1" xmlns="http://www.w3.org/2000/svg" style="display: block;" viewBox="0 0 2048 2048" width="1024" height="1024" preserveAspectRatio="none"><path transform="translate(0,0)" fill="rgb(38,25,102)" d="M 1017.2 438.932 C 1333.03 435.232 1592.12 688.132 1596.07 1003.96 C 1600.01 1319.78 1347.31 1579.07 1031.49 1583.25 C 715.322 1587.44 455.691 1334.41 451.745 1018.24 C 447.798 702.073 701.033 442.636 1017.2 438.932 z M 1040.47 1561.41 C 1344.25 1552.42 1583.25 1298.92 1574.36 995.14 C 1565.47 691.36 1312.06 452.27 1008.28 461.048 C 704.338 469.831 465.1 723.399 473.992 1027.33 C 482.885 1331.27 736.539 1570.42 1040.47 1561.41 z"/><path transform="translate(0,0)" fill="rgb(38,25,102)" d="M 1008.98 546.409 C 1265.07 538.25 1479.36 739.108 1487.77 995.197 C 1496.18 1251.29 1295.54 1465.77 1039.46 1474.44 C 783.018 1483.11 568.168 1282.12 559.745 1025.68 C 551.322 769.231 752.521 554.579 1008.98 546.409 z M 1053.44 1460.1 C 1301.83 1443.82 1489.97 1229.21 1473.6 980.823 C 1457.24 732.433 1242.56 544.369 994.179 560.822 C 745.915 577.267 557.962 791.812 574.322 1040.08 C 590.681 1288.35 805.162 1476.38 1053.44 1460.1 z"/><path transform="translate(0,0)" fill="rgb(233,171,44)" d="M 1006.41 570.342 C 1249.03 560.824 1453.53 749.556 1463.47 992.155 C 1473.42 1234.75 1285.04 1439.59 1042.46 1449.96 C 799.28 1460.35 593.826 1271.41 583.858 1028.21 C 573.89 785.006 763.193 579.884 1006.41 570.342 z M 1047.45 1434.46 C 1281.84 1421.36 1461.16 1220.61 1447.83 986.237 C 1434.5 751.861 1233.57 572.74 999.206 586.302 C 765.17 599.846 586.354 800.43 599.666 1034.48 C 612.979 1268.53 813.386 1447.54 1047.45 1434.46 z"/><path transform="translate(0,0)" fill="rgb(38,25,102)" d="M 800.265 864.473 L 858.026 864.515 C 902.643 864.473 958.558 864.222 992.667 897.98 C 1034.65 939.527 1034.76 1021.97 991.686 1063.29 C 947.124 1106.03 886.933 1102.31 829.887 1101.89 L 829.697 1155.86 C 829.673 1166.11 829.263 1176.09 830.283 1186.32 C 832.127 1204.8 843.377 1205.55 858.739 1207.96 L 874.048 1208.47 L 873.836 1243.8 C 856.169 1242.63 830.915 1243.35 812.787 1243.37 L 698.334 1243.72 C 698.215 1231.97 698.163 1220.23 698.176 1208.48 C 739.931 1208.43 740.956 1198.93 740.373 1159.78 C 740.25 1151.52 740.333 1142.44 740.308 1134.1 L 740.178 1054.19 L 740.177 974.317 C 740.186 959.685 743.533 918.902 732.423 907.584 C 726.308 901.354 708.413 900.179 699.177 900.839 L 698.499 864.856 C 731.002 865.468 767.653 865.003 800.265 864.473 z M 913.662 1038.88 C 937.189 1010.99 937.917 947.329 909.576 921.779 C 890.738 904.796 854.235 906.748 830.1 907.564 C 829.859 936.647 829.852 965.732 830.079 994.815 C 830.133 1014.69 829.627 1038.42 830.549 1058.06 C 859.392 1058.5 891.779 1061.62 913.662 1038.88 z"/><path transform="translate(0,0)" fill="rgb(38,25,102)" d="M 1046.86 864.899 C 1091.7 865.937 1136.99 864.622 1181.86 865.037 C 1233.89 865.519 1296.26 858.983 1337.51 897.541 C 1380.8 937.992 1378.33 1021.45 1337.78 1062.86 C 1294.89 1106.66 1232.72 1100.71 1177.06 1101.44 L 1177.05 1137.94 C 1177.52 1186.44 1163.83 1205.81 1220 1209.03 L 1220.2 1243.62 C 1163.96 1242.02 1102.86 1243.57 1046.38 1243.88 C 1045.95 1232.47 1046.1 1219.83 1046.03 1208.32 C 1057.2 1208.71 1079.77 1208.64 1084.35 1197.74 C 1089.56 1185.34 1088.2 1158.53 1088.16 1145.32 L 1088.1 1079.69 L 1088.07 982.454 C 1088.06 962.325 1089.69 933.292 1084.92 913.714 C 1081.96 901.59 1058.13 900.508 1047.05 899.608 C 1046.82 888.04 1046.76 876.469 1046.86 864.899 z M 1176.96 1058.23 C 1203.08 1058.36 1239.17 1061.19 1258.98 1040.33 C 1276.44 1018.98 1279.51 994.957 1277.19 968.258 C 1271.65 904.679 1225.79 906.751 1177.21 907.039 C 1176.65 955.75 1176.22 1009.56 1176.96 1058.23 z"/><path transform="translate(0,0)" fill="rgb(38,25,102)" d="M 1011.24 651.282 C 1025.33 650.221 1030.82 650.842 1040.76 661.461 C 1080.9 662.801 1065.46 686.413 1066.91 711.696 L 1067.02 713.568 C 1082.36 712.854 1089.57 711.192 1098.7 725.081 C 1100.08 737.653 1102.47 766.578 1093.7 776.255 C 1087 783.659 1077.06 783.135 1067.91 783.174 C 1067.71 795.587 1069.61 805.767 1056.45 810.9 C 1035.17 812.302 1003.95 811.914 982.206 811.316 C 978.586 811.217 974.204 809.194 972.298 806.048 C 970.326 802.791 969.756 800.909 969.705 796.947 C 969.349 769.514 969.627 742.142 969.233 714.683 C 970.01 702.946 964.436 687.039 967.608 675.606 C 971.172 662.761 986.214 663.053 995.716 665.013 C 1001.32 657.323 1002.34 655.176 1011.24 651.282 z M 1000.42 674.695 C 993.022 672.481 987.603 670.396 980.184 674.467 C 974.709 677.472 969.797 683.459 974.262 689.735 C 978.28 695.383 985.828 694.278 992.127 694.285 C 992.035 703.496 990.861 708.826 995.938 716.26 L 997.861 717.047 C 1003.51 712.729 1002.25 702.27 1002.08 695.887 L 1002.66 694.304 C 1015.61 692.471 1052.26 696.793 1060.19 692.027 C 1063.9 683.584 1059.33 673.624 1051.11 670.479 C 1041.64 666.854 1038.76 678.69 1030.36 664.93 C 1027.63 660.462 1020.75 659.75 1015.7 659.984 C 1006.03 663.415 1004.58 665.351 1000.42 674.695 z M 1008.96 719.49 C 1006.46 721.513 1003.79 722.769 1003.95 725.846 C 1004.51 736.893 1002.51 776.729 1004.19 785.34 C 1007.36 786.685 1007.79 786.547 1011.14 786.863 C 1013.3 784.834 1013.05 783.082 1012.88 779.315 C 1012.28 765.775 1014.37 732.16 1011.64 720.633 C 1009.82 719.411 1010.74 719.705 1008.96 719.49 z M 993.096 723.204 L 983.796 719.489 C 984.053 734.05 982.946 772.665 984.456 784.717 C 986.856 786.553 989.874 786.271 993.166 786.211 C 993.324 765.243 992.832 744.08 993.096 723.204 z M 1067.93 770.383 C 1073.12 769.648 1078.94 769.232 1083.61 767.104 C 1087.02 758.586 1087.66 737.911 1084.31 729.473 C 1080.3 725.79 1073.6 726.896 1067.88 727.066 C 1067.82 741.505 1067.84 755.944 1067.93 770.383 z M 1043.09 719.677 C 1043.14 733.425 1042.19 773.25 1043.66 785.35 C 1045.95 787.448 1048.54 786.957 1052.06 786.812 C 1052.09 776.97 1053.39 726.643 1051.42 720.151 C 1047.69 719.379 1046.78 719.523 1043.09 719.677 z M 1023.83 719.71 L 1023.85 786.215 L 1032.62 786.674 C 1032.9 772.32 1033.83 734.235 1032.37 720.992 C 1029.39 719.096 1027.92 719.66 1023.83 719.71 z"/><path transform="translate(0,0)" fill="rgb(38,25,102)" d="M 1061.99 1290.07 C 1079.77 1290.61 1099.27 1288.69 1116.71 1291.15 C 1128.74 1292.85 1136.79 1303.32 1132.83 1315.22 C 1130.6 1321.92 1125.6 1324.22 1119.58 1327.16 C 1133.36 1332.84 1135.84 1335.06 1139.3 1349.18 C 1137.7 1356.18 1137.48 1357.61 1133.96 1363.91 C 1117.82 1377.42 1083.96 1373.4 1062.2 1373.22 L 1062.53 1367.13 C 1064.96 1363.71 1065.26 1364.87 1070.49 1363.32 C 1074.03 1355.42 1072.33 1313.59 1070.81 1302.47 C 1070.48 1300.03 1065.4 1298.83 1063.28 1298.07 C 1061.11 1295.09 1061.94 1294.75 1061.99 1290.07 z M 1092.91 1363.3 C 1101.35 1363.65 1104.26 1363.86 1112.06 1360.1 C 1115.59 1355.46 1116.07 1352.97 1117.77 1347.53 C 1111.55 1333.68 1107.25 1332.96 1092.29 1333.05 C 1092.37 1343.13 1092.58 1353.22 1092.91 1363.3 z M 1092.83 1324.67 C 1098.46 1324.33 1102.93 1324.47 1108.07 1322.05 C 1119.44 1306.67 1108.19 1299.72 1092.83 1299.68 C 1092.35 1309.06 1092.37 1315.28 1092.83 1324.67 z"/><path transform="translate(0,0)" fill="rgb(38,25,102)" d="M 882.972 1290.13 C 900.568 1290.81 937.602 1286.87 950.12 1296.61 C 955.094 1300.47 958.309 1306.16 959.04 1312.41 C 959.909 1319.69 957.657 1325.26 953.347 1331.04 C 944.472 1342.93 928.965 1341.16 914.634 1342.49 C 913.358 1344.23 913.872 1349.52 913.871 1352.25 C 913.79 1356.59 913.761 1358.07 914.382 1362.31 C 918.069 1365.26 917.498 1364.34 923.2 1364.77 C 924.807 1367.12 925.075 1371.59 923.137 1373.77 C 910.246 1373.16 897.339 1374.11 884.449 1373.45 C 883.71 1372.83 882.971 1372.21 882.232 1371.6 C 881.008 1368.44 880.808 1369.78 881.843 1367.34 C 884.937 1364.71 886.269 1364.77 890.442 1363.81 L 891.859 1363.49 C 893.694 1359.04 894.184 1303.36 891.013 1299.46 C 887.639 1299.32 887.703 1299.34 884.5 1298.29 C 882.218 1295.18 883.048 1294.94 882.972 1290.13 z M 913.899 1333.13 C 921.05 1333.05 926.052 1333.64 931.972 1329.43 C 944.422 1311.97 934.469 1298.76 913.937 1299.35 C 913.646 1310.61 913.633 1321.87 913.899 1333.13 z"/><path transform="translate(0,0)" fill="rgb(38,25,102)" d="M 1038.75 1290.29 C 1043.63 1290.18 1049.16 1289.05 1052.37 1293.11 C 1050.83 1296.4 1042.47 1301.71 1042.23 1303.62 C 1039.92 1321.34 1046.82 1351.19 1035.02 1365.94 C 1022.35 1382.6 980.859 1376.64 977.317 1355.15 C 974.722 1339.41 976.066 1315.88 976.084 1299.64 C 973.866 1299.02 971.644 1298.4 969.418 1297.8 C 966.652 1294.68 967.488 1294.97 966.677 1290.07 C 972.728 1290.07 1002.57 1289.7 1006.46 1290.74 C 1006.76 1293.57 1007.49 1296.65 1006.42 1299.12 C 1003.86 1299.3 1001.31 1299.53 998.762 1299.82 L 997.444 1301.5 C 995.181 1314.27 996.801 1332.88 997.463 1346.06 C 998.365 1364.04 1019.01 1371.71 1027.55 1355.46 C 1032.08 1346.83 1032.31 1310.06 1029.81 1300.76 C 1026.27 1297.69 1024.65 1300.69 1020.94 1297.97 C 1020.2 1294.42 1020.14 1294.67 1021.18 1291.21 C 1025.95 1289.72 1033.5 1290.25 1038.75 1290.29 z"/><path transform="translate(0,0)" fill="rgb(253,254,247)" d="M 766.726 1408.44 C 802.276 1429.98 836.989 1445.85 875.441 1461.49 L 910.642 1472.05 C 926.182 1474.54 942.009 1479.64 958.358 1482.54 C 966.474 1484.18 975.133 1484.88 982.382 1486.42 C 980.358 1506.86 977.044 1527.74 974.762 1548.43 C 967.774 1547.76 957.965 1547.11 951.249 1545.95 C 947.407 1546.04 940.15 1545.07 936.373 1544.13 C 932.022 1542.67 919.08 1540.5 913.98 1539.5 C 909.071 1538.93 904.148 1537.53 899.328 1536.34 C 892.339 1534.33 885.334 1532.38 878.312 1530.49 C 873.767 1529.63 868.326 1527.7 863.835 1526.28 C 859.3 1524.04 847.311 1520.27 842.268 1518.71 L 829.048 1513.49 C 823.437 1510.57 814.092 1506.77 808.061 1504.09 L 795.089 1498.1 C 788.391 1494.68 781.543 1491.34 774.798 1488 L 762.097 1481.51 C 755.547 1477.2 748.898 1474.9 742.995 1469.39 C 739.424 1466.26 734.509 1463.94 730.253 1461.65 C 735.238 1456.05 764.943 1413.8 766.726 1408.44 z"/><path transform="translate(0,0)" fill="rgb(253,254,247)" d="M 910.642 1472.05 C 926.182 1474.54 942.009 1479.64 958.358 1482.54 C 966.474 1484.18 975.133 1484.88 982.382 1486.42 C 980.358 1506.86 977.044 1527.74 974.762 1548.43 C 967.774 1547.76 957.965 1547.11 951.249 1545.95 C 947.407 1546.04 940.15 1545.07 936.373 1544.13 C 932.022 1542.67 919.08 1540.5 913.98 1539.5 C 909.071 1538.93 904.148 1537.53 899.328 1536.34 C 902.517 1527.67 913.971 1484.19 914.633 1476.25 C 912.997 1473.79 911.278 1473.82 907.929 1472.45 L 910.642 1472.05 z"/><path transform="translate(0,0)" fill="rgb(233,171,44)" d="M 958.358 1482.54 C 966.474 1484.18 975.133 1484.88 982.382 1486.42 C 980.358 1506.86 977.044 1527.74 974.762 1548.43 C 967.774 1547.76 957.965 1547.11 951.249 1545.95 C 952.332 1525.45 956.825 1503.56 958.358 1482.54 z"/><path transform="translate(0,0)" fill="rgb(233,171,44)" d="M 926.183 1478.04 C 932.698 1479.1 941.139 1480.25 947.385 1481.78 C 943.815 1502.1 940.62 1524.19 936.373 1544.13 C 932.022 1542.67 919.08 1540.5 913.98 1539.5 L 926.183 1478.04 z"/><path transform="translate(0,0)" fill="rgb(233,171,44)" d="M 863.805 1460.22 L 873.451 1463.55 L 875.441 1461.49 L 910.642 1472.05 L 907.929 1472.45 C 911.278 1473.82 912.997 1473.79 914.633 1476.25 C 913.971 1484.19 902.517 1527.67 899.328 1536.34 C 892.339 1534.33 885.334 1532.38 878.312 1530.49 C 873.767 1529.63 868.326 1527.7 863.835 1526.28 C 859.3 1524.04 847.311 1520.27 842.268 1518.71 C 843.765 1510.47 859.956 1470.19 863.805 1460.22 z"/><path transform="translate(0,0)" fill="rgb(233,171,44)" d="M 863.805 1460.22 L 873.451 1463.55 L 883.894 1466.91 C 880.546 1477.25 867.814 1518.63 863.835 1526.28 C 859.3 1524.04 847.311 1520.27 842.268 1518.71 C 843.765 1510.47 859.956 1470.19 863.805 1460.22 z"/><path transform="translate(0,0)" fill="rgb(253,254,247)" d="M 875.441 1461.49 L 910.642 1472.05 L 907.929 1472.45 L 894.78 1469.55 C 890.927 1483.29 880.102 1518.08 878.312 1530.49 C 873.767 1529.63 868.326 1527.7 863.835 1526.28 C 867.814 1518.63 880.546 1477.25 883.894 1466.91 L 873.451 1463.55 L 875.441 1461.49 z"/><path transform="translate(0,0)" fill="rgb(233,171,44)" d="M 804.244 1432.82 C 810.241 1435.74 817.754 1439.65 823.79 1442.12 C 815.582 1458.27 803.886 1483.13 795.089 1498.1 C 788.391 1494.68 781.543 1491.34 774.798 1488 C 782.769 1471.97 795.132 1448.05 804.244 1432.82 z"/><path transform="translate(0,0)" fill="rgb(233,171,44)" d="M 833.51 1447.35 C 840.682 1450.21 846.7 1452.59 853.577 1456.07 C 846.846 1471.44 834.148 1498.36 829.048 1513.49 C 823.437 1510.57 814.092 1506.77 808.061 1504.09 C 815.585 1486.59 825.046 1464.19 833.51 1447.35 z"/><path transform="translate(0,0)" fill="rgb(233,171,44)" d="M 776.316 1416.55 C 782.183 1420.21 788.092 1424 794.104 1427.41 C 787.019 1439.97 769.912 1470.19 762.097 1481.51 C 755.547 1477.2 748.898 1474.9 742.995 1469.39 C 753.846 1451.34 764.368 1433.9 776.316 1416.55 z"/><path transform="translate(0,0)" fill="rgb(253,254,247)" d="M 504.492 1152.35 C 512.536 1149.19 558.973 1134.5 564.45 1136.31 L 565.092 1135.6 C 569.774 1149.63 574.562 1163.62 579.456 1177.57 C 586.931 1195.92 592.103 1209.05 601.06 1227.06 C 603.652 1231.48 605.312 1234.3 607.383 1239.09 C 609.814 1243.14 614.148 1249.88 615.78 1254.03 C 618.257 1258.06 623.992 1267.88 626.679 1271.07 C 628.77 1274.04 631.677 1277.83 633.131 1281.05 L 644.966 1296.07 C 648.016 1299.65 651.521 1303.57 654.278 1307.32 C 659.156 1312.79 663.875 1318.4 668.431 1324.15 C 659.825 1333.23 632.167 1361.46 621.155 1364.25 C 614.59 1362.98 608.571 1354.34 604.991 1348.94 C 602.037 1345.35 598.118 1339.4 595.908 1335.37 C 591.968 1329.8 586.758 1323.42 582.51 1317.94 C 579.327 1314.85 575.754 1308.99 573.314 1305.11 L 562.266 1287.37 C 558.747 1282.05 557.431 1279.5 554.685 1273.83 C 551.751 1268.94 547.698 1260.53 544.927 1255.23 C 542.803 1251.83 540.016 1245.71 538.146 1241.94 L 528.545 1221.24 C 526.855 1217.74 524.462 1211.48 522.9 1207.73 C 521.015 1201.55 517.686 1193.2 515.416 1186.95 C 513.853 1182.76 512.474 1177.86 511.138 1173.54 C 509.03 1166.44 506.814 1159.38 504.492 1152.35 z"/><path transform="translate(0,0)" fill="rgb(233,171,44)" d="M 633.131 1281.05 L 644.966 1296.07 C 648.016 1299.65 651.521 1303.57 654.278 1307.32 C 659.156 1312.79 663.875 1318.4 668.431 1324.15 C 659.825 1333.23 632.167 1361.46 621.155 1364.25 C 614.59 1362.98 608.571 1354.34 604.991 1348.94 C 602.037 1345.35 598.118 1339.4 595.908 1335.37 C 591.968 1329.8 586.758 1323.42 582.51 1317.94 C 586.85 1313.5 626.488 1285.25 633.131 1281.05 z"/><path transform="translate(0,0)" fill="rgb(233,171,44)" d="M 633.131 1281.05 L 644.966 1296.07 C 643.058 1302.49 603.437 1331.39 595.908 1335.37 C 591.968 1329.8 586.758 1323.42 582.51 1317.94 C 586.85 1313.5 626.488 1285.25 633.131 1281.05 z"/><path transform="translate(0,0)" fill="rgb(253,254,247)" d="M 644.966 1296.07 C 648.016 1299.65 651.521 1303.57 654.278 1307.32 C 648.127 1308.94 606.814 1343.39 604.991 1348.94 C 602.037 1345.35 598.118 1339.4 595.908 1335.37 C 603.437 1331.39 643.058 1302.49 644.966 1296.07 z"/><path transform="translate(0,0)" fill="rgb(233,171,44)" d="M 504.492 1152.35 C 512.536 1149.19 558.973 1134.5 564.45 1136.31 L 565.092 1135.6 C 569.774 1149.63 574.562 1163.62 579.456 1177.57 L 577.558 1179.42 L 579.083 1184.52 C 576.977 1188.27 554.63 1196.08 548.743 1198.41 C 541.601 1201.23 530.094 1206.1 522.9 1207.73 C 521.015 1201.55 517.686 1193.2 515.416 1186.95 C 513.853 1182.76 512.474 1177.86 511.138 1173.54 C 509.03 1166.44 506.814 1159.38 504.492 1152.35 z"/><path transform="translate(0,0)" fill="rgb(233,171,44)" d="M 515.416 1186.95 C 534.75 1180.34 553.588 1172.61 573.158 1166.26 L 577.558 1179.42 L 579.083 1184.52 C 576.977 1188.27 554.63 1196.08 548.743 1198.41 C 541.601 1201.23 530.094 1206.1 522.9 1207.73 C 521.015 1201.55 517.686 1193.2 515.416 1186.95 z"/><path transform="translate(0,0)" fill="rgb(253,254,247)" d="M 565.092 1135.6 C 569.774 1149.63 574.562 1163.62 579.456 1177.57 L 577.558 1179.42 L 573.158 1166.26 C 553.588 1172.61 534.75 1180.34 515.416 1186.95 C 513.853 1182.76 512.474 1177.86 511.138 1173.54 C 528.206 1169 552.52 1161.06 569.065 1155.02 C 567.006 1148.02 565.798 1143.45 564.45 1136.31 L 565.092 1135.6 z"/><path transform="translate(0,0)" fill="rgb(233,171,44)" d="M 562.266 1287.37 C 566.878 1282.42 609.145 1256.66 615.78 1254.03 C 618.257 1258.06 623.992 1267.88 626.679 1271.07 C 628.77 1274.04 631.677 1277.83 633.131 1281.05 C 626.488 1285.25 586.85 1313.5 582.51 1317.94 C 579.327 1314.85 575.754 1308.99 573.314 1305.11 L 562.266 1287.37 z"/><path transform="translate(0,0)" fill="rgb(253,254,247)" d="M 626.679 1271.07 C 628.77 1274.04 631.677 1277.83 633.131 1281.05 C 626.488 1285.25 586.85 1313.5 582.51 1317.94 C 579.327 1314.85 575.754 1308.99 573.314 1305.11 C 581.277 1302.87 619.273 1277.25 626.679 1271.07 z"/><path transform="translate(0,0)" fill="rgb(233,171,44)" d="M 544.927 1255.23 C 551.975 1250.44 593.761 1226.01 601.06 1227.06 C 603.652 1231.48 605.312 1234.3 607.383 1239.09 C 609.814 1243.14 614.148 1249.88 615.78 1254.03 C 609.145 1256.66 566.878 1282.42 562.266 1287.37 C 558.747 1282.05 557.431 1279.5 554.685 1273.83 C 551.751 1268.94 547.698 1260.53 544.927 1255.23 z"/><path transform="translate(0,0)" fill="rgb(253,254,247)" d="M 554.685 1273.83 C 563.865 1271.11 596.644 1251.14 606.808 1245.09 C 608.508 1244.07 607.647 1241.5 607.383 1239.09 C 609.814 1243.14 614.148 1249.88 615.78 1254.03 C 609.145 1256.66 566.878 1282.42 562.266 1287.37 C 558.747 1282.05 557.431 1279.5 554.685 1273.83 z"/><path transform="translate(0,0)" fill="rgb(233,171,44)" d="M 528.545 1221.24 C 547.126 1212.74 565.77 1204.38 584.477 1196.15 C 588.118 1203.21 590.041 1207.83 592.912 1215.27 C 578.014 1223.57 553.852 1234.94 538.146 1241.94 L 528.545 1221.24 z"/><path transform="translate(0,0)" fill="rgb(233,171,44)" d="M 1200.61 1451.88 C 1207.41 1461.94 1219.54 1498.05 1225.22 1511.09 L 1203.41 1519.47 L 1190.44 1524.19 L 1168.43 1530.84 L 1155.04 1534.7 C 1148.77 1535.57 1138.92 1537.75 1132.57 1539.43 C 1128.01 1540.33 1122.85 1541.21 1118.39 1542.34 C 1110.9 1543.34 1103.4 1544.3 1095.9 1545.23 C 1090.37 1546.22 1086.87 1546.83 1081.17 1547.19 L 1057.14 1549.13 C 1055.65 1530.78 1053.43 1504.46 1054.07 1486.59 C 1061.54 1486 1068.44 1485.21 1075.89 1484.29 C 1079.57 1483.35 1083.56 1483.03 1087.36 1482.6 L 1105.19 1479.17 C 1111.73 1477.49 1116.54 1476.54 1123.22 1475.41 C 1133.23 1472.96 1143.27 1470.62 1153.33 1468.41 C 1162.98 1465.21 1172.6 1461.95 1182.2 1458.64 C 1187.31 1457.26 1195.44 1453.87 1200.61 1451.88 z"/><path transform="translate(0,0)" fill="rgb(233,171,44)" d="M 1200.61 1451.88 C 1207.41 1461.94 1219.54 1498.05 1225.22 1511.09 L 1203.41 1519.47 L 1190.44 1524.19 L 1168.43 1530.84 C 1165.34 1522.17 1150.21 1474.65 1153.29 1469.16 L 1153.33 1468.41 C 1162.98 1465.21 1172.6 1461.95 1182.2 1458.64 C 1187.31 1457.26 1195.44 1453.87 1200.61 1451.88 z"/><path transform="translate(0,0)" fill="rgb(233,171,44)" d="M 1200.61 1451.88 C 1207.41 1461.94 1219.54 1498.05 1225.22 1511.09 L 1203.41 1519.47 C 1198.69 1504.81 1184.63 1471.48 1182.2 1458.64 C 1187.31 1457.26 1195.44 1453.87 1200.61 1451.88 z"/><path transform="translate(0,0)" fill="rgb(253,254,247)" d="M 1153.33 1468.41 C 1162.98 1465.21 1172.6 1461.95 1182.2 1458.64 C 1184.63 1471.48 1198.69 1504.81 1203.41 1519.47 L 1190.44 1524.19 C 1185.15 1505.16 1177.4 1483.16 1170.92 1464.36 C 1164.79 1466.34 1159.68 1468.17 1153.29 1469.16 L 1153.33 1468.41 z"/><path transform="translate(0,0)" fill="rgb(233,171,44)" d="M 1153.33 1468.41 L 1153.29 1469.16 C 1150.21 1474.65 1165.34 1522.17 1168.43 1530.84 L 1155.04 1534.7 C 1148.77 1535.57 1138.92 1537.75 1132.57 1539.43 C 1128.01 1540.33 1122.85 1541.21 1118.39 1542.34 C 1116.43 1528.4 1112.21 1496.21 1107.83 1481.63 C 1106.95 1480.81 1106.07 1479.99 1105.19 1479.17 C 1111.73 1477.49 1116.54 1476.54 1123.22 1475.41 C 1133.23 1472.96 1143.27 1470.62 1153.33 1468.41 z"/><path transform="translate(0,0)" fill="rgb(253,254,247)" d="M 1153.33 1468.41 L 1153.29 1469.16 C 1150.21 1474.65 1165.34 1522.17 1168.43 1530.84 L 1155.04 1534.7 C 1150.52 1515.09 1145.33 1492.87 1139.88 1473.64 C 1134.08 1475.03 1130.14 1475.67 1124.28 1476.52 L 1123.22 1475.41 C 1133.23 1472.96 1143.27 1470.62 1153.33 1468.41 z"/><path transform="translate(0,0)" fill="rgb(253,254,247)" d="M 1105.19 1479.17 C 1111.73 1477.49 1116.54 1476.54 1123.22 1475.41 L 1124.28 1476.52 L 1120.61 1478.16 C 1118.93 1483.76 1130.59 1531.49 1132.57 1539.43 C 1128.01 1540.33 1122.85 1541.21 1118.39 1542.34 C 1116.43 1528.4 1112.21 1496.21 1107.83 1481.63 C 1106.95 1480.81 1106.07 1479.99 1105.19 1479.17 z"/><path transform="translate(0,0)" fill="rgb(233,171,44)" d="M 1054.07 1486.59 C 1061.54 1486 1068.44 1485.21 1075.89 1484.29 C 1077.58 1502.99 1080.68 1528.86 1081.17 1547.19 L 1057.14 1549.13 C 1055.65 1530.78 1053.43 1504.46 1054.07 1486.59 z"/><path transform="translate(0,0)" fill="rgb(253,254,247)" d="M 1075.89 1484.29 C 1079.57 1483.35 1083.56 1483.03 1087.36 1482.6 C 1088.96 1502.28 1092.75 1525.52 1095.9 1545.23 C 1090.37 1546.22 1086.87 1546.83 1081.17 1547.19 C 1080.68 1528.86 1077.58 1502.99 1075.89 1484.29 z"/><path transform="translate(0,0)" fill="rgb(233,171,44)" d="M 513.108 843.103 C 519.375 846.721 565.799 863.38 572.123 864.509 C 571.394 866.793 568.774 875.388 567.879 877.219 C 566.451 882.838 564.32 890.342 563.281 895.879 C 562.485 899.232 560.974 906.489 559.742 909.368 C 558.536 915.315 557.206 921.451 556.174 927.408 L 553.8 939.428 C 552.224 946.179 551.545 955.75 550.466 960.033 L 549.339 971.221 C 548.834 977.183 548.57 986.241 546.387 991.443 C 542.265 993.567 495.138 990.103 486.914 990.005 C 487.399 981.776 487.761 974.183 487.874 965.946 C 488.005 959.659 488.114 957.962 489.365 951.732 L 492.45 928.899 C 492.881 924.355 493.887 919.951 494.783 915.471 C 496.623 909.097 498.196 899.185 499.297 892.59 L 502.382 879.553 C 504.421 872.404 506.279 864.716 508.162 857.483 C 509.596 852.303 511.221 848.096 513.108 843.103 z"/><path transform="translate(0,0)" fill="rgb(233,171,44)" d="M 513.108 843.103 C 519.375 846.721 565.799 863.38 572.123 864.509 C 571.394 866.793 568.774 875.388 567.879 877.219 C 566.451 882.838 564.32 890.342 563.281 895.879 C 551.297 894.542 517.549 882.875 502.382 879.553 C 504.421 872.404 506.279 864.716 508.162 857.483 C 509.596 852.303 511.221 848.096 513.108 843.103 z"/><path transform="translate(0,0)" fill="rgb(253,254,247)" d="M 513.108 843.103 C 519.375 846.721 565.799 863.38 572.123 864.509 C 571.394 866.793 568.774 875.388 567.879 877.219 C 564.597 873.188 515.999 859.236 508.162 857.483 C 509.596 852.303 511.221 848.096 513.108 843.103 z"/><path transform="translate(0,0)" fill="rgb(233,171,44)" d="M 487.874 965.946 C 488.005 959.659 488.114 957.962 489.365 951.732 C 509.696 953.864 530.183 957.878 550.466 960.033 L 549.339 971.221 C 548.834 977.183 548.57 986.241 546.387 991.443 C 542.265 993.567 495.138 990.103 486.914 990.005 C 487.399 981.776 487.761 974.183 487.874 965.946 z"/><path transform="translate(0,0)" fill="rgb(253,254,247)" d="M 487.874 965.946 C 488.005 959.659 488.114 957.962 489.365 951.732 C 509.696 953.864 530.183 957.878 550.466 960.033 L 549.339 971.221 C 529.1 970.219 508.239 967.475 487.874 965.946 z"/><path transform="translate(0,0)" fill="rgb(233,171,44)" d="M 489.365 951.732 L 492.45 928.899 C 505.478 931.227 543.039 936.385 553.8 939.428 C 552.224 946.179 551.545 955.75 550.466 960.033 C 530.183 957.878 509.696 953.864 489.365 951.732 z"/><path transform="translate(0,0)" fill="rgb(253,254,247)" d="M 502.382 879.553 C 517.549 882.875 551.297 894.542 563.281 895.879 C 562.485 899.232 560.974 906.489 559.742 909.368 C 558.807 907.945 558.523 907.104 556.447 906.559 C 538.025 901.719 517.71 897.02 499.297 892.59 L 502.382 879.553 z"/><path transform="translate(0,0)" fill="rgb(253,254,247)" d="M 494.783 915.471 C 509.78 918.135 543.423 926.785 556.174 927.408 L 553.8 939.428 C 543.039 936.385 505.478 931.227 492.45 928.899 C 492.881 924.355 493.887 919.951 494.783 915.471 z"/><path transform="translate(0,0)" fill="rgb(233,171,44)" d="M 1288.44 1405.44 L 1297.95 1399.25 L 1334.82 1450.15 C 1331 1452.99 1327.3 1455.89 1323.21 1458.33 C 1316.89 1462.41 1310.53 1466.57 1304.17 1470.56 L 1292.04 1477.81 C 1286.53 1480.81 1276.85 1486.46 1271.44 1488.81 L 1258.91 1495.44 C 1252.43 1498.55 1244.54 1502.6 1238.01 1505.28 C 1234.02 1507.09 1229.06 1509.16 1225.22 1511.09 C 1219.54 1498.05 1207.41 1461.94 1200.61 1451.88 C 1203.93 1450.08 1209.83 1447.73 1213.47 1446.14 C 1220.43 1443.48 1224 1441.82 1230.6 1438.34 C 1234.47 1436.32 1238.36 1434.35 1242.28 1432.43 C 1246.63 1430.79 1255.99 1425.33 1260.16 1422.98 C 1262.71 1421.12 1267.61 1418.42 1270.48 1416.72 C 1276.23 1413.37 1282.73 1409.03 1288.44 1405.44 z"/><path transform="translate(0,0)" fill="rgb(233,171,44)" d="M 1288.44 1405.44 L 1297.95 1399.25 L 1334.82 1450.15 C 1331 1452.99 1327.3 1455.89 1323.21 1458.33 C 1316.89 1462.41 1310.53 1466.57 1304.17 1470.56 L 1292.04 1477.81 C 1281.24 1459.81 1271.32 1440.73 1260.16 1422.98 C 1262.71 1421.12 1267.61 1418.42 1270.48 1416.72 C 1276.23 1413.37 1282.73 1409.03 1288.44 1405.44 z"/><path transform="translate(0,0)" fill="rgb(253,254,247)" d="M 1260.16 1422.98 C 1262.71 1421.12 1267.61 1418.42 1270.48 1416.72 C 1278.29 1431.32 1294.66 1456.34 1304.17 1470.56 L 1292.04 1477.81 C 1281.24 1459.81 1271.32 1440.73 1260.16 1422.98 z"/><path transform="translate(0,0)" fill="rgb(253,254,247)" d="M 1288.44 1405.44 L 1297.95 1399.25 L 1334.82 1450.15 C 1331 1452.99 1327.3 1455.89 1323.21 1458.33 C 1317.47 1447.06 1296.4 1417.36 1288.44 1405.44 z"/><path transform="translate(0,0)" fill="rgb(233,171,44)" d="M 1260.16 1422.98 C 1271.32 1440.73 1281.24 1459.81 1292.04 1477.81 C 1286.53 1480.81 1276.85 1486.46 1271.44 1488.81 C 1264.85 1475.36 1246.35 1444.77 1242.28 1432.43 C 1246.63 1430.79 1255.99 1425.33 1260.16 1422.98 z"/><path transform="translate(0,0)" fill="rgb(253,254,247)" d="M 1242.28 1432.43 C 1246.35 1444.77 1264.85 1475.36 1271.44 1488.81 L 1258.91 1495.44 C 1253.93 1484.73 1236.72 1446.27 1230.6 1438.34 C 1234.47 1436.32 1238.36 1434.35 1242.28 1432.43 z"/><path transform="translate(0,0)" fill="rgb(253,254,247)" d="M 1200.61 1451.88 C 1203.93 1450.08 1209.83 1447.73 1213.47 1446.14 C 1212.05 1452.6 1233.8 1494.74 1238.01 1505.28 C 1234.02 1507.09 1229.06 1509.16 1225.22 1511.09 C 1219.54 1498.05 1207.41 1461.94 1200.61 1451.88 z"/><path transform="translate(0,0)" fill="rgb(233,171,44)" d="M 1514.2 790.85 L 1523.1 811.059 C 1525.06 815.692 1527.32 820.707 1529.09 825.373 C 1531.55 832.091 1534.02 839.153 1536.61 845.789 C 1538.28 850.681 1539.59 854.539 1540.83 859.612 C 1542.66 866.776 1544.41 873.558 1545.85 880.811 C 1547.41 885.654 1548.19 890.463 1549.15 895.457 C 1541.77 896.917 1491.25 907.244 1487.96 910.033 C 1486.96 907.726 1485.29 899.661 1484.62 896.781 C 1483.97 893.822 1482.5 889.306 1481.62 886.262 L 1474.51 863.459 C 1473.79 860.466 1471.63 854.744 1470.56 851.618 C 1468 845.633 1465.72 839.383 1463.4 833.286 L 1457.04 818.084 C 1460.48 813.227 1505.53 794.722 1514.2 790.85 z"/><path transform="translate(0,0)" fill="rgb(233,171,44)" d="M 1474.51 863.459 C 1475.01 863.718 1475.5 863.993 1476 864.237 C 1482.52 867.372 1527.34 849.282 1536.61 845.789 C 1538.28 850.681 1539.59 854.539 1540.83 859.612 C 1542.66 866.776 1544.41 873.558 1545.85 880.811 C 1547.41 885.654 1548.19 890.463 1549.15 895.457 C 1541.77 896.917 1491.25 907.244 1487.96 910.033 C 1486.96 907.726 1485.29 899.661 1484.62 896.781 C 1483.97 893.822 1482.5 889.306 1481.62 886.262 L 1474.51 863.459 z"/><path transform="translate(0,0)" fill="rgb(253,254,247)" d="M 1474.51 863.459 C 1475.01 863.718 1475.5 863.993 1476 864.237 C 1482.52 867.372 1527.34 849.282 1536.61 845.789 C 1538.28 850.681 1539.59 854.539 1540.83 859.612 C 1533.03 861.431 1484.83 874.591 1482.01 878.39 C 1481.66 881.581 1481.62 883.029 1481.62 886.262 L 1474.51 863.459 z"/><path transform="translate(0,0)" fill="rgb(253,254,247)" d="M 1545.85 880.811 C 1547.41 885.654 1548.19 890.463 1549.15 895.457 C 1541.77 896.917 1491.25 907.244 1487.96 910.033 C 1486.96 907.726 1485.29 899.661 1484.62 896.781 C 1490.94 897.657 1540.16 883.859 1545.85 880.811 z"/><path transform="translate(0,0)" fill="rgb(233,171,44)" d="M 1514.2 790.85 L 1523.1 811.059 C 1516.05 815.591 1476.67 832.213 1466.48 834.189 C 1465.94 834.293 1464.13 833.558 1463.4 833.286 L 1457.04 818.084 C 1460.48 813.227 1505.53 794.722 1514.2 790.85 z"/><path transform="translate(0,0)" fill="rgb(253,254,247)" d="M 1523.1 811.059 C 1525.06 815.692 1527.32 820.707 1529.09 825.373 C 1520.5 827.081 1480.52 841.926 1471.83 846.039 C 1470.43 848.279 1470.72 848.886 1470.56 851.618 C 1468 845.633 1465.72 839.383 1463.4 833.286 C 1464.13 833.558 1465.94 834.293 1466.48 834.189 C 1476.67 832.213 1516.05 815.591 1523.1 811.059 z"/><path transform="translate(0,0)" fill="rgb(233,171,44)" d="M 698.272 1355.72 C 704.475 1360.3 708.813 1364.42 714.484 1369.69 C 718.407 1372.54 721.018 1374.19 724.276 1377.85 C 729.261 1381.64 735.103 1385.86 739.884 1389.78 C 743.599 1392.29 748.024 1395 751.174 1398.09 C 755.265 1400.83 762.734 1406.18 766.726 1408.44 C 764.943 1413.8 735.238 1456.05 730.253 1461.65 C 724.629 1457.38 717.655 1452.92 711.716 1448.92 C 708.15 1446.99 703.265 1443.17 699.86 1440.68 C 694.17 1436.22 687.689 1431.85 681.732 1427.67 C 676.419 1424.65 671.141 1419.6 666.919 1415.23 C 662.689 1411.36 657.257 1405.06 653.27 1400.68 C 661.624 1390.75 688.231 1364.83 698.272 1355.72 z"/><path transform="translate(0,0)" fill="rgb(233,171,44)" d="M 699.86 1440.68 C 707.667 1430.81 735.469 1398.43 739.884 1389.78 C 743.599 1392.29 748.024 1395 751.174 1398.09 C 755.265 1400.83 762.734 1406.18 766.726 1408.44 C 764.943 1413.8 735.238 1456.05 730.253 1461.65 C 724.629 1457.38 717.655 1452.92 711.716 1448.92 C 708.15 1446.99 703.265 1443.17 699.86 1440.68 z"/><path transform="translate(0,0)" fill="rgb(253,254,247)" d="M 699.86 1440.68 C 707.667 1430.81 735.469 1398.43 739.884 1389.78 C 743.599 1392.29 748.024 1395 751.174 1398.09 C 745.56 1399.51 715.231 1441.64 711.716 1448.92 C 708.15 1446.99 703.265 1443.17 699.86 1440.68 z"/><path transform="translate(0,0)" fill="rgb(233,171,44)" d="M 681.732 1427.67 C 683.536 1422.17 718.96 1381.39 724.276 1377.85 C 729.261 1381.64 735.103 1385.86 739.884 1389.78 C 735.469 1398.43 707.667 1430.81 699.86 1440.68 C 694.17 1436.22 687.689 1431.85 681.732 1427.67 z"/><path transform="translate(0,0)" fill="rgb(253,254,247)" d="M 714.484 1369.69 C 718.407 1372.54 721.018 1374.19 724.276 1377.85 C 718.96 1381.39 683.536 1422.17 681.732 1427.67 C 676.419 1424.65 671.141 1419.6 666.919 1415.23 L 670.196 1415.59 C 675.485 1413.81 708.676 1376.24 714.484 1369.69 z"/><path transform="translate(0,0)" fill="rgb(233,171,44)" d="M 1348.88 1357.19 C 1354.24 1352.17 1361.42 1345.03 1367.18 1340.86 C 1384.06 1362.43 1394.18 1368.12 1410.37 1385.94 C 1404.65 1391.7 1398.86 1397.38 1392.99 1402.98 C 1389.22 1406.78 1386.31 1409.73 1382.15 1413.18 C 1376.79 1417.74 1369.9 1423.94 1364.39 1427.99 C 1359.7 1432.59 1358.47 1433.4 1353.09 1436.78 C 1348.89 1440.18 1339.49 1447.88 1334.82 1450.15 L 1297.95 1399.25 C 1303.16 1395.11 1309.28 1390.81 1314.7 1386.83 C 1318.05 1383.95 1320.67 1381.72 1324.26 1379.16 C 1329.35 1374.46 1334.71 1370.03 1340.01 1365.55 L 1348.88 1357.19 z"/><path transform="translate(0,0)" fill="rgb(233,171,44)" d="M 1348.88 1357.19 C 1354.24 1352.17 1361.42 1345.03 1367.18 1340.86 C 1384.06 1362.43 1394.18 1368.12 1410.37 1385.94 C 1404.65 1391.7 1398.86 1397.38 1392.99 1402.98 C 1389.22 1406.78 1386.31 1409.73 1382.15 1413.18 C 1370.23 1398.62 1352.98 1378.98 1340.01 1365.55 L 1348.88 1357.19 z"/><path transform="translate(0,0)" fill="rgb(253,254,247)" d="M 1348.88 1357.19 C 1358.41 1368.35 1382.08 1393.39 1392.99 1402.98 C 1389.22 1406.78 1386.31 1409.73 1382.15 1413.18 C 1370.23 1398.62 1352.98 1378.98 1340.01 1365.55 L 1348.88 1357.19 z"/><path transform="translate(0,0)" fill="rgb(233,171,44)" d="M 1297.95 1399.25 C 1303.16 1395.11 1309.28 1390.81 1314.7 1386.83 C 1321.85 1394.76 1347.73 1428.02 1353.09 1436.78 C 1348.89 1440.18 1339.49 1447.88 1334.82 1450.15 L 1297.95 1399.25 z"/><path transform="translate(0,0)" fill="rgb(253,254,247)" d="M 1314.7 1386.83 C 1318.05 1383.95 1320.67 1381.72 1324.26 1379.16 C 1331.18 1388.64 1356.5 1419.94 1364.39 1427.99 C 1359.7 1432.59 1358.47 1433.4 1353.09 1436.78 C 1347.73 1428.02 1321.85 1394.76 1314.7 1386.83 z"/><path transform="translate(0,0)" fill="rgb(233,171,44)" d="M 594.5 691.337 C 612.205 707.346 626.248 715.236 642.885 729.02 C 637.655 735.516 634.363 740.205 629.753 747.191 C 627.848 750.354 625.027 755.388 622.834 758.144 L 612.972 774.891 C 608.455 783.382 603.861 791.833 599.191 800.24 L 597.542 803.793 C 590.896 803.222 549.36 780.237 542.083 775.861 C 545.421 769.065 548.843 762.309 552.347 755.596 L 558.993 743.443 C 562.805 736.891 566.67 730.369 570.586 723.879 C 572.856 720.128 576.321 715.646 578.96 712.023 C 583.544 705.184 588.917 697.427 594.5 691.337 z"/><path transform="translate(0,0)" fill="rgb(233,171,44)" d="M 558.993 743.443 C 567.355 748.548 607.271 774.034 612.972 774.891 C 608.455 783.382 603.861 791.833 599.191 800.24 L 597.542 803.793 C 590.896 803.222 549.36 780.237 542.083 775.861 C 545.421 769.065 548.843 762.309 552.347 755.596 L 558.993 743.443 z"/><path transform="translate(0,0)" fill="rgb(253,254,247)" d="M 558.993 743.443 C 567.355 748.548 607.271 774.034 612.972 774.891 C 608.455 783.382 603.861 791.833 599.191 800.24 C 598.858 795.429 603.202 789.508 605.756 785.35 C 589.161 775.24 569.552 765.323 552.347 755.596 L 558.993 743.443 z"/><path transform="translate(0,0)" fill="rgb(233,171,44)" d="M 594.5 691.337 C 612.205 707.346 626.248 715.236 642.885 729.02 C 637.655 735.516 634.363 740.205 629.753 747.191 C 620.946 742.939 588.154 718.706 578.96 712.023 C 583.544 705.184 588.917 697.427 594.5 691.337 z"/><path transform="translate(0,0)" fill="rgb(253,254,247)" d="M 578.96 712.023 C 588.154 718.706 620.946 742.939 629.753 747.191 C 627.848 750.354 625.027 755.388 622.834 758.144 C 616.248 750.923 579.961 729.055 570.586 723.879 C 572.856 720.128 576.321 715.646 578.96 712.023 z"/><path transform="translate(0,0)" fill="rgb(233,171,44)" d="M 1487.96 910.033 C 1491.25 907.244 1541.77 896.917 1549.15 895.457 L 1553.34 918.581 C 1554.05 923.052 1554.72 927.131 1555.16 931.653 C 1556.09 938.722 1556.95 947.845 1558.08 954.722 C 1558.99 959.996 1559.17 963.375 1559.45 968.629 C 1560.02 975.659 1561.09 985.218 1561.19 992.084 C 1543.53 992.279 1517.12 993.154 1499.64 994.751 C 1499.12 987.261 1498.52 979.777 1497.84 972.299 C 1497.27 968.833 1497.03 964.535 1496.72 960.968 C 1495.91 954.612 1495.05 948.261 1494.16 941.916 C 1493.12 938.261 1492.39 932.853 1491.73 928.972 C 1490.66 922.44 1489.38 916.5 1487.96 910.033 z"/><path transform="translate(0,0)" fill="rgb(233,171,44)" d="M 1558.08 954.722 C 1558.99 959.996 1559.17 963.375 1559.45 968.629 C 1560.02 975.659 1561.09 985.218 1561.19 992.084 C 1543.53 992.279 1517.12 993.154 1499.64 994.751 C 1499.12 987.261 1498.52 979.777 1497.84 972.299 C 1497.27 968.833 1497.03 964.535 1496.72 960.968 C 1515.71 960.017 1538.47 956.459 1558.08 954.722 z"/><path transform="translate(0,0)" fill="rgb(253,254,247)" d="M 1558.08 954.722 C 1558.99 959.996 1559.17 963.375 1559.45 968.629 C 1541.23 969.948 1514.63 970.353 1497.84 972.299 C 1497.27 968.833 1497.03 964.535 1496.72 960.968 C 1515.71 960.017 1538.47 956.459 1558.08 954.722 z"/><path transform="translate(0,0)" fill="rgb(233,171,44)" d="M 1555.16 931.653 C 1556.09 938.722 1556.95 947.845 1558.08 954.722 C 1538.47 956.459 1515.71 960.017 1496.72 960.968 C 1495.91 954.612 1495.05 948.261 1494.16 941.916 C 1498.17 938.785 1546.05 933.388 1555.16 931.653 z"/><path transform="translate(0,0)" fill="rgb(253,254,247)" d="M 1553.34 918.581 C 1554.05 923.052 1554.72 927.131 1555.16 931.653 C 1546.05 933.388 1498.17 938.785 1494.16 941.916 C 1493.12 938.261 1492.39 932.853 1491.73 928.972 C 1507.46 928.209 1535.47 920.765 1553.34 918.581 z"/><path transform="translate(0,0)" fill="rgb(233,171,44)" d="M 1426.17 758.151 C 1443.76 747.187 1461.17 736.721 1478.27 724.97 C 1482.41 731.105 1487.02 739.212 1490.92 745.651 C 1493.38 749.755 1495.89 753.766 1498.05 758.037 C 1501.98 764.724 1504.86 771.099 1508.15 778.127 C 1510.79 783.003 1512.14 785.608 1514.2 790.85 C 1505.53 794.722 1460.48 813.227 1457.04 818.084 C 1453.21 811.384 1448.03 799.585 1444.55 792.294 L 1443.22 790.33 C 1440.76 785.815 1438.59 781.298 1436.33 776.687 C 1433.29 770.603 1429.51 764.141 1426.17 758.151 z"/><path transform="translate(0,0)" fill="rgb(233,171,44)" d="M 1426.17 758.151 C 1443.76 747.187 1461.17 736.721 1478.27 724.97 C 1482.41 731.105 1487.02 739.212 1490.92 745.651 C 1481.94 751.112 1444.04 775.303 1436.33 776.687 C 1433.29 770.603 1429.51 764.141 1426.17 758.151 z"/><path transform="translate(0,0)" fill="rgb(253,254,247)" d="M 1508.15 778.127 C 1510.79 783.003 1512.14 785.608 1514.2 790.85 C 1505.53 794.722 1460.48 813.227 1457.04 818.084 C 1453.21 811.384 1448.03 799.585 1444.55 792.294 C 1447.52 793.538 1452.02 802.296 1454.05 805.764 C 1470.03 797.47 1493.53 786.911 1508.15 778.127 z"/><path transform="translate(0,0)" fill="rgb(253,254,247)" d="M 1436.33 776.687 C 1444.04 775.303 1481.94 751.112 1490.92 745.651 C 1493.38 749.755 1495.89 753.766 1498.05 758.037 C 1488.01 763.086 1456.02 779.381 1444.67 786.655 C 1444.48 786.777 1443.37 789.767 1443.22 790.33 C 1440.76 785.815 1438.59 781.298 1436.33 776.687 z"/><path transform="translate(0,0)" fill="rgb(233,171,44)" d="M 490.639 1077.02 C 510.415 1075.79 531.75 1072.29 551.429 1069.44 C 552.448 1077.3 553.314 1083.66 554.967 1091.38 C 555.727 1094.9 557.016 1100.1 557.371 1103.54 C 558.787 1109.69 560.168 1116.2 561.695 1122.29 C 563.523 1127.73 564.121 1129.96 565.092 1135.6 L 564.45 1136.31 C 558.973 1134.5 512.536 1149.19 504.492 1152.35 C 503.157 1148.24 501.865 1141.94 500.834 1137.6 L 496.401 1115.92 C 494.668 1110.53 494.401 1107.07 493.677 1101.51 C 492.534 1093.36 491.521 1085.2 490.639 1077.02 z"/><path transform="translate(0,0)" fill="rgb(233,171,44)" d="M 490.639 1077.02 C 510.415 1075.79 531.75 1072.29 551.429 1069.44 C 552.448 1077.3 553.314 1083.66 554.967 1091.38 C 546.981 1094.27 503.204 1100.86 493.677 1101.51 C 492.534 1093.36 491.521 1085.2 490.639 1077.02 z"/><path transform="translate(0,0)" fill="rgb(253,254,247)" d="M 561.695 1122.29 C 563.523 1127.73 564.121 1129.96 565.092 1135.6 L 564.45 1136.31 C 558.973 1134.5 512.536 1149.19 504.492 1152.35 C 503.157 1148.24 501.865 1141.94 500.834 1137.6 C 510.109 1136.32 555.712 1126.68 561.695 1122.29 z"/><path transform="translate(0,0)" fill="rgb(253,254,247)" d="M 554.967 1091.38 C 555.727 1094.9 557.016 1100.1 557.371 1103.54 C 540.953 1105.81 512.798 1112 496.401 1115.92 C 494.668 1110.53 494.401 1107.07 493.677 1101.51 C 503.204 1100.86 546.981 1094.27 554.967 1091.38 z"/><path transform="translate(0,0)" fill="rgb(38,25,102)" d="M 1133.57 480.888 C 1146.74 477.898 1160.49 482.214 1169.59 492.189 C 1178.69 502.164 1181.72 516.259 1177.54 529.094 C 1173.35 541.929 1162.59 551.524 1149.36 554.216 C 1129.22 558.314 1109.54 545.445 1105.21 525.356 C 1100.89 505.267 1113.53 485.439 1133.57 480.888 z M 1142.17 546.151 C 1147.24 543.125 1149.42 541.352 1152.09 535.972 C 1159.22 521.583 1167.57 488.064 1141.78 488.89 C 1125.62 499.968 1113.51 545.402 1142.17 546.151 z"/><path transform="translate(0,0)" fill="rgb(233,171,44)" d="M 542.083 775.861 C 549.36 780.237 590.896 803.222 597.542 803.793 L 591.962 815.763 L 584.025 833.072 C 582.614 836.695 580.731 842.012 578.961 845.309 C 576.85 850.847 573.484 858.985 572.123 864.509 C 565.799 863.38 519.375 846.721 513.108 843.103 L 520.944 821.997 L 526.489 809.441 C 529.417 802.557 532.26 795.577 535.709 788.946 C 537.668 784.62 539.974 780.141 542.083 775.861 z"/><path transform="translate(0,0)" fill="rgb(233,171,44)" d="M 542.083 775.861 C 549.36 780.237 590.896 803.222 597.542 803.793 L 591.962 815.763 L 584.025 833.072 C 577.665 833.382 534.72 813.051 526.489 809.441 C 529.417 802.557 532.26 795.577 535.709 788.946 C 537.668 784.62 539.974 780.141 542.083 775.861 z"/><path transform="translate(0,0)" fill="rgb(253,254,247)" d="M 542.083 775.861 C 549.36 780.237 590.896 803.222 597.542 803.793 L 591.962 815.763 C 585.1 810.693 545.08 792.907 535.709 788.946 C 537.668 784.62 539.974 780.141 542.083 775.861 z"/><path transform="translate(0,0)" fill="rgb(253,254,247)" d="M 526.489 809.441 C 534.72 813.051 577.665 833.382 584.025 833.072 C 582.614 836.695 580.731 842.012 578.961 845.309 C 574.854 841.643 529.856 825.485 520.944 821.997 L 526.489 809.441 z"/><path transform="translate(0,0)" fill="rgb(38,25,102)" d="M 1207.88 498.453 C 1220.72 503.774 1253.41 514.916 1259.4 527.201 C 1261.68 531.811 1261.91 537.165 1260.05 541.957 C 1255.08 554.499 1243.7 551.02 1239.05 552.873 L 1241.32 557.837 C 1245.25 566.31 1244.11 571.956 1243.77 581.417 C 1247.2 584.613 1249.93 586.547 1248.6 591.516 L 1246.4 592.596 C 1237.38 591.918 1233.91 588.989 1226.05 584.391 L 1226.02 566.75 C 1225.27 555.829 1226.02 553.818 1216.41 547.591 C 1214.58 551.815 1208.78 563.527 1208.81 567.047 C 1211.33 568.601 1212.44 569.329 1214.85 571.206 L 1215 573.408 C 1213.09 576.798 1214.37 575.487 1210.97 577.452 C 1208.5 577.245 1183.06 566.57 1180.07 564.984 C 1180.01 560.951 1179.3 562.487 1181.55 559.928 C 1185.46 558.974 1192.61 557.467 1193.82 553.045 C 1196.84 542.041 1210.82 519.763 1210.45 509.333 L 1207.1 506.243 C 1205.81 502.449 1206.42 503.196 1207.88 498.453 z M 1219.68 539.669 C 1226.22 542.222 1227.32 542.79 1234.41 543.272 C 1247.39 533.547 1243.57 522.853 1229.27 518.222 C 1226.21 524.939 1222.33 532.899 1219.68 539.669 z"/><path transform="translate(0,0)" fill="rgb(38,25,102)" d="M 758.304 541.262 C 773.634 542.909 783.441 552.496 779.373 568.606 C 776.322 580.691 766.683 587.081 756.826 593.302 C 758.72 596.561 762.637 603.713 765.284 605.808 C 766.801 607.009 773.795 601.435 777.697 606.74 C 777.42 608.47 776.545 610.996 774.912 611.895 C 765.415 617.124 756.736 622.931 747.931 629.241 C 746.487 627.295 746.192 626.42 745.165 624.201 C 745.728 620.511 745.86 621.423 748.996 618.115 C 749.614 611.309 730.931 589.609 728.036 581.777 C 725.091 573.812 715.535 574.201 711.168 571.258 C 710.906 569.711 710.462 568.22 712.084 566.962 C 724.198 557.567 743.757 543.446 758.304 541.262 z M 754.578 583.63 C 770.623 571.13 759.485 553.724 744.581 556.01 C 741.451 557.806 738.337 558.975 736.859 562.056 C 738.242 566.695 750.146 584.827 754.578 583.63 z"/><path transform="translate(0,0)" fill="rgb(38,25,102)" d="M 1029.69 466.798 C 1047.84 468.982 1095.84 463.873 1094.98 491.269 C 1094.81 497.523 1092.11 503.44 1087.5 507.672 C 1077.5 516.851 1066.5 514.817 1054.65 514.42 L 1054 515.909 C 1053.84 521.392 1053.52 524.94 1054.66 530.386 C 1057.88 532.362 1062.18 534.635 1063.72 537.927 L 1062.81 539.61 C 1058.66 541.343 1031.3 539.489 1027.11 537.467 C 1026.21 533.727 1025.8 535.229 1027.28 532.547 C 1030.52 531.305 1033.03 530.869 1034.8 528.037 C 1035.38 517.947 1038.39 484.014 1035.97 476.349 C 1029.27 473.311 1030.19 473.737 1029.69 466.798 z M 1054.81 505.997 C 1061.09 505.877 1064.37 505.871 1070.58 503.82 C 1080.45 491.32 1072.56 478.325 1056.61 477.338 C 1055.7 486.825 1055.3 496.47 1054.81 505.997 z"/><path transform="translate(0,0)" fill="rgb(38,25,102)" d="M 816.953 508.989 C 824.707 510.192 856.659 549.266 864.601 555.776 C 869.845 556.551 873.149 555.838 874.71 561.113 L 873.817 562.687 C 867.572 566.387 850.985 574.028 844.037 575.877 C 840.484 574.117 841.571 575.426 840.17 572.282 C 840.837 569.237 843.878 566.474 846.087 564.013 C 843.006 557.996 839.994 554.031 833.284 556.376 C 827.426 559.548 822.878 560.437 816.505 562.052 C 816.892 566.148 817.208 572.99 818.637 576.569 L 826.31 576.502 C 829.202 578.617 828.444 577.268 829.021 580.463 C 826.245 584.78 808.75 593.248 803.055 590.497 L 802.461 588.254 C 804.006 583.748 803.226 585.303 807.298 581.943 C 806.772 559.447 805.185 537.496 804.095 515.055 L 816.953 508.989 z M 815.954 552.746 C 820.289 551.421 824.406 550.202 828.666 548.622 L 830.417 547.329 C 828.946 542.469 817.785 531.689 813.867 528.701 C 814.798 536.854 815.379 544.555 815.954 552.746 z"/><path transform="translate(0,0)" fill="rgb(38,25,102)" d="M 973.324 468.337 C 982.655 467.433 993.448 468.522 1004.02 467.814 C 1004.16 473.064 1006.16 486.708 1002 489.361 C 994.111 486.794 988.363 474.249 977.843 477.283 C 973.89 478.423 970.131 483.308 971.762 487.222 C 973.85 492.254 981.844 495.422 987.285 496.187 C 1006.11 498.833 1019.02 511.91 1009.08 530.913 C 1004.85 538.989 995.677 541.145 986.83 543.126 C 976.97 544.264 968.512 541.546 957.354 542.318 C 957.045 536.627 954.616 524.132 956.284 519.627 C 967.231 517.881 963.95 522.831 972.303 531.316 C 979.279 541.867 998.56 529.339 994.414 521.819 C 988.543 511.17 961.096 515.982 955.666 497.777 C 950.079 479.041 958.346 473.754 973.324 468.337 z"/><path transform="translate(0,0)" fill="rgb(38,25,102)" d="M 911.309 478.593 C 915.013 478.16 919.904 477.16 922.934 478.648 C 925.38 483.936 928.851 493.182 925.036 498.456 C 916.045 500.743 916.215 490.203 908.865 487.958 C 902.493 486.012 893.511 490.164 892.251 496.958 C 896.651 508.627 922.038 505.169 933.04 515.222 C 946.697 527.701 938.577 543.603 923.891 550.816 C 915.894 554.745 905.088 555.098 895.812 555.5 C 894.462 555.689 892.714 555.807 891.39 555.926 C 885.416 556.463 882.159 539.346 882.919 535.687 C 885.326 532.711 883.824 533.68 887.656 532.792 C 899.582 535.319 895.669 545.966 906.735 546.105 C 914.355 546.201 922.574 544.008 922.151 534.667 C 916.348 521.423 878.001 528.823 876.62 506.09 C 875.266 483.794 893.52 479.89 911.309 478.593 z"/><path transform="translate(0,0)" fill="rgb(38,25,102)" d="M 1288.73 535.657 C 1297.36 543.024 1333.42 565.534 1343.92 571.659 C 1340.8 576.93 1334.48 590.306 1327.42 589.232 C 1324.13 584.083 1326.59 578.293 1328.06 572.813 C 1325.41 570.195 1322.37 568.232 1319.32 566.095 C 1311.13 582.062 1300.27 595.803 1291.15 611.108 C 1291.26 611.825 1291.37 612.542 1291.48 613.259 C 1294.09 614.746 1294.54 615.039 1296.86 616.959 C 1298.27 620.754 1298.34 619.009 1297.5 622.34 C 1290.68 625.943 1266.04 608.47 1262.89 603.686 L 1263.52 601.986 C 1266.9 600.365 1270.32 600.474 1274.08 600.235 C 1278.06 596.325 1300.96 560.702 1302.16 555.433 C 1295.95 547.651 1286.71 559.912 1278.63 558.642 L 1277.88 556.603 C 1279.28 546.56 1282.5 543.954 1288.73 535.657 z"/><path transform="translate(0,0)" fill="rgb(233,171,44)" d="M 1460.46 1202.29 C 1475.21 1207.38 1500.45 1219.99 1516.41 1226.81 C 1513.8 1234.34 1510.38 1240.58 1506.75 1247.61 C 1502.11 1248.52 1459.17 1225.82 1451.21 1222.26 C 1454.15 1215.53 1457.23 1208.88 1460.46 1202.29 z"/><path transform="translate(0,0)" fill="rgb(233,171,44)" d="M 1429.3 1261.59 C 1440.23 1266.28 1471.38 1285.51 1482.19 1292.71 C 1478.09 1299.35 1473.62 1305.47 1469.09 1311.8 C 1464.53 1310.77 1423.76 1282.73 1417.27 1278.49 C 1421.12 1272.75 1425.13 1267.12 1429.3 1261.59 z"/><path transform="translate(0,0)" fill="rgb(233,171,44)" d="M 1472.51 1172.31 C 1485.52 1175.91 1515.76 1188.12 1529.9 1193.08 C 1527.16 1200.54 1524.47 1208.03 1521.83 1215.52 C 1517.8 1215.77 1471.78 1195.02 1465.3 1191.96 C 1467.18 1184.93 1469.76 1179.03 1472.51 1172.31 z"/><path transform="translate(0,0)" fill="rgb(233,171,44)" d="M 1482.59 1139.92 L 1540.62 1158.3 C 1539.18 1164.9 1537.19 1174.27 1534.59 1180.25 C 1514.8 1174.19 1495.11 1167.82 1475.53 1161.12 C 1477.83 1153.05 1479.48 1147.67 1482.59 1139.92 z"/><path transform="translate(0,0)" fill="rgb(233,171,44)" d="M 1491.48 1107.85 C 1511.26 1112.51 1530.97 1117.44 1550.61 1122.64 C 1548.78 1130.36 1547.14 1137.16 1544.81 1144.73 L 1485.66 1129.73 C 1487.44 1122.08 1489.28 1115.4 1491.48 1107.85 z"/><path transform="translate(0,0)" fill="rgb(233,171,44)" d="M 1445.57 1232.39 C 1462.65 1239.98 1483.52 1252 1500.29 1261.09 C 1496.96 1267.27 1492.7 1274.15 1489.1 1280.27 L 1488.34 1280.63 C 1483.11 1279.62 1443.4 1255.63 1436.38 1251.29 C 1439.43 1244.53 1442.07 1238.93 1445.57 1232.39 z"/><path transform="translate(0,0)" fill="rgb(233,171,44)" d="M 1497.14 1075.8 C 1515.35 1079.74 1536.38 1082.34 1555.45 1086.14 C 1554.92 1093.45 1553.56 1102.37 1552.64 1109.75 C 1533.18 1104.99 1513.12 1101.83 1493.37 1098.03 C 1494.09 1091.18 1495.87 1082.72 1497.14 1075.8 z"/><path transform="translate(0,0)" fill="rgb(233,171,44)" d="M 1499.14 1043.51 C 1518.41 1044.85 1541.3 1047.29 1560.26 1046.91 L 1557.6 1070.68 C 1552.13 1071.91 1505.62 1065.75 1497.82 1064.78 C 1498.36 1057.7 1498.8 1050.6 1499.14 1043.51 z"/><path transform="translate(0,0)" fill="rgb(38,25,102)" d="M 636.78 674.667 C 645.254 671.748 654.49 676.247 657.415 684.719 C 660.34 693.191 655.847 702.431 647.376 705.361 C 638.898 708.295 629.648 703.796 626.72 695.316 C 623.793 686.836 628.298 677.589 636.78 674.667 z"/><path transform="translate(0,0)" fill="rgb(38,25,102)" d="M 1394.52 1327.98 C 1402.84 1325.29 1411.77 1329.81 1414.52 1338.1 C 1417.28 1346.4 1412.84 1355.36 1404.58 1358.2 C 1396.2 1361.06 1387.1 1356.56 1384.31 1348.16 C 1381.51 1339.76 1386.1 1330.7 1394.52 1327.98 z"/><path transform="translate(0,0)" fill="rgb(38,25,102)" d="M 662.458 1342.21 C 668.118 1341.17 673.897 1343.29 677.547 1347.74 C 681.197 1352.19 682.142 1358.27 680.014 1363.61 C 677.886 1368.96 673.022 1372.73 667.313 1373.46 C 658.818 1374.54 651.006 1368.66 649.691 1360.2 C 648.376 1351.73 654.036 1343.76 662.458 1342.21 z"/><path transform="translate(0,0)" fill="rgb(38,25,102)" d="M 1027.17 1499.09 C 1028.73 1498.98 1030.3 1498.98 1031.87 1499.08 C 1049.98 1500.28 1052.56 1518.65 1037.43 1530.49 C 1034.3 1531.07 1031.9 1531.48 1028.71 1530.96 C 1024.73 1530.34 1021.19 1528.05 1018.99 1524.67 C 1012.82 1515.07 1018.46 1504.65 1027.17 1499.09 z"/><path transform="translate(0,0)" fill="rgb(38,25,102)" d="M 517.176 1002.84 C 525.772 1001.3 533.977 1007.06 535.45 1015.66 C 536.923 1024.27 531.099 1032.43 522.48 1033.84 C 513.957 1035.22 505.908 1029.48 504.452 1020.97 C 502.995 1012.46 508.676 1004.36 517.176 1002.84 z"/><path transform="translate(0,0)" fill="rgb(38,25,102)" d="M 1528.61 998.892 C 1537.24 998.158 1544.82 1004.58 1545.5 1013.21 C 1546.19 1021.85 1539.73 1029.39 1531.09 1030.03 C 1522.52 1030.67 1515.05 1024.26 1514.36 1015.7 C 1513.68 1007.13 1520.05 999.621 1528.61 998.892 z"/><path transform="translate(0,0)" fill="rgb(38,25,102)" d="M 1420.6 690.746 C 1428.82 688.692 1437.17 693.641 1439.32 701.844 C 1441.47 710.048 1436.61 718.451 1428.43 720.689 C 1423.06 722.16 1417.31 720.629 1413.38 716.681 C 1409.45 712.734 1407.94 706.979 1409.44 701.612 C 1410.93 696.245 1415.19 692.095 1420.6 690.746 z"/></svg>