<svg version="1.1" xmlns="http://www.w3.org/2000/svg" style="display: block;" viewBox="0 0 2048 2048" width="1024" height="1024" preserveAspectRatio="none"><defs><linearGradient id="Gradient1" gradientUnits="userSpaceOnUse" x1="1571.24" y1="1116.9" x2="1627.05" y2="1146.16"><stop class="stop0" offset="0" stop-opacity="1" stop-color="rgb(134,150,167)"/><stop class="stop1" offset="1" stop-opacity="1" stop-color="rgb(164,175,195)"/></linearGradient><linearGradient id="Gradient2" gradientUnits="userSpaceOnUse" x1="517.178" y1="938.909" x2="458.84" y2="875.164"><stop class="stop0" offset="0" stop-opacity="1" stop-color="rgb(195,196,201)"/><stop class="stop1" offset="1" stop-opacity="1" stop-color="rgb(246,246,245)"/></linearGradient><linearGradient id="Gradient3" gradientUnits="userSpaceOnUse" x1="899.86" y1="672.521" x2="894.92" y2="647.234"><stop class="stop0" offset="0" stop-opacity="1" stop-color="rgb(0,0,0)"/><stop class="stop1" offset="1" stop-opacity="1" stop-color="rgb(12,13,29)"/></linearGradient></defs><path transform="translate(0,0)" fill="rgb(19,21,36)" d="M 698.297 603.076 C 705.471 578.392 722.625 559.272 744.839 546.744 C 771.262 532.119 802.42 528.617 831.429 537.013 C 863.841 546.452 882.201 564.502 898.085 593.109 C 926.163 565.132 984.145 574.38 1005.91 605.509 C 1010.2 611.649 1012.41 615.783 1015.58 622.638 C 1016.49 622.299 1017.4 621.968 1018.32 621.647 C 1076.2 601.458 1124.36 661.731 1095.88 717.343 C 1098.05 719.921 1100.18 722.539 1102.27 725.194 C 1121.26 749.723 1123.87 786.546 1108.15 813.058 C 1098.17 829.904 1093.39 827.7 1094.68 850.522 C 1095.71 868.791 1094.8 889.788 1092.57 908.042 C 1112.09 907.698 1158.35 909.138 1179.17 914.98 C 1184.09 916.361 1183.08 944.949 1179.89 950.736 C 1171.69 956.223 1167.62 958.359 1162.83 967.152 L 1161.86 968.917 C 1161.66 969.304 1161.45 969.691 1161.25 970.077 L 1180.14 952.112 C 1224.61 904.114 1246.25 861.957 1261.54 798.594 C 1248.69 792.857 1253.08 787.989 1243.24 781.247 C 1236.68 776.747 1222.62 770.282 1225.97 759.481 C 1227.58 754.294 1233.26 750.183 1237.77 748.11 C 1238.69 727.191 1248.43 710.849 1271.05 709.519 C 1281.5 708.801 1291.78 712.382 1299.53 719.433 C 1321.08 739.131 1316.99 779.066 1297.49 799.001 C 1283.74 868.875 1249.75 933.164 1199.75 983.869 C 1185.34 998.369 1171.79 1008.7 1156.28 1021.8 C 1146.4 1064.08 1134.73 1084.92 1092.57 1100.18 C 1090.08 1147.04 1093.06 1198.23 1093.22 1245.32 C 1093.25 1255.14 1099.25 1268.89 1099.58 1280.98 C 1100.62 1318.69 1074.54 1334.41 1044.24 1348.86 C 972.339 1380.9 889.692 1389.12 811.681 1388.41 C 747.135 1387.74 681.752 1378.88 620.883 1356.66 C 596.583 1347.78 564.333 1333.96 550.473 1310.02 C 539.546 1291.15 546.995 1267.25 550.598 1247.41 C 552.064 1239.35 551.966 1227.68 552.03 1219.39 C 519.462 1209.63 449.804 1185.89 427.141 1162.38 C 417.773 1152.66 410.803 1140.89 406.785 1128 C 395.712 1092.92 397.138 1000.97 397.77 962.953 C 363.235 923.611 333.366 861.656 324.443 809.882 C 303.433 794.048 300.961 752.721 316.558 732.674 C 322.663 724.841 331.667 719.799 341.536 718.684 C 366.652 715.759 379.898 732.251 381.857 755.497 C 403.733 765.54 396.634 785.066 376.098 791.729 C 370.317 801.578 369.63 803.271 360.144 809.483 C 370.632 847.99 382.016 876.686 402.348 910.743 C 420.18 849.246 452.458 842.042 511.054 842.044 L 551.634 841.775 C 551.065 832.433 551.065 797.022 551.535 787.211 C 517.329 761.336 519.381 715.674 561.001 700.17 C 560.996 697.096 561.131 694.464 561.546 691.397 C 563.594 676.766 571.451 663.578 583.343 654.813 C 598.482 643.77 614.993 641.611 633.019 644.406 C 644.156 613.167 666.214 602.38 698.297 603.076 z M 489.469 917.117 C 485.136 938.506 483.589 974.428 483.26 996.389 C 494.296 1001.31 505.346 1009.37 516.168 1015 C 527.4 1020.85 539.383 1025.94 550.972 1031.1 C 551.337 1022.94 552.145 1011.69 551.744 1003.76 C 550.783 993.132 550.924 979.873 551.009 969.018 C 547.311 969.843 543.512 970.745 539.81 971.491 C 532.858 978.412 527.326 994.899 520.109 994.329 C 499.549 992.707 509.412 961.802 520.22 954.43 C 532.509 946.048 539.353 946.391 551.292 944.966 C 551.183 935.405 550.919 925.436 551.122 915.907 C 542.597 916.047 531.777 915.913 523.442 916.478 C 512.3 916.992 500.088 916.264 489.469 917.117 z M 1068.48 1311.61 C 1053.93 1328.91 986.923 1347.82 964.041 1353.22 C 955.914 1355.45 945.178 1357.42 936.699 1358.48 C 935.037 1359.12 918.379 1361.25 915.252 1361.55 C 858.466 1366.89 792.458 1368.46 735.948 1362.18 C 722.1 1360.59 708.319 1358.45 694.637 1355.79 C 687.237 1354.28 678.991 1351.97 671.722 1350.92 L 670.875 1350.8 L 666.872 1349.32 C 645.422 1345.83 613.254 1334.6 593.399 1325.92 C 584.42 1322 575.922 1316.57 567.061 1312.6 L 566.17 1312.2 C 579.224 1328.54 622.635 1345.63 643.619 1351.99 C 765.161 1388.81 935.634 1388.94 1051.08 1331.88 C 1067.65 1323.69 1081.19 1313.89 1086.78 1295.91 C 1082.08 1299.94 1072.84 1308.88 1068.48 1311.61 z M 551.288 1068.83 C 526.329 1060.52 504.973 1051.4 482.912 1036.39 C 482.919 1048.99 484.906 1110.54 493.688 1118.42 C 503.031 1126.8 537.699 1136.9 551.911 1141.74 C 551.726 1120.64 552.737 1088.44 551.288 1068.83 z"/><path transform="translate(0,0)" fill="rgb(254,254,253)" d="M 709.207 619.398 C 724.571 564.794 770.629 538.928 825.665 551.348 C 858.412 562.156 876.709 578.139 888.114 610.99 C 896.986 613.329 908.532 620.686 911.687 620.506 L 913.487 618.38 C 910.633 613.879 907.527 611.08 903.803 607.301 C 914.743 598.45 920.947 595.719 934.751 592.905 C 973.085 586.347 996.69 607.874 1006.52 642.034 C 1007.58 644.26 1009.73 645.047 1011.88 644.77 C 1015.87 644.259 1019.4 638.092 1022.17 636.585 C 1047.39 622.856 1081.66 643.103 1087.92 669.457 C 1092.77 689.916 1088.41 701.498 1079.03 717.574 C 1078.66 718.206 1078.29 718.835 1077.91 719.463 C 1095.09 738.936 1104.43 749.454 1103.69 777.727 C 1103.06 802.069 1086.36 812.147 1081.48 829.545 C 1076.08 848.784 1087.48 890.328 1073.48 909.077 C 1070.84 908.511 1058.62 909.063 1055.14 909.153 C 1032.99 876.242 1060.59 837.826 1034.09 807.688 C 1028.43 810.484 1013.1 817.639 1007.44 814.287 C 1004.92 809.253 1009 796.8 1009.67 787.943 L 1008.66 784.224 L 1007.34 785.717 L 1004.67 785.234 C 1001.34 782.142 1002.39 783.515 1001.09 778.749 C 1000.75 801.714 993.602 807.778 977.21 822.114 L 977.029 824.024 C 974.746 849.685 981.686 877.6 969.392 899.62 C 963.092 906.553 953.736 912.436 944.752 906.227 C 923.298 891.401 938.732 853.531 930.981 831.514 C 924.954 814.395 919.103 808.351 904.845 799.9 C 842.377 815.275 849.833 775.983 836.956 771.007 L 835.377 772.746 C 834.755 779.483 835.048 781.279 835.893 787.911 C 763.365 789.235 690.823 786.254 618.649 778.983 C 603.055 777.561 570.276 775.522 556.033 772.645 C 549.726 766.997 545.417 760.89 543.551 752.429 C 541.562 743.755 543.142 734.645 547.935 727.148 C 555.039 716.238 563.507 714.559 574.979 712.281 C 574.38 670.191 598.549 651.309 640.551 660.152 C 647.17 661.545 649.227 645.58 651.558 640.441 C 653.966 635.234 657.58 630.676 662.101 627.145 C 676.715 615.844 692.526 617.156 709.207 619.398 z"/><path transform="translate(0,0)" fill="rgb(229,229,227)" d="M 709.207 619.398 C 724.571 564.794 770.629 538.928 825.665 551.348 C 818.246 555.997 806.64 555.687 798.006 557.735 C 771.234 564.085 749.326 582.768 740.949 609.252 C 739.954 612.421 739.047 615.617 738.228 618.836 C 724.035 616.794 716.629 618.586 705.951 628.485 C 684.204 627.475 668.146 644.542 667.645 666.003 C 667.597 668.834 667.669 671.667 667.862 674.492 C 643.528 663.212 604.143 659.075 594.616 691.408 C 602.391 689.597 614.074 688.001 621.4 691.458 L 622.15 693.432 C 614.292 704.858 594.483 687.798 595.315 729.203 C 590.213 726.584 585.156 723.564 579.353 725.667 C 569.57 729.211 570.326 741.816 573.956 749.335 C 577.414 756.503 583.607 761.981 591.143 764.54 C 605.863 769.468 619.919 761.622 630.163 751.49 C 650.262 778.166 689.172 782.507 707.17 750.752 C 713.446 760.979 719.34 770.076 732.017 773.408 C 740.357 775.578 749.227 774.102 756.417 769.349 C 764.226 764.255 766.151 760.044 771.62 752.813 C 792.684 778.836 804.377 780.682 835.377 772.746 C 834.755 779.483 835.048 781.279 835.893 787.911 C 763.365 789.235 690.823 786.254 618.649 778.983 C 603.055 777.561 570.276 775.522 556.033 772.645 C 549.726 766.997 545.417 760.89 543.551 752.429 C 541.562 743.755 543.142 734.645 547.935 727.148 C 555.039 716.238 563.507 714.559 574.979 712.281 C 574.38 670.191 598.549 651.309 640.551 660.152 C 647.17 661.545 649.227 645.58 651.558 640.441 C 653.966 635.234 657.58 630.676 662.101 627.145 C 676.715 615.844 692.526 617.156 709.207 619.398 z"/><path transform="translate(0,0)" fill="rgb(229,229,227)" d="M 848.576 754.663 C 850.834 760.916 852.41 766.427 856.288 771.857 C 871.491 793.144 894.479 794.18 915.209 781.545 L 915.983 782.622 C 924.849 794.752 938.458 806.579 943.426 820.349 C 955.188 852.959 932.114 879.869 969.392 899.62 C 963.092 906.553 953.736 912.436 944.752 906.227 C 923.298 891.401 938.732 853.531 930.981 831.514 C 924.954 814.395 919.103 808.351 904.845 799.9 C 842.377 815.275 849.833 775.983 836.956 771.007 C 834.479 764.717 843.925 758.561 848.576 754.663 z"/><path transform="translate(0,0)" fill="rgb(229,229,227)" d="M 1009.67 787.943 C 1009.93 789.444 1010.09 792.89 1011.25 793.654 C 1027.09 804.066 1041.44 781.749 1051.87 777.929 L 1052.88 779.029 C 1051.52 788.094 1049.44 791.066 1047.04 799.235 C 1051.61 806.065 1055.56 811.247 1057.65 819.296 C 1065.74 850.481 1045.49 885.262 1073.48 909.077 C 1070.84 908.511 1058.62 909.063 1055.14 909.153 C 1032.99 876.242 1060.59 837.826 1034.09 807.688 C 1028.43 810.484 1013.1 817.639 1007.44 814.287 C 1004.92 809.253 1009 796.8 1009.67 787.943 z"/><path transform="translate(0,0)" fill="rgb(8,12,22)" d="M 705.951 628.485 C 716.629 618.586 724.035 616.794 738.228 618.836 C 744.669 621.202 749.341 623.558 753.78 628.899 L 754.269 631.541 L 753.368 632.525 C 748.118 631.489 747.341 629.714 743.008 627.933 C 734.213 624.32 723.982 626.007 716.245 631.241 C 707.239 637.334 708.381 646.025 701.589 654.145 C 698.811 653.42 700.059 654.13 698.215 651.211 C 697.532 643.571 701.737 634.697 705.951 628.485 z"/><path transform="translate(0,0)" fill="rgb(229,229,227)" d="M 903.803 607.301 C 914.743 598.45 920.947 595.719 934.751 592.905 C 926.746 603.619 921.099 604.826 913.487 618.38 C 910.633 613.879 907.527 611.08 903.803 607.301 z"/><path transform="translate(0,0)" fill="rgb(8,12,22)" d="M 1001.09 778.749 C 1000.48 774.173 999.623 773.632 1001.19 770.103 C 1005.48 771.539 1007.92 780.024 1008.66 784.224 L 1007.34 785.717 L 1004.67 785.234 C 1001.34 782.142 1002.39 783.515 1001.09 778.749 z"/><path transform="translate(0,0)" fill="url(#Gradient3)" d="M 871.486 660.171 C 875.419 654.834 878.148 651.749 884.221 649.054 C 900.913 641.647 920.115 648.982 925.89 666.665 C 926.162 667.499 925.909 668.303 925.74 669.095 L 923.986 670.353 C 919.153 667.327 916.635 662.005 911.476 658.83 C 898.096 650.595 886.095 656.114 875.935 666.238 C 873.499 663.694 873.276 663.112 871.486 660.171 z"/><path transform="translate(0,0)" fill="rgb(8,12,22)" d="M 871.486 660.171 C 873.276 663.112 873.499 663.694 875.935 666.238 C 874.074 669.406 872.577 672.816 869.494 674.604 L 867.765 674.024 C 866.433 668.457 868.841 665.06 871.486 660.171 z"/><path transform="translate(0,0)" fill="rgb(195,110,35)" d="M 888.884 1163.02 C 900.049 1161.31 909.853 1160.71 921.478 1158.63 L 923.214 1206.32 C 923.327 1206.71 923.439 1207.1 923.551 1207.49 C 925.922 1233.95 932.887 1267.88 968.031 1259.93 C 989.901 1254.99 996.361 1245.23 1001.77 1224.55 C 1017.74 1227.54 1036.93 1231.56 1050.41 1241.18 C 1045.39 1256.94 1033.06 1266.94 1018.86 1274.36 C 943.989 1313.49 763.948 1315.81 683.94 1293.42 C 683.687 1293.35 683.443 1293.25 683.195 1293.16 C 679.921 1277.73 680.054 1264.95 681.383 1249.37 C 696.438 1263.41 714.846 1267.4 733.29 1256.64 C 751.477 1246.04 748.115 1221.19 752.766 1205.32 C 752.865 1207.66 752.928 1209.18 753.264 1211.49 C 758.634 1211.69 785.791 1210.71 789.593 1209.32 L 790.403 1207.27 C 793.526 1225.94 791.626 1248.04 809.007 1260.07 C 827.639 1272.97 862.485 1271.56 876.065 1251.86 C 884.824 1239.15 883.811 1224.77 886.667 1210.96 C 888.006 1195.32 888.121 1178.84 888.884 1163.02 z"/><path transform="translate(0,0)" fill="rgb(240,146,45)" d="M 888.884 1163.02 C 900.049 1161.31 909.853 1160.71 921.478 1158.63 L 923.214 1206.32 L 922.765 1211.99 C 920.158 1213.4 891.728 1211.27 886.667 1210.96 C 888.006 1195.32 888.121 1178.84 888.884 1163.02 z"/><path transform="translate(0,0)" fill="rgb(254,254,253)" d="M 591.131 790.983 L 601.928 792.485 C 674.329 799.173 769.777 807.324 842.017 802.152 C 859.463 820.712 879.775 822.432 902.79 815.428 C 924.2 833.513 919.078 857.574 917.91 882.981 C 907.105 883.621 896.307 884.371 885.518 885.232 C 878.602 853.599 868.824 842.286 833.698 843.41 C 822.113 843.781 808.886 847.212 802.577 857.879 C 802.477 860.175 802.236 861.757 801.693 863.99 L 802.501 864.607 L 801.794 866.147 L 802.841 866.87 C 804.196 865.44 805.503 863.497 807.497 863.354 C 803.648 871.983 801.645 876.764 799.85 886.174 L 798.976 894.802 C 798.368 903.483 797.887 912.676 797.104 921.296 L 789.964 919.644 C 787.426 921.879 760.486 920.389 755.171 920.312 C 755.028 907.966 754.377 897.727 753.433 885.426 C 750.419 863.943 743.95 842.324 719.546 838 C 686.813 832.2 676.77 853.538 672.434 880.464 C 663.934 878.809 658.097 877.725 649.4 876.633 C 645.594 876.127 639.853 876.054 635.878 875.881 C 633.422 853.885 628.641 830.952 601.319 833.325 C 597.932 835.94 594.684 838.688 591.395 841.424 L 591.131 790.983 z"/><path transform="translate(0,0)" fill="rgb(240,146,45)" d="M 753.433 885.426 C 766.232 884.922 779.444 885.622 792.274 886.063 L 791.468 892.602 L 792.742 896.327 L 794.768 897.058 C 795.914 896.46 797.979 895.469 798.976 894.802 C 798.368 903.483 797.887 912.676 797.104 921.296 L 789.964 919.644 C 787.426 921.879 760.486 920.389 755.171 920.312 C 755.028 907.966 754.377 897.727 753.433 885.426 z"/><path transform="translate(0,0)" fill="rgb(23,19,12)" d="M 791.468 892.602 L 792.742 896.327 L 794.768 897.058 C 795.914 896.46 797.979 895.469 798.976 894.802 C 798.368 903.483 797.887 912.676 797.104 921.296 L 789.964 919.644 C 789.714 911.248 790.734 900.985 791.468 892.602 z"/><path transform="translate(0,0)" fill="rgb(229,229,227)" d="M 591.131 790.983 L 601.928 792.485 C 601.721 802.819 600.445 824.325 601.319 833.325 C 597.932 835.94 594.684 838.688 591.395 841.424 L 591.131 790.983 z"/><path transform="translate(0,0)" fill="rgb(8,12,22)" d="M 802.577 857.879 C 802.477 860.175 802.236 861.757 801.693 863.99 L 802.501 864.607 L 801.794 866.147 L 802.841 866.87 C 804.196 865.44 805.503 863.497 807.497 863.354 C 803.648 871.983 801.645 876.764 799.85 886.174 L 798.976 894.802 C 797.979 895.469 795.914 896.46 794.768 897.058 L 792.742 896.327 L 791.468 892.602 L 792.274 886.063 C 794.114 875.351 795.777 866.669 802.577 857.879 z"/><path transform="translate(0,0)" fill="rgb(240,146,45)" d="M 881.82 1047.4 C 881.896 1067.17 881.864 1086.94 881.724 1106.71 C 871.335 1116.44 863.684 1126.7 860.521 1141 C 859.57 1145.3 859.097 1152.91 861.606 1156.67 C 865.981 1154.85 867.273 1148.59 868.7 1144.2 C 872.085 1133.79 875.712 1128.08 883.238 1120.1 C 924.903 1086.37 949.171 1130.14 925.169 1146.07 C 917.01 1149.22 882.256 1152.96 881.417 1160.45 C 879.661 1176.12 879.931 1194.68 879.102 1210.83 C 877.217 1233.89 873.177 1257.55 845.659 1260.4 C 807.345 1264.36 800.911 1242.08 798.57 1210.06 C 795.932 1184.2 796.133 1140.09 796.05 1113.49 C 843.684 1109.82 863.773 1088.61 881.82 1047.4 z"/><path transform="translate(0,0)" fill="rgb(195,110,35)" d="M 798.57 1210.06 C 821.182 1209.56 856.449 1208.77 879.102 1210.83 C 877.217 1233.89 873.177 1257.55 845.659 1260.4 C 807.345 1264.36 800.911 1242.08 798.57 1210.06 z"/><path transform="translate(0,0)" fill="rgb(195,110,35)" d="M 883.238 1120.1 C 924.903 1086.37 949.171 1130.14 925.169 1146.07 C 909.212 1125.11 908.206 1124.28 883.238 1120.1 z"/><path transform="translate(0,0)" fill="rgb(209,118,40)" d="M 828.098 1170.73 C 831.595 1169.47 835.503 1170.18 838.328 1172.6 C 841.153 1175.02 842.459 1178.77 841.747 1182.42 C 841.035 1186.07 838.415 1189.06 834.888 1190.24 C 829.526 1192.03 823.718 1189.18 821.859 1183.84 C 820 1178.5 822.781 1172.66 828.098 1170.73 z"/><path transform="translate(0,0)" fill="rgb(229,229,227)" d="M 636.275 1291.67 C 726.904 1320.39 835.72 1326.66 929.407 1311.85 C 938.719 1332.34 953.238 1330.38 935.536 1357.57 L 936.699 1358.48 C 935.037 1359.12 918.379 1361.25 915.252 1361.55 C 858.466 1366.89 792.458 1368.46 735.948 1362.18 C 722.1 1360.59 708.319 1358.45 694.637 1355.79 C 687.237 1354.28 678.991 1351.97 671.722 1350.92 L 670.875 1350.8 C 674.225 1350.47 673.957 1350.87 676.715 1349.36 C 672.574 1339.02 673.054 1333.39 674.734 1323.03 C 684.632 1325.7 690.67 1326.17 700.784 1326.48 C 692.905 1322.76 681.283 1319.94 672.67 1317.42 C 661.54 1314.27 650.561 1310.61 639.768 1306.45 C 643.928 1298.06 638.749 1296.89 636.275 1291.67 z"/><path transform="translate(0,0)" fill="rgb(240,146,45)" d="M 676.173 1059.5 L 681.212 1070.07 C 698.879 1099.42 715.392 1106.3 747.964 1113.27 C 747.173 1146.95 746.476 1178.34 744.083 1211.9 C 741.389 1233.3 735.598 1259.23 707.307 1255.17 C 698.427 1253.84 690.463 1248.98 685.233 1241.68 C 679.871 1234.35 678.532 1228.08 677.19 1219.48 L 677.387 1217.31 C 674.038 1192.25 675.223 1154.54 675.149 1128.69 C 675.091 1108.71 674.593 1078.65 676.173 1059.5 z"/><path transform="translate(0,0)" fill="rgb(195,110,35)" d="M 677.19 1219.48 C 678.84 1219.5 688.101 1217.38 691.156 1217.06 C 708.788 1215.21 726.366 1212.86 744.083 1211.9 C 741.389 1233.3 735.598 1259.23 707.307 1255.17 C 698.427 1253.84 690.463 1248.98 685.233 1241.68 C 679.871 1234.35 678.532 1228.08 677.19 1219.48 z"/><path transform="translate(0,0)" fill="rgb(247,172,99)" d="M 676.173 1059.5 L 681.212 1070.07 C 675.678 1078.73 677.361 1128.23 679.028 1140.54 L 679.164 1150.76 C 675.962 1166.91 682.77 1211.1 677.387 1217.31 C 674.038 1192.25 675.223 1154.54 675.149 1128.69 C 675.091 1108.71 674.593 1078.65 676.173 1059.5 z"/><path transform="translate(0,0)" fill="rgb(209,118,40)" d="M 679.028 1140.54 C 707.579 1108.76 707.303 1179.74 679.164 1150.76 L 679.028 1140.54 z"/><path transform="translate(0,0)" fill="rgb(195,110,35)" d="M 712.787 1173.37 C 715.739 1172.33 719.027 1173 721.333 1175.12 C 723.64 1177.23 724.588 1180.45 723.799 1183.48 C 723.009 1186.51 720.611 1188.86 717.565 1189.59 C 713.186 1190.63 708.759 1188.06 707.487 1183.74 C 706.216 1179.43 708.544 1174.87 712.787 1173.37 z"/><path transform="translate(0,0)" fill="rgb(240,146,45)" d="M 927.806 1013.96 C 929.475 1012.4 929.122 1012.13 929.817 1009.89 L 932.682 1009.51 L 933.205 1012.4 L 934.513 1011.22 C 938.591 1024.41 941.776 1036.19 947.991 1048.63 C 940.221 1053.55 934.562 1058.53 932.273 1068.09 C 930.489 1075.68 931.962 1083.67 936.334 1090.12 C 948.847 1108.88 968.079 1103.99 980.915 1088.44 C 987.322 1092.66 989.864 1094.14 996.834 1097.3 C 996.939 1131.75 998.841 1192.08 994.311 1223.82 C 990.258 1238.73 981.49 1250.97 965.423 1253.02 C 939.878 1256.27 934.51 1233.71 932.055 1214.62 C 930.106 1195.11 929.035 1175.51 928.844 1155.9 C 951.741 1139.73 950.399 1115.67 927.775 1100.13 C 928.451 1075.35 925.835 1036.72 927.806 1013.96 z"/><path transform="translate(0,0)" fill="rgb(195,110,35)" d="M 932.055 1214.62 C 946.572 1215.62 981.56 1219.1 994.311 1223.82 C 990.258 1238.73 981.49 1250.97 965.423 1253.02 C 939.878 1256.27 934.51 1233.71 932.055 1214.62 z"/><path transform="translate(0,0)" fill="rgb(195,110,35)" d="M 970.929 1124.69 C 985.085 1128.56 988.164 1141.17 973.866 1148.23 C 959.307 1147.51 958.436 1132.82 970.929 1124.69 z"/><path transform="translate(0,0)" fill="rgb(195,110,35)" d="M 945.163 1173.51 C 947.327 1172.27 949.99 1172.32 952.115 1173.61 C 954.24 1174.91 955.491 1177.27 955.379 1179.75 C 955.267 1182.24 953.811 1184.47 951.579 1185.58 C 948.264 1187.22 944.248 1185.92 942.512 1182.66 C 940.777 1179.39 941.951 1175.34 945.163 1173.51 z"/><path transform="translate(0,0)" fill="rgb(229,229,227)" d="M 408.088 975.418 C 412.783 980.983 417.66 985.832 422.758 991.018 C 431.433 998.98 439.755 1006.6 448.958 1013.99 C 448.966 1033.21 449.443 1093.68 456.654 1110.13 L 457.533 1109.89 C 458.776 1111.13 459.411 1111.99 460.392 1113.41 C 463.435 1112.45 462.014 1113.19 464.265 1110.28 C 465.737 1118.32 472.753 1132.21 471.936 1134.85 C 476.163 1135.47 482.901 1139.3 483.24 1143.93 L 482.22 1145.11 L 482.173 1147.06 C 489.176 1152.74 518.828 1165.26 528.328 1169.35 C 536.311 1172.07 544.259 1174.9 552.169 1177.83 C 551.617 1187.74 551.439 1197.97 551.142 1207.92 C 521.888 1196.26 490.696 1186.54 462.104 1173.38 C 441.669 1163.98 426.875 1149.36 419.415 1127.86 C 407.208 1092.03 408.018 1014.03 408.088 975.418 z"/><path transform="translate(0,0)" fill="rgb(207,208,210)" d="M 419.415 1127.86 C 423.758 1131.3 429.872 1137.29 433.821 1140 C 447.449 1153.35 512.104 1177.98 528.328 1169.35 C 536.311 1172.07 544.259 1174.9 552.169 1177.83 C 551.617 1187.74 551.439 1197.97 551.142 1207.92 C 521.888 1196.26 490.696 1186.54 462.104 1173.38 C 441.669 1163.98 426.875 1149.36 419.415 1127.86 z"/><path transform="translate(0,0)" fill="rgb(254,254,253)" d="M 408.088 975.418 C 412.783 980.983 417.66 985.832 422.758 991.018 C 421.578 997.867 422.129 1004.73 422.375 1011.65 C 423.525 1043.94 423.639 1076.08 427.217 1108.23 C 427.979 1115.08 434.3 1135.71 433.821 1140 C 429.872 1137.29 423.758 1131.3 419.415 1127.86 C 407.208 1092.03 408.018 1014.03 408.088 975.418 z"/><path transform="translate(0,0)" fill="rgb(8,12,22)" d="M 456.654 1110.13 L 457.533 1109.89 C 458.776 1111.13 459.411 1111.99 460.392 1113.41 C 463.435 1112.45 462.014 1113.19 464.265 1110.28 C 465.737 1118.32 472.753 1132.21 471.936 1134.85 C 463.257 1130.58 458.845 1119.03 456.654 1110.13 z"/><path transform="translate(0,0)" fill="rgb(195,110,35)" d="M 591.754 971.29 C 604.293 972.047 617.633 972.103 630.405 972.745 C 631.708 1030.12 628.48 1090.37 628.423 1147.9 C 628.404 1166.97 627.539 1199.76 620.179 1216.84 C 606.101 1237.37 593.253 1213.69 592.02 1199.58 C 590.579 1179.07 591.692 1158.2 591.681 1137.57 C 591.655 1082.34 590.652 1026.49 591.754 971.29 z"/><path transform="translate(0,0)" fill="url(#Gradient2)" d="M 411.903 923.885 C 416.361 897.645 424.147 875.816 449.068 862.659 C 467.656 852.846 486.999 853.878 507.331 853.561 L 551.732 852.914 C 551.596 858.721 551.856 877.191 550.455 881.495 L 548.227 882.039 L 547.233 882.184 C 528.512 884.736 467.676 880.715 460.66 902.883 L 461.563 904.16 C 463.359 902.654 472.727 894.274 473.734 894.115 C 488.566 891.778 531.396 891.809 545.437 893.066 C 547.054 893.222 548.661 893.466 550.252 893.794 C 551.615 896.1 551.313 897.673 550.93 900.212 C 550.635 902.164 548.086 904.299 546.278 904.653 C 535.265 906.81 485.558 901.233 480.465 911.768 C 473.092 927.017 473.193 967.893 471.757 986.736 C 467.157 982.694 461.925 977.852 457.083 974.286 C 456.199 959.065 456.837 944.63 456.087 930.106 C 452.837 942.703 452.586 955.817 450.639 968.885 C 441.682 959.88 433.13 951.16 425.268 941.114 L 411.903 923.885 z"/><path transform="translate(0,0)" fill="rgb(254,254,253)" d="M 411.903 923.885 C 416.361 897.645 424.147 875.816 449.068 862.659 C 467.656 852.846 486.999 853.878 507.331 853.561 L 551.732 852.914 C 551.596 858.721 551.856 877.191 550.455 881.495 L 548.227 882.039 C 546.55 881.899 539.579 881.125 538.343 881.479 C 544.317 882.529 550.915 879.915 549.502 872.884 C 538.095 868.673 470.452 871.293 457.11 879.007 C 442.02 887.731 439.337 889.777 432.897 905.404 C 428.388 916.348 428.917 935.716 425.268 941.114 L 411.903 923.885 z"/><path transform="translate(0,0)" fill="rgb(253,203,130)" d="M 639.077 971.325 C 642.453 972.791 645.957 974.561 649.287 976.167 C 651.214 977.502 654.412 979.723 655.232 981.945 C 660.908 997.321 663.261 1018.6 666.878 1034.89 C 669.975 1048.83 668.001 1077.05 668.306 1091.97 C 669.128 1132.14 666.337 1180.63 670.416 1220.26 C 664.251 1221.08 654.704 1222.06 648.877 1223.3 L 648.827 1224.44 C 639.458 1224.93 623.144 1230.77 617.031 1230.78 C 618.419 1229.82 619.732 1228.75 620.96 1227.59 C 637.588 1211.89 635.371 1158.13 636.518 1135 C 639.211 1080.72 637.226 1025.64 639.077 971.325 z"/><path transform="translate(0,0)" fill="rgb(240,146,45)" d="M 639.077 971.325 C 642.453 972.791 645.957 974.561 649.287 976.167 L 649.115 1134.53 C 648.953 1160.52 647.725 1198.07 648.877 1223.3 L 648.827 1224.44 C 639.458 1224.93 623.144 1230.77 617.031 1230.78 C 618.419 1229.82 619.732 1228.75 620.96 1227.59 C 637.588 1211.89 635.371 1158.13 636.518 1135 C 639.211 1080.72 637.226 1025.64 639.077 971.325 z"/><path transform="translate(0,0)" fill="rgb(254,254,253)" d="M 1065.16 1105.12 C 1069.98 1104.48 1076.58 1103.82 1081.21 1102.87 L 1081.13 1201.21 C 1081.14 1208.12 1082.02 1246.58 1080.09 1251.48 C 1064.61 1290.79 1003.98 1307.01 967.35 1319.46 C 963.285 1320.84 949.228 1323.63 948.549 1325.61 C 955.547 1325.64 994.101 1318.93 1001.19 1316.64 C 1002.85 1346.32 966.82 1343.38 963.681 1352.21 L 964.041 1353.22 C 955.914 1355.45 945.178 1357.42 936.699 1358.48 L 935.536 1357.57 C 953.238 1330.38 938.719 1332.34 929.407 1311.85 C 966.141 1306.01 1030.41 1292.24 1052.88 1261.35 C 1058.51 1253.47 1062.28 1244.4 1063.9 1234.84 C 1066.1 1222.63 1065.35 1199.13 1065.3 1185.68 L 1065.16 1105.12 z"/><path transform="translate(0,0)" fill="rgb(240,146,45)" d="M 807.497 863.354 C 816.52 853.702 825.021 851.178 838.014 850.526 C 863.363 849.255 872.309 862.514 877.656 884.994 C 879.958 901.575 880.196 923.134 880.557 940.075 C 872.502 936.728 862.393 932.262 853.995 930.587 L 842.779 927.708 C 830.687 925.347 804.634 923.358 797.104 921.296 C 797.887 912.676 798.368 903.483 798.976 894.802 L 799.85 886.174 C 801.645 876.764 803.648 871.983 807.497 863.354 z"/><path transform="translate(0,0)" fill="rgb(254,254,253)" d="M 807.497 863.354 C 816.52 853.702 825.021 851.178 838.014 850.526 C 863.363 849.255 872.309 862.514 877.656 884.994 C 851.454 885.386 826.162 886.108 799.85 886.174 C 801.645 876.764 803.648 871.983 807.497 863.354 z"/><path transform="translate(0,0)" fill="rgb(247,172,99)" d="M 842.779 927.708 C 842.945 923.107 842.205 924.286 844.726 921.608 C 850.561 919.592 854.244 920.326 857.182 926.032 C 856.3 929.427 857.073 927.816 853.995 930.587 L 842.779 927.708 z"/><path transform="translate(0,0)" fill="rgb(207,208,210)" d="M 563.319 970.769 L 580.018 970.896 L 580.016 1118.57 C 579.973 1144.72 576.654 1228.25 584.324 1249.84 C 592.35 1272.43 616.673 1281.9 636.275 1291.67 C 638.749 1296.89 643.928 1298.06 639.768 1306.45 C 615.415 1297.04 573.154 1279.09 564.639 1252.18 C 561.721 1242.96 563.223 1201.02 563.271 1188.82 C 563.498 1149.75 563.454 1110.68 563.139 1071.61 C 569.518 1069.21 573.357 1066.93 576.067 1060.3 C 577.919 1055.87 577.842 1050.88 575.856 1046.52 C 572.897 1039.84 569.569 1038.37 563.15 1036.03 L 563.319 970.769 z"/><path transform="translate(0,0)" fill="rgb(240,146,45)" d="M 679.708 880.815 C 681.837 869.991 685.341 853.331 695.833 848.513 C 727.938 833.769 742.252 859.723 745.631 884.789 C 747.006 896.624 747.09 908.693 747.407 920.616 C 722.666 920.8 701.619 922.462 677.008 925.248 C 677.184 910.858 677.734 894.978 679.708 880.815 z"/><path transform="translate(0,0)" fill="rgb(254,254,253)" d="M 679.708 880.815 C 681.837 869.991 685.341 853.331 695.833 848.513 C 727.938 833.769 742.252 859.723 745.631 884.789 C 723.814 884.097 700.497 881.054 679.708 880.815 z"/><path transform="translate(0,0)" fill="rgb(195,110,35)" d="M 648.877 1223.3 C 654.704 1222.06 664.251 1221.08 670.416 1220.26 C 672.265 1233.93 673.666 1237.7 681.383 1249.37 C 680.054 1264.95 679.921 1277.73 683.195 1293.16 C 670.032 1289.67 656.959 1285.84 643.987 1281.7 C 621.703 1273.66 602.602 1264.62 593.322 1241.49 C 592.179 1235 591.735 1228.06 591.157 1221.48 C 592.58 1223.06 594.069 1224.58 595.622 1226.04 C 601.874 1231.89 605.902 1232.22 614.098 1231.86 C 614.887 1231.33 616.046 1231.09 617.031 1230.78 C 623.144 1230.77 639.458 1224.93 648.827 1224.44 L 648.877 1223.3 z"/><path transform="translate(0,0)" fill="rgb(225,185,152)" d="M 648.877 1223.3 C 654.704 1222.06 664.251 1221.08 670.416 1220.26 C 672.265 1233.93 673.666 1237.7 681.383 1249.37 C 680.054 1264.95 679.921 1277.73 683.195 1293.16 C 670.032 1289.67 656.959 1285.84 643.987 1281.7 C 647.382 1264.87 647.919 1242.1 648.827 1224.44 L 648.877 1223.3 z"/><path transform="translate(0,0)" fill="rgb(240,146,45)" d="M 593.322 1241.49 C 592.179 1235 591.735 1228.06 591.157 1221.48 C 592.58 1223.06 594.069 1224.58 595.622 1226.04 C 601.874 1231.89 605.902 1232.22 614.098 1231.86 L 614.146 1233.26 C 606.442 1235.1 600.781 1239.38 593.322 1241.49 z"/><path transform="translate(0,0)" fill="rgb(240,146,45)" d="M 1004.71 1100.46 C 1012.79 1102.96 1020.43 1104.86 1028.93 1105.36 C 1029 1126.59 1027.87 1206.76 1040.35 1218.52 C 1044.3 1222.24 1053.31 1221.58 1053.31 1227.8 C 1053.3 1231.96 1051.52 1237.13 1050.41 1241.18 C 1036.93 1231.56 1017.74 1227.54 1001.77 1224.55 C 1006.98 1195.23 1004.22 1132.84 1004.71 1100.46 z"/><path transform="translate(0,0)" fill="rgb(207,208,210)" d="M 558.316 1264.93 C 578.881 1295.17 610.724 1307.17 645.203 1316.52 C 655.323 1319.14 664.521 1321 674.734 1323.03 C 673.054 1333.39 672.574 1339.02 676.715 1349.36 C 673.957 1350.87 674.225 1350.47 670.875 1350.8 L 666.872 1349.32 C 645.422 1345.83 613.254 1334.6 593.399 1325.92 C 584.42 1322 575.922 1316.57 567.061 1312.6 L 566.17 1312.2 C 553.297 1300.72 555.015 1280.17 558.316 1264.93 z"/><path transform="translate(0,0)" fill="rgb(254,254,253)" d="M 645.203 1316.52 C 655.323 1319.14 664.521 1321 674.734 1323.03 C 673.054 1333.39 672.574 1339.02 676.715 1349.36 C 673.957 1350.87 674.225 1350.47 670.875 1350.8 L 666.872 1349.32 C 659.556 1343.12 614.738 1326.56 645.203 1316.52 z"/><path transform="translate(0,0)" fill="rgb(240,146,45)" d="M 909.273 980.194 C 913.581 979.911 916.145 979.343 919.548 981.693 C 920.707 990.616 920.013 1010.87 919.999 1020.99 L 919.971 1097.45 C 910.946 1095.64 907.983 1095.84 899.296 1097.56 C 896.11 1098.81 892.686 1100.36 889.509 1101.72 C 889.521 1076.45 888.979 1050.27 889.314 1025.15 C 889.391 1019.41 893.809 995.457 894.93 988.76 C 899.6 983.867 903.011 982.483 909.273 980.194 z"/><path transform="translate(0,0)" fill="rgb(209,118,40)" d="M 602.37 841.317 C 616.139 837.38 622.115 847.668 625.437 859.604 C 626.849 864.516 627.829 869.543 628.364 874.626 C 629.269 893.908 629.964 915.727 630.125 935.081 L 605.668 937.459 C 603.998 938.084 594.095 939.075 591.682 939.36 C 591.22 915.905 591.938 891.385 590.991 868.125 C 590.521 858.69 595.578 847.772 602.37 841.317 z"/><path transform="translate(0,0)" fill="rgb(254,254,253)" d="M 602.37 841.317 C 616.139 837.38 622.115 847.668 625.437 859.604 C 626.849 864.516 627.829 869.543 628.364 874.626 C 620.244 873.638 612.644 872.266 604.612 870.83 L 603.997 870.476 L 590.991 868.125 C 590.521 858.69 595.578 847.772 602.37 841.317 z"/><path transform="translate(0,0)" fill="rgb(229,229,227)" d="M 590.991 868.125 C 590.521 858.69 595.578 847.772 602.37 841.317 C 604.911 849.217 604.17 862.022 603.997 870.476 L 590.991 868.125 z"/><path transform="translate(0,0)" fill="rgb(195,110,35)" d="M 590.991 868.125 L 603.997 870.476 L 604.612 870.83 C 603.719 879.026 601.185 931.521 604.55 936.923 L 605.668 937.459 C 603.998 938.084 594.095 939.075 591.682 939.36 C 591.22 915.905 591.938 891.385 590.991 868.125 z"/><path transform="translate(0,0)" fill="rgb(240,146,45)" d="M 755.548 1113.93 C 766.415 1114.88 777.331 1115.13 788.23 1114.7 C 788.575 1145.05 788.367 1177.16 790.403 1207.27 L 789.593 1209.32 C 785.791 1210.71 758.634 1211.69 753.264 1211.49 C 752.928 1209.18 752.865 1207.66 752.766 1205.32 C 753.997 1175.23 754.066 1143.37 755.548 1113.93 z"/><path transform="translate(0,0)" fill="rgb(254,254,253)" d="M 726.009 941.407 C 728.343 940.897 729.638 941.042 732.026 941.069 C 736.188 945.024 758.395 976.066 762.693 981.922 L 836.047 1082.48 L 823.486 1088.8 C 821.574 1088.43 727.115 957.649 714.5 942.521 L 726.009 941.407 z"/><path transform="translate(0,0)" fill="rgb(207,208,210)" d="M 563.002 788.838 C 568.527 788.953 574.414 789.621 579.947 790.121 L 580.133 885.598 C 580.127 902.313 580.706 924.306 579.707 940.684 L 563.032 943.427 C 563.663 892.219 563.095 840.099 563.002 788.838 z"/><path transform="translate(0,0)" fill="rgb(207,208,210)" d="M 1076.76 1277.87 C 1080.18 1273.62 1083.29 1269.85 1086.34 1265.31 C 1088.23 1278.16 1089.24 1282.96 1086.78 1295.91 C 1082.08 1299.94 1072.84 1308.88 1068.48 1311.61 C 1053.93 1328.91 986.923 1347.82 964.041 1353.22 L 963.681 1352.21 C 966.82 1343.38 1002.85 1346.32 1001.19 1316.64 C 1030.34 1307.57 1054.46 1299.41 1076.76 1277.87 z"/><path transform="translate(0,0)" fill="rgb(254,254,253)" d="M 1076.76 1277.87 C 1080.18 1273.62 1083.29 1269.85 1086.34 1265.31 C 1088.23 1278.16 1089.24 1282.96 1086.78 1295.91 C 1082.08 1299.94 1072.84 1308.88 1068.48 1311.61 C 1069.09 1309.54 1071.52 1305.45 1072.58 1303.41 C 1078.08 1292.79 1077.58 1289.14 1076.76 1277.87 z"/><path transform="translate(0,0)" fill="rgb(207,208,210)" d="M 464.265 1110.28 C 460.815 1091.6 456.539 1039.25 457.205 1020.1 C 461.913 1023.81 466.281 1027.53 471.568 1030.35 C 472.217 1049.47 471.782 1114.03 486.404 1127.53 C 497.257 1137.55 535.784 1149.06 551.86 1153.97 L 551.618 1166.31 C 530.086 1159.99 502.888 1152.74 482.22 1145.11 L 483.24 1143.93 C 482.901 1139.3 476.163 1135.47 471.936 1134.85 C 472.753 1132.21 465.737 1118.32 464.265 1110.28 z"/><path transform="translate(0,0)" fill="rgb(254,254,253)" d="M 1004.8 935.279 C 1005.97 935.096 1006.55 935.294 1007.78 935.44 C 1013.85 941.233 1031.36 966.63 1037.55 974.882 C 1061.78 1007.19 1084.97 1040.97 1109.25 1073.21 L 1097.03 1080.12 C 1092.07 1076.79 1003.61 952.547 992.666 937.6 L 1004.8 935.279 z"/><path transform="translate(0,0)" fill="rgb(254,254,253)" d="M 755.748 939.926 L 774.05 939.531 C 801.854 978.438 829.859 1017.2 858.066 1055.82 L 853.304 1064.68 C 851.818 1067.01 851.929 1067.36 849.573 1068.64 C 843.492 1062.23 821.971 1030.88 815.842 1022.31 C 795.993 994.715 775.961 967.254 755.748 939.926 z"/><path transform="translate(0,0)" fill="rgb(254,254,253)" d="M 1043.47 931.461 L 1045.91 931.181 C 1051.7 934.514 1121.93 1034.51 1131.03 1045.97 C 1128.86 1050.01 1125.83 1056.54 1122 1058.53 C 1091.42 1017.64 1060.6 974.022 1030.73 932.485 L 1043.47 931.461 z"/><path transform="translate(0,0)" fill="rgb(240,146,45)" d="M 885.518 885.232 C 896.307 884.371 907.105 883.621 917.91 882.981 C 918.321 890.104 921.364 897.158 921.541 902.957 C 921.921 915.433 920.321 928.354 920.454 940.986 C 909.941 942.078 899.359 942.367 888.801 941.852 C 887.939 921.946 887.431 905.152 885.518 885.232 z"/><path transform="translate(0,0)" fill="rgb(253,203,130)" d="M 635.878 875.881 C 639.853 876.054 645.594 876.127 649.4 876.633 C 658.097 877.725 663.934 878.809 672.434 880.464 C 671.034 895.555 669.856 911.207 669.986 926.371 C 663.484 927.283 655.88 928.178 649.589 929.632 L 637.967 933.306 C 637.999 914.145 637.302 894.989 635.878 875.881 z"/><path transform="translate(0,0)" fill="rgb(240,146,45)" d="M 635.878 875.881 C 639.853 876.054 645.594 876.127 649.4 876.633 C 649.642 894.299 649.705 911.966 649.589 929.632 L 637.967 933.306 C 637.999 914.145 637.302 894.989 635.878 875.881 z"/><path transform="translate(0,0)" fill="rgb(254,254,253)" d="M 999.694 875.903 C 997.958 864.841 995.996 862.581 992.476 852.478 C 990.736 847.482 988.602 835.616 992.057 831.114 C 996.715 825.043 1008.56 829.241 1015.44 828.816 C 1020.63 828.495 1023.8 827.647 1028.66 826.47 C 1034.2 840.951 1029.86 854.738 1028.53 871.219 C 1020.64 872.159 1007.64 873.975 999.694 875.903 z"/><path transform="translate(0,0)" fill="rgb(240,146,45)" d="M 1039.5 1186.32 C 1038.61 1175.4 1035.31 1117.19 1036.85 1107.11 L 1039.03 1106.1 L 1053.95 1105.92 L 1053.9 1169.8 C 1053.91 1180.13 1056.26 1205.3 1049.68 1212.89 C 1041.39 1214.54 1040.15 1193.7 1039.63 1187.89 L 1039.5 1186.32 z"/><path transform="translate(0,0)" fill="rgb(240,146,45)" d="M 1028.53 871.219 C 1027.39 883.918 1027.51 899.062 1027.59 911.905 C 1019.37 912.829 1011.08 913.569 1003.03 915.443 C 1002.7 903.538 1001.73 887.618 999.694 875.903 C 1007.64 873.975 1020.64 872.159 1028.53 871.219 z"/><path transform="translate(0,0)" fill="rgb(240,146,45)" d="M 991.793 877.968 C 994.494 884.834 995.041 909.078 995.263 917.314 C 982.606 919.696 970.695 922.76 958.588 927.247 C 953.266 929.219 932.472 940.457 928.629 938.84 L 928.302 935.248 L 928.902 911.638 C 940.968 922.775 956.376 927.511 971.113 917.788 C 985.524 908.281 988.303 893.56 991.793 877.968 z"/><path transform="translate(0,0)" fill="rgb(254,254,253)" d="M 952.773 1058.72 C 955.72 1061.44 962.277 1071.79 967.001 1076.74 L 971.435 1081.41 C 970.611 1086.51 967.001 1088.31 962.97 1090.92 C 941.974 1092.08 935.484 1071.77 952.773 1058.72 z"/><path transform="translate(0,0)" fill="rgb(254,254,253)" d="M 659.785 946.285 C 665.195 945.543 672.775 944.8 675.861 950.321 C 674.188 953.715 674.602 952.706 670.917 955.062 C 665.965 955.483 656.754 956.55 654.377 951.203 C 656.015 947.911 656.145 948.623 659.785 946.285 z"/><path transform="translate(0,0)" fill="rgb(254,254,253)" d="M 1148.72 929.169 C 1154.1 928.81 1160.61 928.145 1164.03 932.874 C 1162.93 936.323 1163.01 935.394 1159.57 938.094 C 1154.4 938.504 1147.04 939.035 1144.1 934.084 C 1145.25 930.862 1145.34 931.624 1148.72 929.169 z"/><path transform="translate(0,0)" fill="rgb(247,172,99)" d="M 927.806 1013.96 C 927.297 1004.29 927.646 992.003 928.335 982.458 C 931.096 991.375 933.041 1002.01 934.513 1011.22 L 933.205 1012.4 L 932.682 1009.51 L 929.817 1009.89 C 929.122 1012.13 929.475 1012.4 927.806 1013.96 z"/><path transform="translate(0,0)" fill="rgb(19,21,36)" d="M 1593.25 874.193 C 1589.51 868.077 1585.76 855.677 1594.85 854.495 C 1610.36 852.478 1621.22 870.457 1598.37 875.414 C 1593.75 889.21 1586.99 904.335 1581.44 918.055 L 1532.04 1037.14 C 1525.55 1052.92 1516.96 1072.08 1511.44 1087.8 C 1530.71 1092.72 1543.92 1098.3 1557.75 1113.36 C 1587.34 1111.44 1617.22 1116.58 1646.73 1120.02 C 1661.06 1121.69 1689.75 1123.19 1699.85 1132.9 C 1711.14 1143.74 1708.44 1171.72 1708.43 1187.28 L 1708.36 1259.1 L 1708.34 1399.82 C 1708.36 1421.99 1708.4 1444.16 1708.56 1466.35 C 1708.66 1480.24 1702.06 1496.28 1686.66 1498.68 C 1661.26 1502.65 1635.74 1506.16 1610.29 1510.02 L 1419.58 1537.6 C 1395.37 1540.99 1371.21 1545.12 1346.88 1548.54 C 1341.86 1549.25 1314.01 1553.6 1309.9 1552.67 C 1275.06 1544.78 1236.44 1531.11 1201.86 1520.29 C 1198.1 1519.12 1192.3 1515.71 1190.1 1512.82 C 1186.87 1508.59 1183.68 1502.85 1183.37 1497.51 C 1182.13 1476.38 1182.53 1454.21 1182.54 1433.07 L 1182.63 1310.8 L 1182.55 1213.58 C 1182.54 1197.89 1181.73 1180.69 1183.2 1165.25 C 1184.87 1147.82 1198.08 1139.48 1214.13 1137.86 C 1228.44 1136.42 1242.38 1135.51 1256.59 1134.5 L 1324.13 1129.63 C 1353.12 1127.7 1395.56 1123.37 1423.61 1122.83 C 1434.44 1105.38 1450.19 1095.93 1469.58 1090.07 C 1442.37 1043.68 1416.91 996.31 1390.1 949.721 C 1378.95 930.161 1367.96 910.506 1357.14 890.759 C 1344.42 890.539 1336.1 880.328 1348.3 872.174 C 1360.12 864.279 1367.63 872.36 1362.14 887.086 C 1369.87 897.818 1394.06 935.929 1399.39 947.076 L 1400.08 948.022 C 1407.36 958.206 1415.8 972.905 1422.47 983.994 L 1463.59 1053.38 C 1469.79 1063.8 1475.87 1074.3 1482.1 1084.69 C 1484.46 1088.62 1490.86 1088.24 1494.49 1086.72 C 1501.11 1076.97 1517.02 1039.85 1522.56 1027.65 L 1565.83 932.693 C 1574.27 914.216 1583.89 891.99 1593.25 874.193 z"/><path transform="translate(0,0)" fill="rgb(8,12,22)" d="M 1357.14 890.759 C 1344.42 890.539 1336.1 880.328 1348.3 872.174 C 1360.12 864.279 1367.63 872.36 1362.14 887.086 C 1369.87 897.818 1394.06 935.929 1399.39 947.076 L 1397.63 946.938 C 1393.52 940.359 1363.67 891.101 1360.94 889.393 C 1359.44 895.668 1387.36 942.368 1393.36 949.779 C 1392.12 949.807 1391.32 949.903 1390.1 949.721 C 1378.95 930.161 1367.96 910.506 1357.14 890.759 z"/><path transform="translate(0,0)" fill="rgb(76,95,116)" d="M 1678.89 1139.42 C 1701.74 1137.04 1697.11 1153.79 1697.78 1170.57 C 1698.02 1176.58 1697.61 1182.98 1697.61 1189.05 C 1697.87 1216.16 1697.95 1243.28 1697.83 1270.39 C 1697.73 1335.79 1697.53 1401.54 1697.7 1466.95 C 1697.71 1470.97 1695.13 1483.09 1691.08 1484.59 C 1671.32 1491.88 1646.25 1493.75 1625.24 1496.83 C 1591.88 1502.05 1558.46 1506.89 1524.99 1511.38 L 1317.53 1541.9 C 1305.37 1543.11 1298.02 1537.88 1297.05 1524.75 C 1295.98 1510.21 1296.97 1494.18 1297.22 1479.49 C 1297.54 1456.44 1297.6 1433.39 1297.4 1410.34 L 1297.16 1262.58 C 1297.17 1239.35 1297.18 1216.12 1297.4 1192.9 C 1297.5 1181.73 1300.6 1171.17 1313.3 1169.36 C 1325.96 1167.56 1339.11 1166.83 1351.89 1165.79 L 1432.22 1159.5 L 1678.89 1139.42 z"/><path transform="translate(0,0)" fill="rgb(8,12,22)" d="M 1656.42 1156.41 C 1670.61 1155.42 1674.9 1154.4 1682.62 1167.59 C 1683.52 1181.07 1683.08 1201.02 1683.06 1214.83 L 1683.13 1291.46 L 1683.34 1399.64 C 1683.35 1419.38 1683.92 1442.65 1682.85 1462.11 C 1679.93 1467.06 1679.08 1468.07 1675.11 1472.25 C 1663.87 1475.4 1646.51 1477.49 1634.44 1479.17 C 1607.67 1482.75 1580.87 1486.1 1554.04 1489.22 L 1342.24 1516.65 C 1335.28 1517.59 1328.1 1519.28 1322.26 1514.65 C 1317.06 1510.84 1316.03 1505.28 1315.78 1499.15 C 1315.04 1480.93 1315.11 1462.44 1315.12 1444.19 L 1315.36 1344.35 L 1314.65 1252.96 C 1314.56 1236.81 1314.25 1220.05 1315.16 1203.94 C 1315.53 1198.38 1316.33 1193.66 1320.3 1189.5 C 1329.67 1179.7 1353.55 1181.08 1366.97 1179.88 C 1393.49 1177.43 1420.02 1175.19 1446.57 1173.16 C 1515.98 1167.63 1587.25 1161.07 1656.42 1156.41 z"/><path transform="translate(0,0)" fill="rgb(254,254,253)" d="M 1323.01 1378.28 C 1322.34 1349.42 1322.25 1227.95 1345.03 1211.09 C 1387.13 1179.95 1608.17 1158.25 1654.21 1185.15 C 1674.79 1197.17 1675.65 1310.11 1675.04 1341.82 C 1666.38 1342.7 1606.92 1349.67 1603.02 1348.42 L 1602.5 1346.24 C 1608.2 1332.85 1599.35 1301.65 1594.77 1287.49 C 1598.81 1288.56 1602.64 1289.74 1606.64 1290.96 C 1611.29 1301.24 1609.33 1310.73 1616.46 1317.24 C 1620.09 1318.29 1618.34 1318.33 1621.91 1317.09 C 1631.79 1307.5 1624.12 1282.81 1613.25 1276.4 C 1602.28 1269.92 1589.37 1266.75 1576.71 1266.79 L 1574.01 1267.08 C 1552.56 1278.36 1561.91 1277.41 1548.24 1292.64 C 1540.27 1289.68 1530.34 1284.64 1522.33 1288.22 C 1518.89 1292.97 1523.59 1298.78 1527.82 1300.97 C 1544.86 1309.77 1551.78 1316.75 1564.02 1299 L 1570.17 1320.49 L 1568.88 1321.53 C 1557.47 1330.77 1551.35 1339.07 1551.29 1354.14 C 1548.93 1356.04 1550.26 1355.32 1546.9 1355.62 C 1541.76 1350.7 1543.98 1331.31 1543.03 1322.89 C 1529.66 1322.54 1473.85 1327.31 1460.13 1329.64 C 1459.89 1341.33 1459.98 1353.02 1460.4 1364.71 C 1454.96 1365.34 1449.32 1366.08 1443.9 1366.61 C 1443.06 1352.05 1436.32 1341.7 1424.87 1332.91 C 1426.71 1325.83 1428.69 1317.32 1430.96 1310.5 C 1434.61 1314.2 1438.66 1318.58 1442.66 1321.8 C 1451.71 1319.41 1475.51 1314.19 1475.83 1302.58 C 1469.69 1295.33 1455.22 1301.83 1447.83 1304.52 L 1447.29 1303.82 C 1439.32 1293.41 1438.98 1287.82 1427.12 1281.15 C 1425.06 1280.94 1423.05 1280.39 1421.17 1279.54 C 1420.46 1279.73 1413.97 1279.7 1412.11 1279.97 C 1402.66 1281.37 1385.54 1283.2 1377.72 1288.31 C 1372.23 1291.9 1368.31 1310.07 1367.77 1316.62 C 1367.41 1320.9 1367.9 1324.9 1370.86 1328.33 C 1380.01 1330.53 1385.82 1308.33 1388.16 1301.47 C 1392.03 1300.64 1396.21 1299.92 1400.13 1299.18 C 1395.17 1315.51 1384.45 1346.29 1387.8 1361.92 C 1363.55 1378.36 1352.05 1375.87 1323.01 1378.28 z"/><path transform="translate(0,0)" fill="rgb(8,12,22)" d="M 1421.17 1279.54 C 1411.95 1275.38 1407.48 1264.83 1410.89 1255.31 C 1414.31 1245.79 1424.46 1240.49 1434.23 1243.14 C 1443.99 1245.78 1450.08 1255.48 1448.22 1265.42 C 1446.36 1275.37 1437.18 1282.21 1427.12 1281.15 C 1425.06 1280.94 1423.05 1280.39 1421.17 1279.54 z"/><path transform="translate(0,0)" fill="rgb(241,230,198)" d="M 1426.09 1248.55 C 1433.18 1246.83 1440.35 1251.03 1442.33 1258.04 C 1444.3 1265.06 1440.38 1272.38 1433.44 1274.62 C 1428.71 1276.14 1423.54 1274.96 1419.94 1271.54 C 1416.35 1268.12 1414.91 1263.01 1416.19 1258.22 C 1417.47 1253.42 1421.27 1249.71 1426.09 1248.55 z"/><path transform="translate(0,0)" fill="rgb(8,12,22)" d="M 1574.01 1267.08 C 1538.46 1273.39 1546.51 1228.36 1567.65 1228.2 C 1584.45 1228.07 1596.56 1253.63 1576.71 1266.79 L 1574.01 1267.08 z"/><path transform="translate(0,0)" fill="rgb(253,203,130)" d="M 1563.13 1235.82 C 1569.87 1233.25 1577.44 1236.53 1580.17 1243.21 C 1582.9 1249.89 1579.79 1257.53 1573.18 1260.41 C 1568.76 1262.34 1563.64 1261.72 1559.81 1258.8 C 1555.98 1255.87 1554.03 1251.1 1554.72 1246.33 C 1555.41 1241.56 1558.63 1237.54 1563.13 1235.82 z"/><path transform="translate(0,0)" fill="rgb(155,190,98)" d="M 1605.03 1356.29 C 1627.24 1353.21 1652.34 1350.7 1674.62 1348.7 C 1674.48 1352.22 1674.55 1355.36 1674.62 1358.89 L 1673.42 1362.79 C 1671.88 1387.8 1667.41 1421.3 1658.03 1444.23 C 1656.3 1446.51 1655.1 1448.48 1652.7 1450.01 C 1615.99 1482.88 1401.05 1507.25 1354.68 1488.12 C 1351.63 1486.81 1349.49 1485.3 1346.72 1483.53 C 1330.73 1472.44 1327.3 1417.3 1323.93 1398.37 L 1323.38 1385.11 C 1328.83 1384.5 1352.81 1380.99 1358.82 1382.7 C 1360.05 1383.05 1359.04 1386.25 1365.06 1389.38 C 1394.96 1381.71 1392.32 1376.47 1426.9 1374.91 C 1426.95 1379.3 1426.89 1381.19 1426.28 1385.52 L 1427.05 1399.8 C 1430.65 1401.95 1430.43 1401.87 1434.65 1401.89 C 1440.21 1398.51 1438.05 1393.41 1441.11 1387.04 L 1440.93 1381.91 C 1441.44 1379.47 1441.96 1377.04 1442.5 1374.61 C 1446.55 1371.52 1541 1363.92 1553.38 1362.3 L 1555.74 1370.41 L 1556.37 1375.72 C 1557.43 1379.12 1558.43 1382.53 1559.38 1385.95 C 1562.12 1386.13 1566.93 1385.19 1569.85 1384.72 L 1569.85 1382.24 C 1568.43 1375.02 1569.08 1368.54 1569.4 1361.19 C 1574.43 1360.21 1580.23 1359.38 1585.35 1358.55 L 1593.05 1367.99 L 1595.69 1370.87 L 1597.24 1372.1 C 1603.11 1376.84 1608.11 1385.26 1614.98 1385.41 C 1618.75 1384.11 1618.54 1384.18 1620.99 1380.98 C 1619.28 1376.09 1618.47 1374.9 1615.77 1370.36 L 1611.21 1365.29 C 1609.36 1363.09 1606.72 1358.82 1605.03 1356.29 z"/><path transform="translate(0,0)" fill="rgb(155,190,98)" d="M 1365.06 1389.38 C 1394.96 1381.71 1392.32 1376.47 1426.9 1374.91 C 1426.95 1379.3 1426.89 1381.19 1426.28 1385.52 L 1427.05 1399.8 C 1430.65 1401.95 1430.43 1401.87 1434.65 1401.89 C 1440.21 1398.51 1438.05 1393.41 1441.11 1387.04 C 1444.22 1389.11 1447.87 1391.68 1451.01 1393.59 L 1452.1 1393.84 C 1457.68 1398.68 1462.98 1396.12 1470.27 1396.55 C 1468.25 1401.38 1465.99 1404.43 1468.5 1409.52 C 1470.26 1426.24 1476.92 1432.25 1493.11 1434.85 C 1470.4 1444.41 1454.11 1449.22 1440.45 1470.85 C 1427.33 1472.94 1352.63 1479.94 1346.72 1483.53 C 1330.73 1472.44 1327.3 1417.3 1323.93 1398.37 L 1323.38 1385.11 C 1328.83 1384.5 1352.81 1380.99 1358.82 1382.7 C 1360.05 1383.05 1359.04 1386.25 1365.06 1389.38 z"/><path transform="translate(0,0)" fill="rgb(254,254,253)" d="M 1365.06 1389.38 C 1394.96 1381.71 1392.32 1376.47 1426.9 1374.91 C 1426.95 1379.3 1426.89 1381.19 1426.28 1385.52 L 1427.05 1399.8 C 1430.65 1401.95 1430.43 1401.87 1434.65 1401.89 C 1440.21 1398.51 1438.05 1393.41 1441.11 1387.04 C 1444.22 1389.11 1447.87 1391.68 1451.01 1393.59 L 1452.1 1393.84 C 1457.68 1398.68 1462.98 1396.12 1470.27 1396.55 C 1468.25 1401.38 1465.99 1404.43 1468.5 1409.52 L 1467.96 1412.13 C 1464.32 1414.98 1398.82 1421.26 1388.86 1422.5 C 1384.29 1413.31 1380.94 1403.33 1377.43 1393.66 C 1368.18 1394.92 1331.49 1399.76 1323.93 1398.37 L 1323.38 1385.11 C 1328.83 1384.5 1352.81 1380.99 1358.82 1382.7 C 1360.05 1383.05 1359.04 1386.25 1365.06 1389.38 z"/><path transform="translate(0,0)" fill="rgb(155,190,98)" d="M 1441.11 1387.04 C 1444.22 1389.11 1447.87 1391.68 1451.01 1393.59 L 1452.1 1393.84 C 1457.68 1398.68 1462.98 1396.12 1470.27 1396.55 C 1468.25 1401.38 1465.99 1404.43 1468.5 1409.52 C 1457.24 1407.76 1405.66 1415.42 1391.64 1417.3 C 1388.41 1409.92 1385.24 1401.46 1382.23 1393.9 C 1395.21 1392.73 1406.65 1391.48 1419.51 1389.37 C 1421.34 1393.71 1422.6 1397.93 1427.05 1399.8 C 1430.65 1401.95 1430.43 1401.87 1434.65 1401.89 C 1440.21 1398.51 1438.05 1393.41 1441.11 1387.04 z"/><path transform="translate(0,0)" fill="rgb(155,190,98)" d="M 1365.06 1389.38 C 1394.96 1381.71 1392.32 1376.47 1426.9 1374.91 C 1426.95 1379.3 1426.89 1381.19 1426.28 1385.52 C 1410.59 1385.28 1378.48 1392 1365.48 1390.03 L 1365.06 1389.38 z"/><path transform="translate(0,0)" fill="rgb(155,190,98)" d="M 1323.38 1385.11 C 1328.83 1384.5 1352.81 1380.99 1358.82 1382.7 C 1360.05 1383.05 1359.04 1386.25 1365.06 1389.38 L 1365.48 1390.03 C 1357.76 1392.36 1326.64 1392.56 1324.22 1397.54 C 1324.09 1397.81 1324.03 1398.09 1323.93 1398.37 L 1323.38 1385.11 z"/><path transform="translate(0,0)" fill="rgb(254,254,253)" d="M 1504.84 1431.85 C 1537.8 1429.12 1576.43 1426.1 1603.08 1450.3 C 1617.02 1448.43 1645.19 1444.03 1658.03 1444.23 C 1656.3 1446.51 1655.1 1448.48 1652.7 1450.01 C 1615.99 1482.88 1401.05 1507.25 1354.68 1488.12 C 1351.63 1486.81 1349.49 1485.3 1346.72 1483.53 C 1352.63 1479.94 1427.33 1472.94 1440.45 1470.85 C 1454.11 1449.22 1470.4 1444.41 1493.11 1434.85 C 1496.53 1434.37 1501.4 1432.82 1504.84 1431.85 z"/><path transform="translate(0,0)" fill="rgb(155,190,98)" d="M 1354.68 1488.12 C 1363.56 1483.38 1418.45 1478.93 1433.35 1477.17 L 1543.73 1463.21 C 1564.57 1460.64 1585.4 1457.94 1606.2 1455.11 C 1620.05 1453.22 1639.24 1450.06 1652.7 1450.01 C 1615.99 1482.88 1401.05 1507.25 1354.68 1488.12 z"/><path transform="translate(0,0)" fill="rgb(155,190,98)" d="M 1527.36 1435.4 C 1548.01 1433.08 1578.38 1438.12 1595.21 1451.34 C 1566.81 1455.2 1538.37 1458.71 1509.88 1461.88 C 1489.83 1465.13 1466.81 1467.53 1446.49 1470.09 C 1465.9 1446.76 1498.18 1437.54 1527.36 1435.4 z"/><path transform="translate(0,0)" fill="rgb(254,254,253)" d="M 1553.38 1362.3 L 1555.74 1370.41 L 1556.37 1375.72 C 1557.43 1379.12 1558.43 1382.53 1559.38 1385.95 C 1546.2 1388.07 1526.13 1388.79 1514.41 1391.76 C 1516.95 1396.26 1517.29 1397.39 1518.7 1402.4 L 1518.95 1407.84 C 1517.57 1419.1 1514.21 1425.08 1504.84 1431.85 C 1501.4 1432.82 1496.53 1434.37 1493.11 1434.85 C 1476.92 1432.25 1470.26 1426.24 1468.5 1409.52 C 1465.99 1404.43 1468.25 1401.38 1470.27 1396.55 C 1462.98 1396.12 1457.68 1398.68 1452.1 1393.84 L 1451.01 1393.59 C 1447.87 1391.68 1444.22 1389.11 1441.11 1387.04 L 1440.93 1381.91 C 1441.44 1379.47 1441.96 1377.04 1442.5 1374.61 C 1446.55 1371.52 1541 1363.92 1553.38 1362.3 z"/><path transform="translate(0,0)" fill="rgb(8,12,22)" d="M 1480.9 1384.08 C 1489.34 1381.03 1491.86 1380.78 1500.79 1381.63 C 1505.44 1384.06 1507.05 1384.67 1510.92 1388.26 L 1514.41 1391.76 C 1516.95 1396.26 1517.29 1397.39 1518.7 1402.4 L 1518.95 1407.84 C 1517.57 1419.1 1514.21 1425.08 1504.84 1431.85 C 1501.4 1432.82 1496.53 1434.37 1493.11 1434.85 C 1476.92 1432.25 1470.26 1426.24 1468.5 1409.52 C 1465.99 1404.43 1468.25 1401.38 1470.27 1396.55 L 1472.79 1392.13 C 1475.13 1389.24 1478.16 1386.63 1480.9 1384.08 z"/><path transform="translate(0,0)" fill="rgb(254,254,253)" d="M 1493.59 1392.86 C 1499.75 1384.56 1508.21 1389.1 1508.69 1397.45 C 1507.56 1400.08 1507.66 1399.9 1505.3 1401.53 L 1505.93 1401.83 L 1509.41 1402.51 C 1513.84 1406.61 1513.11 1410.4 1509.79 1414.94 C 1505.78 1417.15 1507.36 1416.56 1502.34 1416.36 C 1503.29 1424.06 1501.58 1429.21 1492.52 1428.08 C 1489.11 1425.84 1488.8 1424.76 1486.91 1421.12 C 1483.87 1420.86 1482.49 1421.02 1479.52 1421.26 C 1465.95 1415.58 1478.46 1407.61 1479.99 1403.07 C 1478.45 1400.64 1477.72 1400.01 1477.44 1397.17 C 1480 1387.58 1488.81 1386.07 1493.92 1395.39 L 1493.59 1392.86 z"/><path transform="translate(0,0)" fill="rgb(19,21,36)" d="M 1493.59 1392.86 C 1499.75 1384.56 1508.21 1389.1 1508.69 1397.45 C 1507.56 1400.08 1507.66 1399.9 1505.3 1401.53 L 1505.93 1401.83 C 1502.43 1405.51 1501.86 1410.1 1500.57 1415.09 L 1490.53 1416.18 L 1484.56 1404.68 C 1489.07 1401.11 1490.53 1400.15 1493.92 1395.39 L 1493.59 1392.86 z"/><path transform="translate(0,0)" fill="rgb(254,254,253)" d="M 1493.59 1392.86 C 1499.75 1384.56 1508.21 1389.1 1508.69 1397.45 C 1507.56 1400.08 1507.66 1399.9 1505.3 1401.53 C 1498.69 1401.02 1495.92 1398.82 1493.59 1392.86 z"/><path transform="translate(0,0)" fill="rgb(155,190,98)" d="M 1553.38 1362.3 L 1555.74 1370.41 C 1529.48 1375.91 1496.83 1374.71 1469.77 1379.78 C 1461.38 1381.35 1449.91 1380.42 1440.93 1381.91 C 1441.44 1379.47 1441.96 1377.04 1442.5 1374.61 C 1446.55 1371.52 1541 1363.92 1553.38 1362.3 z"/><path transform="translate(0,0)" fill="rgb(155,190,98)" d="M 1500.79 1381.63 C 1511.12 1380.01 1548.05 1375.11 1556.19 1376.83 C 1549.99 1388.34 1521.85 1383.17 1510.92 1388.26 C 1507.05 1384.67 1505.44 1384.06 1500.79 1381.63 z"/><path transform="translate(0,0)" fill="rgb(155,190,98)" d="M 1451.01 1393.59 L 1449.46 1387.36 L 1450.37 1386.22 C 1459.14 1384.17 1471.88 1383.92 1480.9 1384.08 C 1478.16 1386.63 1475.13 1389.24 1472.79 1392.13 L 1470.27 1396.55 C 1462.98 1396.12 1457.68 1398.68 1452.1 1393.84 L 1451.01 1393.59 z"/><path transform="translate(0,0)" fill="rgb(254,254,253)" d="M 1452.1 1393.84 C 1455.67 1391.19 1468.45 1390.16 1472.79 1392.13 L 1470.27 1396.55 C 1462.98 1396.12 1457.68 1398.68 1452.1 1393.84 z"/><path transform="translate(0,0)" fill="rgb(155,190,98)" d="M 1569.4 1361.19 C 1574.43 1360.21 1580.23 1359.38 1585.35 1358.55 L 1593.05 1367.99 L 1595.69 1370.87 L 1597.24 1372.1 C 1603.11 1376.84 1608.11 1385.26 1614.98 1385.41 C 1618.75 1384.11 1618.54 1384.18 1620.99 1380.98 C 1621.44 1385.44 1624.06 1385.24 1623.95 1389.54 C 1622.21 1390.9 1527.47 1402.1 1518.7 1402.4 C 1517.29 1397.39 1516.95 1396.26 1514.41 1391.76 C 1526.13 1388.79 1546.2 1388.07 1559.38 1385.95 C 1562.12 1386.13 1566.93 1385.19 1569.85 1384.72 L 1569.85 1382.24 C 1568.43 1375.02 1569.08 1368.54 1569.4 1361.19 z"/><path transform="translate(0,0)" fill="rgb(254,254,253)" d="M 1569.4 1361.19 C 1574.43 1360.21 1580.23 1359.38 1585.35 1358.55 L 1593.05 1367.99 L 1595.69 1370.87 C 1588.72 1372.31 1582.72 1372.16 1575.8 1372.94 C 1576.17 1376.83 1576.98 1381 1575.81 1384.63 C 1573.67 1385.95 1572.42 1386.28 1569.85 1384.72 L 1569.85 1382.24 C 1568.43 1375.02 1569.08 1368.54 1569.4 1361.19 z"/><path transform="translate(0,0)" fill="rgb(155,190,98)" d="M 1569.4 1361.19 C 1574.43 1360.21 1580.23 1359.38 1585.35 1358.55 L 1593.05 1367.99 C 1577.32 1367.45 1568.99 1363.43 1569.85 1382.24 C 1568.43 1375.02 1569.08 1368.54 1569.4 1361.19 z"/><path transform="translate(0,0)" fill="rgb(155,190,98)" d="M 1605.03 1356.29 C 1627.24 1353.21 1652.34 1350.7 1674.62 1348.7 C 1674.48 1352.22 1674.55 1355.36 1674.62 1358.89 L 1673.42 1362.79 C 1662.22 1363.97 1629.04 1366.61 1619.69 1368.71 L 1615.77 1370.36 L 1611.21 1365.29 C 1609.36 1363.09 1606.72 1358.82 1605.03 1356.29 z"/><path transform="translate(0,0)" fill="rgb(254,254,253)" d="M 1611.21 1365.29 C 1632.14 1361.47 1653.34 1359.33 1674.62 1358.89 L 1673.42 1362.79 C 1662.22 1363.97 1629.04 1366.61 1619.69 1368.71 L 1615.77 1370.36 L 1611.21 1365.29 z"/><path transform="translate(0,0)" fill="rgb(254,254,253)" d="M 1615.77 1370.36 L 1619.69 1368.71 C 1624.08 1375.39 1628.25 1386.34 1632.46 1394.26 C 1607.71 1399.82 1571.66 1400.4 1546.02 1404.63 C 1538.64 1405.84 1525.72 1406.2 1518.95 1407.84 L 1518.7 1402.4 C 1527.47 1402.1 1622.21 1390.9 1623.95 1389.54 C 1624.06 1385.24 1621.44 1385.44 1620.99 1380.98 C 1619.28 1376.09 1618.47 1374.9 1615.77 1370.36 z"/><path transform="translate(0,0)" fill="rgb(254,254,253)" d="M 1531.01 1329.43 C 1533.36 1328.95 1533.37 1329.09 1535.78 1329.46 C 1538.34 1333.02 1537.52 1350.96 1537.92 1357.34 C 1516.43 1359.83 1494.78 1361.28 1473.24 1363.92 C 1470.8 1364.16 1470.79 1364.12 1468.36 1363.69 C 1465.65 1359.64 1466.41 1341.61 1466.21 1335.21 L 1531.01 1329.43 z"/><path transform="translate(0,0)" fill="rgb(76,95,116)" d="M 1321.83 1441.57 C 1325.99 1449.62 1327.91 1467.92 1334.71 1479.42 C 1350.15 1505.54 1376.13 1497.82 1394.16 1502.93 C 1392.01 1504.5 1389.39 1504.39 1386.63 1504.66 C 1370.06 1506.62 1353.57 1509.26 1337.06 1511.17 C 1317.47 1513.43 1321.54 1491.23 1321.69 1478.5 L 1321.83 1441.57 z"/><path transform="translate(0,0)" fill="rgb(254,254,253)" d="M 1409.46 1284.48 C 1417.16 1286.09 1424.59 1287.48 1432.07 1289.96 C 1429.59 1300.03 1422.65 1318.88 1419.19 1329.69 C 1412.87 1327.72 1404.65 1326.29 1398.03 1324.95 C 1400.93 1315.28 1408.97 1293.5 1409.46 1284.48 z"/><path transform="translate(0,0)" fill="rgb(76,95,116)" d="M 1321.05 1249.07 C 1321.05 1188.04 1310.07 1190.65 1371.08 1186.92 L 1370.28 1190.57 C 1334.96 1201.04 1330.83 1214.15 1323.86 1248.46 L 1321.05 1249.07 z"/><path transform="translate(0,0)" fill="rgb(76,95,116)" d="M 1662.16 1162.43 C 1669.26 1162.13 1674.91 1163.18 1675.99 1171.28 C 1678.3 1188.7 1676.61 1209.58 1676.6 1227.19 C 1673.81 1213.14 1671.74 1204.33 1666.46 1191.09 C 1655.36 1169.3 1633.09 1169.03 1611.07 1167.15 C 1628.34 1164.92 1644.82 1163.72 1662.16 1162.43 z"/><path transform="translate(0,0)" fill="rgb(253,203,130)" d="M 1579.67 1273.27 C 1582.59 1272.83 1583.15 1272.49 1585.97 1273.38 C 1588.57 1278.78 1593.71 1304.71 1595.77 1312.55 C 1591.26 1313.6 1585.66 1314.4 1581.01 1315.19 L 1575.93 1315.65 C 1572.23 1313.25 1565.59 1282.64 1564.11 1276.43 C 1569.09 1275.3 1574.62 1274.29 1579.67 1273.27 z"/><path transform="translate(0,0)" fill="rgb(76,95,116)" d="M 1676.51 1404.73 L 1676.77 1406.7 C 1678 1416.55 1676.12 1429.13 1677.43 1438.72 C 1682.42 1475.18 1654.37 1470.5 1624.82 1473.57 L 1624.7 1472.66 C 1632.09 1469.55 1643.46 1465.49 1650.08 1461.59 C 1668.5 1450.77 1671.78 1424.43 1676.51 1404.73 z"/><path transform="translate(0,0)" fill="rgb(209,118,40)" d="M 1396.52 1330.61 C 1410.63 1332.69 1420.69 1332.75 1429.25 1345.43 L 1420.02 1351.7 L 1414.62 1345.95 L 1408.78 1337.09 L 1402.77 1355.23 C 1398.42 1353.03 1396.98 1352.89 1392.12 1351.79 C 1393.8 1345.27 1395.18 1337.32 1396.52 1330.61 z"/><path transform="translate(0,0)" fill="rgb(209,118,40)" d="M 1572.51 1324.81 C 1580.06 1320.72 1588.11 1320.31 1596.56 1319.49 C 1598.12 1327.51 1598.63 1333.09 1599.32 1341.29 L 1587.72 1342.8 C 1586.66 1338.6 1585.51 1331.37 1582.87 1328.78 C 1580.07 1329.74 1580.39 1330.63 1578.39 1333.92 L 1572.58 1339.93 C 1570.24 1337.56 1567.33 1334.96 1564.87 1332.65 L 1572.51 1324.81 z"/><path transform="translate(0,0)" fill="rgb(195,110,35)" d="M 1564.87 1332.65 L 1572.51 1324.81 C 1574.19 1328.33 1575.3 1331.58 1578.39 1333.92 L 1572.58 1339.93 C 1570.24 1337.56 1567.33 1334.96 1564.87 1332.65 z"/><path transform="translate(0,0)" fill="rgb(254,254,253)" d="M 1410.1 1349.34 C 1415.03 1353.46 1425.04 1361.03 1425.64 1366.69 C 1423.35 1368.87 1423.11 1368.21 1419.24 1368.73 L 1402.86 1370.68 C 1406.42 1362.28 1407.69 1358.25 1410.1 1349.34 z"/><path transform="translate(0,0)" fill="rgb(241,230,198)" d="M 1431.6 1350.61 C 1443.18 1355.5 1435.67 1386.68 1432.82 1395.63 C 1429.15 1391.67 1432.92 1375.85 1432.25 1369.51 C 1431.6 1363.45 1428.58 1359.39 1427.5 1353.83 L 1431.6 1350.61 z"/><path transform="translate(0,0)" fill="rgb(241,230,198)" d="M 1590.74 1274.6 C 1597.95 1275.18 1608.27 1280.16 1614.94 1283.2 C 1618.58 1293.67 1619.95 1301.09 1620.76 1312.06 L 1619.29 1311.53 C 1615.57 1307.59 1614.66 1293.38 1611.54 1288.87 C 1604.44 1278.62 1596.48 1288.41 1590.74 1274.6 z"/><path transform="translate(0,0)" fill="rgb(254,254,253)" d="M 1403.09 1287.24 C 1404.22 1288.04 1403.8 1287.91 1404.48 1289.63 L 1403.5 1291.57 C 1399.27 1293.9 1389.66 1295.46 1384.3 1296.62 C 1380.45 1305.04 1378.75 1313.8 1374.45 1322.43 L 1373.52 1321.62 C 1371.68 1317.01 1379 1298.11 1381.09 1292.88 C 1388.45 1291.11 1395.78 1289.23 1403.09 1287.24 z"/><path transform="translate(0,0)" fill="rgb(241,230,198)" d="M 1592.96 1347.04 C 1593.95 1347.43 1594.94 1347.81 1595.92 1348.19 C 1597.26 1355.26 1611.54 1373.81 1613.54 1378.13 L 1612.12 1379.33 C 1605.92 1373.44 1589.38 1360.1 1589.57 1350.88 C 1589.61 1348.99 1591.3 1348.39 1592.96 1347.04 z"/><path transform="translate(0,0)" fill="rgb(229,229,227)" d="M 1562.51 1338.45 C 1574.9 1347.65 1564.52 1343.09 1564.03 1351.33 C 1563.53 1359.82 1564.09 1369.59 1563.93 1378.35 C 1559.99 1371.42 1558.05 1356.12 1556.98 1348.32 L 1562.51 1338.45 z"/><path transform="translate(0,0)" fill="rgb(254,254,253)" d="M 1434.11 1297.51 C 1436.64 1299.15 1443.06 1307.45 1445.53 1310.41 C 1451.01 1308.81 1463.05 1304.69 1468.02 1304.78 L 1468.9 1305.86 L 1467.76 1307.73 C 1459.71 1310.43 1451.7 1313.25 1443.73 1316.2 C 1437.49 1309.63 1432.57 1306.9 1434.11 1297.51 z"/><path transform="translate(0,0)" fill="rgb(241,230,198)" d="M 1391.06 1368.16 L 1391.54 1366.64 C 1392.87 1362.26 1391.69 1360.58 1394.05 1358.25 C 1398.34 1359.49 1397.75 1358.57 1399.46 1361.43 C 1399 1365.61 1398.16 1366.75 1396.3 1370.65 C 1390.05 1375.84 1370.1 1382.04 1361.89 1384.02 C 1369.45 1379.7 1383.59 1371.11 1391.06 1368.16 z"/><path transform="translate(0,0)" fill="rgb(241,230,198)" d="M 1560.18 1287.67 L 1561.46 1289.72 C 1561.44 1296.25 1556.23 1299.99 1551.43 1304.96 C 1544.02 1302.37 1535.56 1298.69 1528.19 1295.7 L 1526.61 1294.07 L 1527.46 1292.78 C 1532.74 1292.77 1544.8 1297.34 1550.35 1299.18 C 1553.61 1294.98 1556.64 1291.6 1560.18 1287.67 z"/><path transform="translate(0,0)" fill="rgb(254,254,253)" d="M 1581.04 1339.08 C 1581.91 1340.07 1584.24 1349.91 1584.73 1351.83 L 1572.23 1353.78 L 1570.51 1353.77 L 1569.73 1352.71 C 1572.01 1348.26 1577.49 1342.93 1581.04 1339.08 z"/><path transform="translate(0,0)" fill="rgb(88,97,120)" d="M 1371.08 1186.92 C 1376.79 1186.33 1385.05 1185.26 1390.52 1185.37 C 1384.19 1186.98 1376.42 1188.73 1370.28 1190.57 L 1371.08 1186.92 z"/><path transform="translate(0,0)" fill="rgb(88,97,120)" d="M 1321.05 1249.07 L 1323.86 1248.46 C 1323.4 1252.75 1323.46 1255.27 1321.66 1259.11 C 1320.43 1256.6 1320.95 1252.11 1321.05 1249.07 z"/><path transform="translate(0,0)" fill="rgb(76,95,116)" d="M 1195.3 1160.71 C 1212.5 1162.49 1272.38 1175.33 1287.76 1179.83 C 1286.18 1188.16 1286.55 1209.97 1286.57 1219.4 L 1286.69 1285.39 C 1286.21 1342.79 1286.03 1400.19 1286.14 1457.59 C 1286.14 1472.46 1285.45 1526.74 1288.28 1537.47 C 1266.7 1530.01 1245.31 1522.91 1223.37 1516.59 C 1217.56 1514.91 1196.51 1508.79 1195.46 1502.69 C 1191.24 1478.13 1193 1450.4 1193 1425.33 L 1192.94 1310.35 L 1192.94 1219.75 C 1192.94 1208.35 1191.58 1168.75 1195.3 1160.71 z"/><path transform="translate(0,0)" fill="rgb(19,21,36)" d="M 1212.96 1385.49 C 1219.24 1386.15 1256.53 1393.87 1262.34 1396.08 C 1264.7 1398.92 1263.92 1398.91 1264.25 1403.52 C 1255.78 1403.04 1221.48 1396.29 1213.89 1392.81 C 1212.15 1389.38 1212.78 1389.91 1212.96 1385.49 z"/><path transform="translate(0,0)" fill="rgb(19,21,36)" d="M 1211.61 1450.62 C 1221.33 1451.46 1254.07 1458.38 1262.76 1462.48 C 1264.37 1465.55 1263.75 1465.4 1263.61 1469.44 C 1257.6 1468.87 1218.63 1459.94 1213.11 1457.53 C 1211.08 1454.49 1211.76 1454.94 1211.61 1450.62 z"/><path transform="translate(0,0)" fill="rgb(19,21,36)" d="M 1211.97 1434.7 C 1220.71 1435.08 1255.53 1442.22 1263.12 1446.19 C 1264.14 1449.02 1263.39 1449.94 1262.81 1453.38 C 1248.59 1449.72 1228.29 1447.15 1214.57 1441.19 C 1211.86 1440.01 1212.22 1437.43 1211.97 1434.7 z"/><path transform="translate(0,0)" fill="rgb(19,21,36)" d="M 1211.93 1418.69 C 1220.28 1418.92 1255.16 1426.09 1262.69 1429.65 C 1264.67 1432.36 1263.94 1432.27 1263.89 1436.51 C 1253.18 1435.19 1223.23 1429.69 1213.2 1423.87 C 1211.93 1423.13 1212.12 1420.55 1211.93 1418.69 z"/><path transform="translate(0,0)" fill="rgb(19,21,36)" d="M 1211.99 1402.58 C 1220.67 1402.9 1255.08 1409.48 1262.91 1413.5 C 1264.62 1416.48 1263.94 1416.17 1263.55 1420.4 C 1251.93 1418.71 1226.3 1413.3 1214.8 1409.04 C 1212.07 1408.03 1212.31 1405.24 1211.99 1402.58 z"/><path transform="translate(0,0)" fill="rgb(142,161,180)" d="M 1205.19 1149.78 C 1215.51 1147.61 1228.41 1147.47 1239.16 1146.82 C 1253.25 1145.88 1267.34 1144.84 1281.42 1143.71 C 1311.82 1141.23 1342.23 1138.96 1372.66 1136.92 C 1378.79 1136.51 1413.58 1133.51 1417.55 1135.22 C 1417.85 1137.75 1417.93 1139.44 1418.03 1141.96 C 1418.53 1142.34 1419.04 1142.73 1419.55 1143.12 C 1460.22 1141.57 1528.45 1138.26 1566.06 1134.72 L 1567.67 1137.78 C 1513.91 1141.13 1460.55 1146.57 1407 1150.62 C 1386.2 1152.06 1365.4 1153.65 1344.62 1155.38 C 1321.88 1157.24 1297.12 1154.6 1287.76 1179.83 C 1272.38 1175.33 1212.5 1162.49 1195.3 1160.71 C 1198.9 1155.16 1200.4 1153.99 1205.19 1149.78 z"/><path transform="translate(0,0)" fill="rgb(76,95,116)" d="M 1496.01 1098.12 C 1518.26 1096.74 1540.26 1107 1553.46 1124.88 C 1522.21 1127.65 1490.45 1127.97 1459.14 1130.41 C 1453.29 1130.87 1447.34 1131.13 1441.47 1131.11 C 1437.94 1131.31 1435.36 1131.99 1432.9 1129.56 C 1432.92 1126.6 1434.55 1124.65 1436.66 1122.58 C 1452.61 1106.91 1474 1098.79 1496.01 1098.12 z"/><path transform="translate(0,0)" fill="rgb(142,161,180)" d="M 1496.01 1098.12 C 1495.52 1098.37 1495.04 1098.63 1494.55 1098.88 C 1471.15 1106.69 1455.15 1106.94 1441.47 1131.11 C 1437.94 1131.31 1435.36 1131.99 1432.9 1129.56 C 1432.92 1126.6 1434.55 1124.65 1436.66 1122.58 C 1452.61 1106.91 1474 1098.79 1496.01 1098.12 z"/><path transform="translate(0,0)" fill="url(#Gradient1)" d="M 1566.06 1134.72 C 1565.68 1131.39 1564.6 1126.53 1566.2 1123.98 C 1574.83 1122.62 1632.08 1128.83 1642.59 1130.89 C 1617.61 1133.89 1592.13 1134.74 1567.67 1137.78 L 1566.06 1134.72 z"/><path transform="translate(0,0)" fill="rgb(254,254,253)" fill-opacity="0.0392157" d="M 1161.25 970.077 C 1161.45 969.691 1161.66 969.304 1161.86 968.917 L 1162.83 967.152 C 1167.62 958.359 1171.69 956.223 1179.89 950.736 L 1180.14 952.112 L 1161.25 970.077 z"/></svg>