<svg version="1.1" xmlns="http://www.w3.org/2000/svg" style="display: block;" viewBox="0 0 2048 2048" width="1024" height="1024" preserveAspectRatio="none"><path transform="translate(0,0)" fill="rgb(0,38,93)" d="M 372.972 790.021 C 388.489 746.08 403.642 708.522 426.928 667.932 C 495.734 547.997 609.071 450.974 733.459 392.132 C 899.956 313.37 1079.96 309.42 1252.62 370.7 C 1416.13 428.729 1559.68 551.956 1634.4 709.053 C 1664.52 772.923 1684.98 840.916 1695.1 910.802 C 1727.43 904.03 1760.27 887.217 1787.9 869.571 C 1792.7 866.509 1800.26 858.137 1805.64 858.313 C 1809.23 869.195 1781.74 894.216 1774.05 900.571 C 1757.31 914.397 1736.25 924.587 1715.62 931.17 C 1709.77 933.024 1703.88 934.721 1697.94 936.26 C 1698.27 953.555 1703.16 1000.37 1695.64 1017.78 C 1694.47 1020.48 1672.89 1020.92 1667.94 1021.43 C 1668.94 1001.95 1670.55 961.026 1666.5 941.945 C 1644.38 942.216 1628.72 943.54 1606.33 941.982 C 1607.49 954.266 1609.16 968.723 1609.37 980.934 C 1609.57 992.775 1608.15 1006.02 1607.8 1017.98 C 1597.15 1014.59 1575.04 1010.5 1563.34 1008.48 C 1546.81 1005.63 1506.97 993.185 1492.26 995.307 L 1490.27 996.63 C 1490.75 999.556 1492.96 1001.08 1495.31 1002.74 C 1506.98 1010.96 1521.41 1015.61 1534.84 1020.1 C 1582.51 1036.02 1634.62 1045.02 1684.59 1035.45 C 1714.71 1029.68 1744.74 1018.62 1772.15 1004.94 C 1778.05 1001.99 1812.67 979.931 1815.56 980.071 C 1823.41 990.994 1775.72 1026.76 1767.37 1031.76 C 1743.26 1046.17 1720.3 1053.62 1693.48 1060.57 C 1690.13 1092.96 1686.87 1112.88 1679.48 1144.83 C 1719.12 1133.94 1760.19 1114.72 1795.53 1093.77 C 1801.53 1090.22 1805.47 1087.71 1812.29 1085.39 C 1795.86 1119.7 1735.68 1150.16 1700.52 1162.55 C 1691.57 1165.66 1682.5 1168.41 1673.32 1170.79 C 1620.21 1348.51 1513.04 1490.43 1348.62 1579.06 C 1188.44 1665.36 1000.54 1684.51 826.242 1632.29 C 651.744 1579.75 511.568 1468.46 425.271 1307.67 C 391.536 1244.82 353.992 1144 348.479 1072.19 C 359.008 1070.18 367.047 1069.51 377.826 1069.53 C 380.999 1082.88 382.98 1096.6 385.845 1110.09 C 390.118 1129.79 395.37 1149.27 401.582 1168.45 C 448.897 1314.79 548.854 1450.09 680.78 1530.27 C 827.336 1619.34 1009.52 1645.44 1175.91 1606.12 C 1345.11 1566.14 1481.34 1465.43 1572.33 1318.04 C 1608.73 1258.03 1635.38 1192.62 1651.29 1124.25 C 1655.91 1103.85 1657.8 1082.95 1661.97 1064.53 C 1639.58 1064.17 1624.8 1063.69 1602.27 1061.33 C 1600.59 1081.24 1590.75 1120.42 1584.83 1139.94 C 1550.99 1251.45 1491.2 1349.2 1401.83 1424.61 C 1276.36 1530.47 1119.87 1568.84 958.412 1555.13 C 808.79 1542.43 676.293 1480.25 578.943 1364.51 C 507.444 1279.14 459.905 1176.31 441.186 1066.54 L 440.8 1060.97 C 433.667 1054.22 383.629 1053.75 372.273 1053.94 C 329.656 1054.66 288.493 1063.81 248.978 1079.66 C 243.683 1081.79 229.817 1090.13 225.96 1087.33 C 225.968 1084.38 226.382 1082.27 228.974 1080.15 C 278.28 1039.9 330.187 1024.31 395.798 1027.85 C 494.475 1033.17 599.947 1110.74 697.187 1049.95 C 698.611 1049.06 700.539 1046.27 701.442 1044.87 C 701.559 1041.53 701.947 1043.06 700.13 1040.14 C 689.954 1041.1 678.985 1044.58 668.907 1046.59 C 615.23 1057.3 558.958 1050.56 507.389 1033.13 C 484.689 1025.46 463.127 1018.52 439.407 1013.03 C 435.759 995.834 438.773 961.471 441.388 944.341 C 373.28 928.841 308.913 928.278 243.827 961.198 C 238.861 963.71 231.349 968.919 226.42 964.914 C 225.549 957.758 235.622 951.782 241.11 947.552 C 267.19 927.531 298.115 914.785 330.729 910.616 C 361.482 907.129 392.593 908.531 422.908 914.77 C 460.645 922.594 490.963 935.306 530.538 946.783 C 580.549 961.287 653.98 963.925 696.863 927.435 C 697.403 926.976 698.361 924.932 698.655 924.31 L 697.866 922.404 C 692.207 920.115 683.692 923.036 677.804 924.806 C 647.818 933.82 617.613 938.141 586.133 935.864 C 535.674 932.215 489.271 910.721 439.32 898.637 C 445.897 875.323 449.075 851.261 458.017 828.092 C 383.43 805.037 333.243 813.788 259.123 834.748 C 251.67 836.856 227.826 847.837 222.388 846.704 C 217.055 835.015 277.539 806.562 287.804 803.174 C 312.799 794.924 346.663 788.6 372.972 790.021 z M 406.091 789.486 C 496.188 800.523 573.817 850.971 667.387 829.946 C 675.244 828.18 701.846 822.291 705.806 814.508 C 702.958 809.102 684.135 811.749 678.07 812.338 C 649.417 815.118 621.572 815.011 592.904 813.386 C 552.017 811.068 516.321 796.457 477.196 786.944 L 477.613 785.985 C 481.249 777.501 484.204 768.008 487.767 759.162 C 494.194 743.458 501.494 728.125 509.632 713.236 C 570.57 602.772 667.63 516.615 784.541 469.207 C 881.234 430.111 982.04 419.706 1085.24 428.282 C 1122.44 433.097 1146.7 436.579 1183.8 446.215 C 1305.61 477.346 1413.29 548.816 1489.28 648.977 C 1545.06 721.179 1582.55 805.805 1598.54 895.634 C 1587.77 893.084 1574.78 889.835 1564.65 886.949 C 1547.85 882.165 1486.42 859.602 1472.81 860.794 L 1470.55 862.22 C 1469.62 871.853 1486.63 879.276 1494.08 882.796 C 1544.65 906.679 1608.25 922.191 1664.03 915.001 C 1646.93 797.806 1594.35 676.755 1516.84 587.283 C 1407.5 461.058 1253.68 382.416 1088.02 364.479 C 1057.39 361.162 1029.01 360.313 998.226 360.428 C 966.384 362.398 935.718 364.194 904.159 369.822 C 759.48 395.624 631.873 469.939 532.663 577.668 C 472.39 643.116 438.543 707.598 406.091 789.486 z"/><path transform="translate(0,0)" fill="rgb(254,194,28)" d="M 1164.53 689.114 C 1174.01 698.834 1178.7 702.019 1190.34 709.272 C 1199.97 713.654 1206.59 715.69 1216.87 718.451 C 1226.33 719.46 1238.43 720.358 1247.44 722.67 C 1249.27 759.325 1253.05 797.257 1255.76 834 L 1269.79 1025.92 L 1277.01 1122.29 C 1278.04 1135.07 1279.55 1159.38 1281.96 1171 C 1270.63 1174.84 1260.67 1177.62 1249.14 1180.76 C 1234.83 1184.53 1219.43 1188.9 1204.97 1191.54 C 1103.19 1217.13 981.378 1219.85 877.863 1205.25 C 860.528 1202.75 843.268 1199.18 826.097 1195.73 C 813.453 1194.17 784.398 1185.89 771.812 1182.47 C 765.573 1180.58 759.343 1178.67 753.123 1176.72 C 744.396 1174.02 738.039 1172.13 729.668 1168.31 C 729.869 1136.58 735.54 1089.03 737.955 1055.97 C 743.047 986.27 747.193 913.646 754.245 844.254 C 761.512 844.062 768.126 843.096 775.049 840.902 L 785.093 834.664 C 806.63 814.619 803.886 793.213 803.371 766.694 C 802.904 742.613 799.865 714.993 804 691.408 C 819.166 698.007 821.84 698.971 838.228 701.114 C 844.37 701.082 850.762 701.145 856.878 701.006 C 864.432 711.744 870.661 718.058 880.031 727.369 C 921.97 760.373 967.557 757.548 1006.94 722.131 C 1054.85 746.907 1123.72 715.429 1164.53 689.114 z"/><path transform="translate(0,0)" fill="rgb(254,194,28)" d="M 804 691.408 C 819.166 698.007 821.84 698.971 838.228 701.114 C 844.37 701.082 850.762 701.145 856.878 701.006 C 864.432 711.744 870.661 718.058 880.031 727.369 C 879.979 760.721 877.362 797.288 878.151 829.417 C 872.953 830.1 864.966 830.939 860.09 831.986 C 859.52 890.869 858.292 949.743 856.405 1008.6 C 855.474 1043.32 855.26 1077.79 853.976 1112.59 C 862.685 1113.72 871.371 1115.03 880.027 1116.51 C 879.974 1146.34 877.712 1175.34 877.863 1205.25 C 860.528 1202.75 843.268 1199.18 826.097 1195.73 C 813.453 1194.17 784.398 1185.89 771.812 1182.47 C 765.573 1180.58 759.343 1178.67 753.123 1176.72 C 744.396 1174.02 738.039 1172.13 729.668 1168.31 C 729.869 1136.58 735.54 1089.03 737.955 1055.97 C 743.047 986.27 747.193 913.646 754.245 844.254 C 761.512 844.062 768.126 843.096 775.049 840.902 L 785.093 834.664 C 806.63 814.619 803.886 793.213 803.371 766.694 C 802.904 742.613 799.865 714.993 804 691.408 z"/><path transform="translate(0,0)" fill="rgb(254,254,245)" d="M 838.228 701.114 C 844.37 701.082 850.762 701.145 856.878 701.006 C 864.432 711.744 870.661 718.058 880.031 727.369 C 879.979 760.721 877.362 797.288 878.151 829.417 C 872.953 830.1 864.966 830.939 860.09 831.986 C 859.52 890.869 858.292 949.743 856.405 1008.6 C 855.474 1043.32 855.26 1077.79 853.976 1112.59 C 862.685 1113.72 871.371 1115.03 880.027 1116.51 C 879.974 1146.34 877.712 1175.34 877.863 1205.25 C 860.528 1202.75 843.268 1199.18 826.097 1195.73 C 825.729 1180.88 827.035 1161.58 827.527 1146.42 L 829.815 1059.99 L 838.228 701.114 z"/><path transform="translate(0,0)" fill="rgb(254,254,245)" d="M 775.049 840.902 C 770.903 924.848 765.701 1008.74 759.444 1092.55 C 758.056 1110.64 756.778 1128.73 755.61 1146.83 C 755.196 1153.15 754.34 1171.41 753.123 1176.72 C 744.396 1174.02 738.039 1172.13 729.668 1168.31 C 729.869 1136.58 735.54 1089.03 737.955 1055.97 C 743.047 986.27 747.193 913.646 754.245 844.254 C 761.512 844.062 768.126 843.096 775.049 840.902 z"/><path transform="translate(0,0)" fill="rgb(182,122,18)" d="M 775.049 840.902 L 785.093 834.664 L 789.363 835.787 C 788.754 855.539 786.82 876.304 785.726 896.209 L 781.133 996.587 L 776.316 1111.37 C 775.582 1131.76 775.16 1152.18 774.398 1172.56 C 774.241 1176.77 774.383 1179.2 771.812 1182.47 C 765.573 1180.58 759.343 1178.67 753.123 1176.72 C 754.34 1171.41 755.196 1153.15 755.61 1146.83 C 756.778 1128.73 758.056 1110.64 759.444 1092.55 C 765.701 1008.74 770.903 924.848 775.049 840.902 z"/><path transform="translate(0,0)" fill="rgb(0,38,93)" d="M 878.151 829.417 C 910.055 826.162 963.822 824.018 990.48 844.173 C 1004.42 854.716 1011.77 875.238 1012.79 892.292 C 1015.04 970.316 1017.7 1011.32 927.227 1017.56 C 922.8 1017.9 918.365 1018.13 913.926 1018.24 L 911.832 1119.37 C 900.82 1118.74 890.956 1117.72 880.027 1116.51 C 871.371 1115.03 862.685 1113.72 853.976 1112.59 C 855.26 1077.79 855.474 1043.32 856.405 1008.6 C 858.292 949.743 859.52 890.869 860.09 831.986 C 864.966 830.939 872.953 830.1 878.151 829.417 z"/><path transform="translate(0,0)" fill="rgb(254,194,28)" d="M 916.791 892.084 C 921.938 891.984 926.944 891.757 932.005 892.871 C 960.516 899.146 962.743 935.112 944.94 953.701 C 934.349 960.875 927.003 961.29 914.666 962.311 C 915.433 946.136 914.283 905.509 916.791 892.084 z"/><path transform="translate(0,0)" fill="rgb(182,122,18)" d="M 1190.34 709.272 C 1199.97 713.654 1206.59 715.69 1216.87 718.451 C 1226.33 719.46 1238.43 720.358 1247.44 722.67 C 1249.27 759.325 1253.05 797.257 1255.76 834 L 1269.79 1025.92 L 1277.01 1122.29 C 1278.04 1135.07 1279.55 1159.38 1281.96 1171 C 1270.63 1174.84 1260.67 1177.62 1249.14 1180.76 C 1234.83 1184.53 1219.43 1188.9 1204.97 1191.54 C 1207.51 1185.98 1194.73 834.04 1193.44 798.104 C 1192.74 779.724 1191.93 761.349 1191.01 742.978 C 1190.56 733.092 1189.55 718.877 1190.34 709.272 z"/><path transform="translate(0,0)" fill="rgb(254,194,28)" d="M 1216.87 718.451 C 1226.33 719.46 1238.43 720.358 1247.44 722.67 C 1249.27 759.325 1253.05 797.257 1255.76 834 L 1269.79 1025.92 L 1277.01 1122.29 C 1278.04 1135.07 1279.55 1159.38 1281.96 1171 C 1270.63 1174.84 1260.67 1177.62 1249.14 1180.76 C 1248.44 1139.58 1243.9 1092.36 1241.01 1051.12 L 1230.54 888.909 L 1223.02 782.257 C 1221.77 765.131 1220.01 734.521 1216.87 718.451 z"/><path transform="translate(0,0)" fill="rgb(0,38,93)" d="M 1072.8 826.444 C 1125.43 824.105 1179.34 834.447 1185.61 895.76 C 1187.02 909.547 1187.41 922.877 1187.98 936.594 C 1190.76 1004.49 1146.41 1017.27 1088.62 1023.35 C 1088.36 1036.11 1088.6 1049.67 1088.62 1062.49 L 1089.16 1113.67 C 1076.27 1115.68 1041.19 1118.01 1028.01 1117.6 C 1025.71 1022.13 1027.06 923.93 1027.27 828.196 C 1041.94 828.077 1058.05 827.078 1072.8 826.444 z"/><path transform="translate(0,0)" fill="rgb(254,194,28)" d="M 1095.88 891.369 C 1132.47 889.291 1140.97 934.915 1115.78 954.464 C 1107.12 959.984 1097.9 961.232 1088 962.53 L 1087.82 919.472 C 1087.77 911.999 1087.23 900.323 1088.28 893.277 C 1090.21 891.426 1093.02 891.64 1095.88 891.369 z"/><path transform="translate(0,0)" fill="rgb(1,45,117)" d="M 1252.59 423.612 C 1258.03 424.267 1275.87 431.91 1281.75 434.355 C 1331.53 455.057 1372.27 479.953 1415.29 512.167 L 1406.12 523.683 C 1404.65 526.116 1404.73 526.144 1402.65 528.018 C 1398.39 527.438 1392.19 522.502 1388.78 519.802 C 1371.37 505.986 1352.58 494.464 1333.25 483.439 C 1305.28 467.682 1276.1 454.154 1246 442.979 L 1252.59 423.612 z"/><path transform="translate(0,0)" fill="rgb(1,45,117)" d="M 817.06 412.512 C 818.793 413.764 823.765 429.635 824.818 432.785 C 801.811 439.477 777.933 449.009 755.607 457.889 C 747.445 461.135 710.243 482.469 704.452 482.542 L 693.788 466.718 C 736.364 441.438 770.905 428.172 817.06 412.512 z"/><path transform="translate(0,0)" fill="rgb(1,45,117)" d="M 1574.66 704.168 C 1582.59 711.963 1613.7 790.089 1617.85 803.376 C 1611.85 805.473 1606.3 807.688 1600.4 810.052 L 1598.3 809.748 C 1592.92 798.512 1587.78 783.14 1582.82 771.167 C 1574.85 752.119 1566.09 733.413 1556.57 715.095 L 1574.66 704.168 z"/><path transform="translate(0,0)" fill="rgb(1,45,117)" d="M 1508.73 602.762 C 1520.18 611.378 1560.29 674.041 1567.23 688.485 C 1561.87 692.455 1556.22 696.14 1550.67 699.854 C 1548.85 699.352 1547.82 698.441 1546.9 696.722 C 1531.26 667.69 1511.8 642.336 1492.95 615.43 C 1497.32 611.106 1503.71 606.559 1508.73 602.762 z"/><path transform="translate(0,0)" fill="rgb(1,45,117)" d="M 601.401 532.011 C 607.209 537.663 610.294 541.103 615.444 547.38 C 589.709 569.669 573.632 587.803 550.352 611.103 C 545.554 608.483 538.971 601.73 534.747 597.742 C 557.768 571.224 573.943 554.974 601.401 532.011 z"/><path transform="translate(0,0)" fill="rgb(1,45,117)" d="M 989.58 380.42 C 1001.69 379.824 1014.02 380.023 1026.16 380.057 L 1026.41 402.082 C 1007.61 402.037 990.931 401.695 972.238 403.853 C 963.862 404.206 948.657 405.841 940.66 407.606 C 939.851 402.611 937.3 390.26 939.055 386.049 C 946.809 382.812 978.871 381.348 989.58 380.42 z"/><path transform="translate(0,0)" fill="rgb(1,45,117)" d="M 467.288 696.494 C 473.165 698.489 481.092 703.806 486.21 707.269 C 477.042 724.096 468.649 741.333 461.057 758.928 C 459.03 763.727 453.315 780.428 449.807 782.336 C 442.899 779.402 437.007 777.981 429.509 777.872 C 437.379 757.852 455.395 712.998 467.288 696.494 z"/><path transform="translate(0,0)" fill="rgb(1,45,117)" d="M 1146.94 393.623 C 1159.25 394.413 1225.24 410.169 1233.38 416.986 C 1234.4 422.168 1230.85 430.477 1228.97 435.607 C 1225.42 435.402 1212.16 431.246 1207.9 429.784 C 1186.83 422.554 1163.87 419.598 1142.81 413.556 C 1144.94 405.899 1145.75 401.526 1146.94 393.623 z"/><path transform="translate(0,0)" fill="rgb(1,45,117)" d="M 1044.69 380.787 C 1054.3 380.784 1124.83 386.153 1129.23 390.853 C 1129.72 396.709 1128.1 404.74 1127.13 410.79 C 1122.96 412.394 1119.13 410.85 1114.61 410.086 C 1090.93 406.079 1068.04 403.559 1043.96 403.697 C 1044.38 396.024 1044.9 388.477 1044.69 380.787 z"/><path transform="translate(0,0)" fill="rgb(1,45,117)" d="M 916.369 388.279 L 918.482 388.555 C 920.317 391.189 922.223 404.919 923.097 409.341 C 909.829 411.998 896.157 413.685 882.887 416.466 C 868.833 419.412 854.834 423.267 840.896 426.812 L 840.327 426.665 C 838.314 424.7 834.662 411.525 832.82 406.83 C 861.445 398.597 887.04 393.708 916.369 388.279 z"/><path transform="translate(0,0)" fill="rgb(1,45,117)" d="M 525.425 610.461 C 528.414 612.058 537.721 622.128 540.936 625.298 C 535.855 632.68 529.568 640.052 524.238 647.453 C 514.383 661.139 505.577 675.019 496.782 689.382 C 495.976 689.661 495.17 689.941 494.364 690.22 C 489.741 686.724 482.884 682.72 477.804 679.331 C 478.567 670.75 517.116 620.087 525.425 610.461 z"/><path transform="translate(0,0)" fill="rgb(1,45,117)" d="M 1432.73 525.442 C 1441.48 530.233 1485.34 573.512 1491.22 582.051 C 1487.66 585.614 1480.09 591.646 1475.9 595.329 C 1473.97 594.393 1469.72 589.574 1467.95 587.749 C 1452.41 571.577 1436.03 556.22 1418.9 541.739 C 1423.64 536.763 1428.33 530.799 1432.73 525.442 z"/><path transform="translate(0,0)" fill="rgb(1,45,117)" d="M 1622.7 826.099 L 1624.46 826.719 C 1631.01 838.389 1640.32 885.887 1644.77 901.421 C 1636.05 902.844 1633.46 902.961 1624.4 902.96 C 1623.28 903.631 1624.03 903.368 1622.03 902.933 C 1621.5 902.18 1606.05 838.374 1604.02 830.857 C 1611.68 829.518 1615.44 828.804 1622.7 826.099 z"/><path transform="translate(0,0)" fill="rgb(1,45,117)" d="M 674.121 477.868 C 676.784 479.751 683.838 491.697 686.071 495.237 C 667.578 506.414 649.927 521.157 632.84 534.532 C 628.467 529.496 625.437 523.922 619.644 517.517 C 638.909 503.88 653.187 491.949 674.121 477.868 z"/><path transform="translate(0,0)" fill="rgb(254,254,245)" d="M 1002.2 476.371 C 1042.69 473.359 1076.46 486.474 1100.58 520.043 C 1108.56 520.035 1113.13 519.77 1120.94 521.56 C 1142.21 526.609 1160.65 539.797 1172.31 558.294 C 1192.23 551.722 1210.82 549.246 1231.44 554.756 C 1255.56 561.052 1276.15 576.763 1288.58 598.367 C 1321.61 656.029 1280.7 711.389 1216.08 693.456 C 1191.8 686.719 1176.26 670.545 1164.46 648.916 C 1150.61 676.913 1126.6 685.813 1097.06 678.966 C 1068.58 712.179 1038.34 721.631 999.631 697.797 C 998.15 700.169 996.578 702.483 994.917 704.732 C 984.597 719.077 968.924 728.65 951.45 731.281 C 930.539 734.325 913.438 727.965 896.862 715.707 C 884.428 705.274 878.176 692.561 871.724 678.092 C 829.266 684.281 792.424 672.076 773.228 631.337 C 774.747 647.047 777.708 654.872 780.478 670.358 C 785.046 705.792 771.304 736.923 776.262 774.342 C 779.248 796.874 782.573 816.284 757.918 822.389 C 719.956 811.392 736.671 738.567 731.047 708.961 C 728.213 694.043 718.123 683.403 718.173 665.693 C 718.341 607.123 757.47 563.186 816.918 561.894 C 831.816 539.227 843.543 526.087 870.066 515.738 C 887.308 509.01 910.769 507.525 927.944 515.433 C 948.177 493.731 972.579 479.956 1002.2 476.371 z"/><path transform="translate(0,0)" fill="rgb(0,0,0)" d="M 882.019 556.258 L 882.581 556.691 C 882.076 559.077 858.135 575.054 854.459 585.041 C 851.28 593.68 849.43 597.707 847.388 608.161 C 846.948 607.701 846.545 607.39 846.465 606.668 C 844.685 590.44 847.281 573.132 862.212 563.582 C 869.17 559.131 874.127 558.119 882.019 556.258 z"/><path transform="translate(0,0)" fill="rgb(0,0,0)" d="M 1101.59 545.972 C 1115.78 548.385 1132.24 562.951 1131.85 577.429 L 1130.54 577.336 L 1127.84 573.45 C 1116.36 558.362 1106.13 556.749 1088.95 551.872 L 1101.59 545.972 z"/><path transform="translate(0,0)" fill="rgb(0,0,0)" d="M 1212.89 592.467 C 1240.78 588.783 1256.94 604.173 1259.87 631.183 C 1258.5 629.764 1254.04 620.314 1252.39 617.796 C 1239.99 598.84 1231.26 599.259 1214.43 593.047 L 1212.89 592.467 z"/><path transform="translate(0,0)" fill="rgb(254,194,28)" d="M 1272.94 747.092 C 1320.25 748.58 1369.11 751.389 1403.96 788.709 C 1414.54 800.19 1422.35 813.935 1426.81 828.896 C 1430.34 841.047 1432.47 864.118 1433.91 877.32 C 1436.77 903.355 1439.47 929.407 1442 955.475 C 1445.07 986.662 1449.51 1021.56 1450 1052.82 C 1450.23 1067.59 1438.55 1089.3 1428.67 1100.35 C 1403.01 1129.71 1343.32 1147.79 1306.36 1158.75 C 1303.38 1135.43 1303.5 1107.71 1299.94 1085.27 C 1319.56 1079.19 1339.34 1073.44 1354.79 1059.18 C 1363.99 1050.64 1372.31 1035.09 1371.84 1022.35 C 1370.21 978.325 1365.43 934.288 1362.66 890.294 C 1362.04 880.395 1361.14 865.632 1358.47 856.313 C 1347.84 819.208 1309.95 816.15 1278.08 815.992 C 1277.73 806.509 1277.08 797.935 1276.28 788.517 L 1272.94 747.092 z"/><path transform="translate(0,0)" fill="rgb(254,254,245)" d="M 1272.94 747.092 C 1320.25 748.58 1369.11 751.389 1403.96 788.709 C 1414.54 800.19 1422.35 813.935 1426.81 828.896 C 1430.34 841.047 1432.47 864.118 1433.91 877.32 C 1436.77 903.355 1439.47 929.407 1442 955.475 C 1445.07 986.662 1449.51 1021.56 1450 1052.82 C 1450.23 1067.59 1438.55 1089.3 1428.67 1100.35 C 1418.03 1039.43 1414.31 976.431 1404.25 915.368 C 1398.78 882.248 1398.11 836.345 1370.73 813.606 C 1349.5 795.968 1303.25 786.234 1276.28 788.517 L 1272.94 747.092 z"/><path transform="translate(0,0)" fill="rgb(254,194,28)" d="M 868.28 1221.95 C 952.722 1234.71 1038.52 1235.82 1123.26 1225.26 C 1150.76 1221.7 1175.79 1216.72 1203.02 1211.42 C 1203.13 1213.24 1203.26 1217.21 1203.52 1218.83 C 1204.89 1238.9 1202.66 1266.58 1205.08 1285.07 C 1078.47 1316.67 994.121 1318.59 866.603 1297.61 C 852.512 1294.3 838.08 1291.23 823.928 1288.07 C 825.288 1263.56 826.003 1239.02 826.073 1214.47 C 839.949 1217.02 854.379 1219.87 868.28 1221.95 z"/><path transform="translate(0,0)" fill="rgb(254,254,245)" d="M 826.073 1214.47 C 839.949 1217.02 854.379 1219.87 868.28 1221.95 C 867.795 1245.95 866.589 1273.97 866.603 1297.61 C 852.512 1294.3 838.08 1291.23 823.928 1288.07 C 825.288 1263.56 826.003 1239.02 826.073 1214.47 z"/><path transform="translate(0,0)" fill="rgb(254,194,28)" d="M 724.538 1187.02 C 732.728 1189.64 740.892 1192.34 749.029 1195.12 C 751.309 1195.82 754.252 1196.59 756.352 1197.57 C 780.394 1203.87 801.706 1209.6 826.073 1214.47 C 826.003 1239.02 825.288 1263.56 823.928 1288.07 C 798.857 1281.66 774.185 1273.78 750.039 1264.48 C 748.403 1264.1 746.659 1263.16 745.085 1262.44 C 736.28 1259.29 728.216 1256.31 719.908 1251.98 C 719.802 1232.75 721.245 1205.84 724.538 1187.02 z"/><path transform="translate(0,0)" fill="rgb(254,194,28)" d="M 724.538 1187.02 C 732.728 1189.64 740.892 1192.34 749.029 1195.12 C 748.943 1205.85 742.915 1257.09 745.438 1261.46 L 745.085 1262.44 C 736.28 1259.29 728.216 1256.31 719.908 1251.98 C 719.802 1232.75 721.245 1205.84 724.538 1187.02 z"/><path transform="translate(0,0)" fill="rgb(182,122,18)" d="M 749.029 1195.12 C 751.309 1195.82 754.252 1196.59 756.352 1197.57 C 758.458 1204.72 756.057 1253.43 754.567 1262.61 L 750.039 1264.48 C 748.403 1264.1 746.659 1263.16 745.085 1262.44 L 745.438 1261.46 C 742.915 1257.09 748.943 1205.85 749.029 1195.12 z"/><path transform="translate(0,0)" fill="rgb(254,194,28)" d="M 979.57 1410.12 C 1010.76 1408.52 1026.41 1426.75 1028.15 1456.97 C 1029.61 1482.18 1021.74 1508.83 994.253 1515.92 C 955.075 1518.84 942.395 1490.12 946.462 1455.57 C 948.881 1435.01 958.076 1416.31 979.57 1410.12 z"/><path transform="translate(0,0)" fill="rgb(0,38,93)" d="M 984.164 1432.04 C 1000.03 1431.96 1005.87 1445.59 1005.68 1459.52 C 1005.48 1474.97 1003.47 1487.16 988.632 1494.03 C 987.187 1494.06 985.742 1493.95 984.319 1493.69 C 961.012 1489.71 964.129 1444.63 984.164 1432.04 z"/><path transform="translate(0,0)" fill="rgb(182,122,18)" d="M 1249.87 1199.74 L 1287.86 1187.41 C 1288.59 1211.15 1290.58 1232.65 1290.03 1256.61 C 1278.64 1261.52 1267.78 1266.1 1255.89 1269.8 C 1239.16 1275.04 1221.99 1280.67 1205.08 1285.07 C 1202.66 1266.58 1204.89 1238.9 1203.52 1218.83 C 1203.26 1217.21 1203.13 1213.24 1203.02 1211.42 C 1219.31 1208.12 1233.91 1203.51 1249.87 1199.74 z"/><path transform="translate(0,0)" fill="rgb(254,194,28)" d="M 1249.87 1199.74 L 1287.86 1187.41 C 1288.59 1211.15 1290.58 1232.65 1290.03 1256.61 C 1278.64 1261.52 1267.78 1266.1 1255.89 1269.8 C 1254.28 1266.09 1253.37 1213.29 1251.44 1201.85 L 1249.87 1199.74 z"/><path transform="translate(0,0)" fill="rgb(212,160,10)" d="M 1203.02 1211.42 C 1219.31 1208.12 1233.91 1203.51 1249.87 1199.74 L 1251.44 1201.85 C 1238.87 1211.51 1219.14 1206.04 1205.08 1213.88 C 1204.44 1214.24 1203.67 1217.68 1203.52 1218.83 C 1203.26 1217.21 1203.13 1213.24 1203.02 1211.42 z"/><path transform="translate(0,0)" fill="rgb(254,194,28)" d="M 1376.17 1261.13 C 1378.27 1261 1380.39 1260.87 1382.5 1260.94 C 1409.95 1261.75 1403.19 1283.1 1409.13 1288.93 C 1409.86 1289.65 1425.32 1288.12 1435.11 1298.82 C 1439.32 1303.43 1440.91 1309.12 1440.6 1315.28 C 1439.67 1334.2 1419.79 1349.77 1406.76 1361.32 C 1405.34 1361.87 1404.74 1361.72 1403.13 1361.81 C 1394.52 1356.68 1349.83 1302.39 1341.41 1291.59 C 1350.11 1279.19 1362.14 1267.28 1376.17 1261.13 z"/><path transform="translate(0,0)" fill="rgb(0,38,93)" d="M 1408.52 1311.97 C 1412.82 1311.88 1412.78 1311.63 1416.28 1313.82 C 1421.33 1322.19 1412.6 1328.91 1406.47 1333.49 C 1401.42 1328.25 1399.54 1326.28 1395.46 1320.29 C 1399.91 1316.71 1403.61 1314.76 1408.52 1311.97 z"/><path transform="translate(0,0)" fill="rgb(0,38,93)" d="M 1379.69 1283.73 C 1387.11 1285.45 1389.4 1290.47 1392.27 1296.92 C 1389.35 1300.42 1386.54 1302.9 1383.22 1305.99 C 1377.49 1300.28 1374.78 1297.39 1369.89 1291 C 1373.27 1287.36 1375.53 1286.27 1379.69 1283.73 z"/><path transform="translate(0,0)" fill="rgb(254,194,28)" d="M 1059.69 1412.41 C 1070.68 1410.93 1085.76 1411.1 1093.02 1420.28 C 1108.18 1439.46 1104.06 1457.71 1088.2 1472.97 C 1096.84 1483.8 1105.69 1497.77 1112.99 1509.54 L 1087.38 1512.35 L 1080.2 1500.44 C 1074.8 1492.37 1069.51 1483.06 1064.49 1474.65 C 1066.04 1487.86 1067.08 1499.85 1068.14 1513.14 C 1061.34 1514.11 1053.17 1514.04 1046.19 1514.18 C 1045.3 1484.85 1040.63 1445.67 1038.79 1414.59 L 1059.69 1412.41 z"/><path transform="translate(0,0)" fill="rgb(0,38,93)" d="M 1062.51 1433.22 C 1078.8 1431.74 1084.59 1445.41 1074.57 1456.42 C 1071.16 1457.9 1069.73 1458.89 1066.02 1458.58 C 1060.39 1455.16 1060.05 1437.72 1062.51 1433.22 z"/><path transform="translate(0,0)" fill="rgb(254,194,28)" d="M 1331.67 1300.81 C 1334.19 1302.11 1368.05 1355.14 1371.02 1360.98 C 1387.31 1392.97 1337.51 1433.62 1311.33 1400.23 C 1299.38 1384.98 1288.32 1368.8 1277.07 1352.92 L 1271.01 1342.91 C 1277.22 1338.53 1284.63 1334.22 1291.19 1330.21 C 1298.55 1341.27 1324.55 1386.14 1335.79 1389.38 C 1338.04 1390.03 1340.1 1389.74 1342.22 1388.77 C 1346.04 1387.02 1350.21 1383.68 1351.35 1379.46 C 1354.09 1369.34 1319.39 1324.7 1312.37 1313.86 C 1318.27 1309.57 1325.54 1304.94 1331.67 1300.81 z"/><path transform="translate(0,0)" fill="rgb(254,194,28)" d="M 661.295 1251.77 C 674.137 1255.37 693.343 1282.8 693.931 1296.95 C 694.27 1306.44 690.797 1315.66 684.287 1322.57 C 678.344 1328.92 670.035 1332.53 661.337 1332.53 C 646.242 1332.45 637.635 1322.93 628.058 1313.14 L 608.779 1332.21 C 602.007 1325.86 598.111 1321.01 593.129 1313.34 C 607.867 1298.72 645.223 1264.07 661.295 1251.77 z"/><path transform="translate(0,0)" fill="rgb(0,38,93)" d="M 662.289 1282.67 C 675.478 1288.13 673.267 1306.59 656.131 1309.23 C 650.887 1306.31 648.225 1303.43 644.728 1298.73 C 651.087 1292.22 655.255 1288.45 662.289 1282.67 z"/><path transform="translate(0,0)" fill="rgb(254,194,28)" d="M 725.975 1309.71 C 732.728 1311.05 743.743 1321.06 749.345 1325.79 C 737.888 1358.72 725.185 1390.25 712.917 1422.85 C 707.056 1418.41 699.756 1413.58 693.645 1409.29 L 699.565 1393.32 C 700.273 1388.38 686.93 1380.11 683.214 1377.37 C 678.339 1381.7 674.148 1385.63 668.718 1389.27 C 663.676 1384.96 658.102 1379.22 653.283 1374.49 C 659.709 1369.39 668.576 1360.44 675.032 1354.63 C 691.853 1339.48 708.835 1324.5 725.975 1309.71 z"/><path transform="translate(0,0)" fill="rgb(0,38,93)" d="M 723.735 1340.03 C 723.36 1343.93 711.752 1369.51 708.655 1371.58 L 705.063 1369.4 C 702.154 1366.9 701.22 1366.8 699.985 1363.54 C 704.991 1356.7 716.969 1346.15 723.735 1340.03 z"/><path transform="translate(0,0)" fill="rgb(254,194,28)" d="M 887.839 1393.78 C 888.673 1393.79 889.505 1393.82 890.337 1393.87 C 902.763 1394.59 925.894 1399 934.522 1409.23 C 947.083 1424.13 942.317 1450.87 926.848 1462.3 C 915.734 1470.51 909.353 1468.24 896.967 1466.24 L 895.645 1468.23 C 893.164 1478.15 890.632 1488.06 888.049 1497.96 C 880.388 1496.09 874.05 1494.39 866.533 1492.05 C 874.959 1459.04 880.473 1426.77 887.839 1393.78 z"/><path transform="translate(0,0)" fill="rgb(0,38,93)" d="M 905.644 1418.12 C 921.4 1421.92 922.394 1435.23 911.453 1445.39 C 906.664 1446.24 905.013 1446.58 901.411 1444.07 C 898.631 1437.28 903.391 1425.78 905.644 1418.12 z"/><path transform="translate(0,0)" fill="rgb(254,194,28)" d="M 1243.09 1356.12 C 1248.18 1355.91 1251.48 1355.82 1256.44 1357.27 C 1264.78 1359.71 1271.79 1365.4 1275.91 1373.05 C 1289.23 1397.3 1277.87 1414.68 1256.1 1426.37 C 1260.53 1434.41 1264.86 1442.51 1269.08 1450.66 C 1265.35 1452.83 1261.13 1454.95 1257.29 1456.99 C 1254.33 1458.44 1251.56 1460.1 1248.65 1459.17 C 1242.76 1450.16 1233.66 1430.44 1228.74 1420.17 C 1222.08 1406.27 1212.04 1387.35 1206.82 1373.24 C 1216.45 1366.67 1231.64 1358.64 1243.09 1356.12 z"/><path transform="translate(0,0)" fill="rgb(0,38,93)" d="M 1243.6 1379.01 C 1259.18 1380.33 1264.36 1396.99 1249.64 1406.05 L 1247.71 1405.72 C 1242.79 1400.52 1237.63 1390.89 1237.2 1383.34 C 1239.15 1380.09 1239.28 1380.89 1243.6 1379.01 z"/><path transform="translate(0,0)" fill="rgb(254,194,28)" d="M 840.266 1376.27 L 842.012 1376.41 C 853.415 1377.47 873.388 1384.5 871.605 1399.5 C 870.819 1406.11 863.823 1410.47 858.752 1414.1 C 857.986 1412.4 857.143 1410.54 856.225 1408.92 C 853.598 1404.26 849.12 1400.94 843.902 1399.76 C 840.382 1398.97 839.83 1399.63 837.369 1401.11 C 833.079 1408.7 841.815 1419.83 847.128 1424.61 C 862.763 1438.69 863.482 1461.39 847.618 1475.68 C 840.394 1482.19 833.387 1483.07 823.71 1482.34 C 808.296 1477.97 798.234 1471.91 791.67 1456.71 L 806.668 1442.79 C 827.218 1476.07 847.237 1456.63 826.518 1435.53 C 805.792 1414.41 811.12 1381.65 840.266 1376.27 z"/><path transform="translate(0,0)" fill="rgb(254,194,28)" d="M 774.143 1350.11 C 795.507 1349.11 805.521 1355.66 813.43 1375.34 L 798.252 1388.57 C 794.729 1379.56 786.332 1365.21 775.332 1375.26 C 770.509 1386 793.525 1403.2 793.883 1417.48 C 794.363 1436.59 783.863 1450.78 764.291 1452.47 C 745.506 1448.76 733.08 1441.45 728.053 1422.09 C 732.506 1418.28 738.671 1413.84 743.433 1410.21 C 748.483 1420.74 754.155 1432.17 767.716 1429.2 C 774.544 1423.71 766.509 1412.1 762.593 1406.44 C 747.542 1384.67 746.921 1361.45 774.143 1350.11 z"/><path transform="translate(0,0)" fill="rgb(254,194,28)" d="M 1485.09 1103.52 C 1488.61 1107.03 1495.32 1130.26 1497.5 1136.55 C 1508.3 1137.81 1517.33 1138.82 1528.01 1141.01 C 1522.96 1147.12 1512.27 1154.86 1505.54 1161.15 C 1507.6 1171.03 1509.37 1180.32 1510.45 1190.37 C 1501.13 1185.69 1491.99 1180.45 1482.55 1175.68 C 1473.53 1180.87 1464.45 1185.95 1455.31 1190.92 C 1455.99 1182.87 1459.02 1169.24 1460.53 1160.7 C 1453.36 1154.31 1444.66 1147 1438.39 1139.91 C 1444.48 1138.71 1468.95 1137.47 1471.67 1132.66 C 1476.58 1123.96 1479.36 1112.39 1485.09 1103.52 z"/><path transform="translate(0,0)" fill="rgb(254,194,28)" d="M 1163.87 1394.28 C 1167.16 1396.38 1170.61 1410.41 1172.07 1415.2 C 1167.02 1417.46 1160.24 1419.33 1154.86 1421.02 C 1159.51 1442.87 1169.08 1472.75 1175.67 1494.71 C 1168.04 1496.55 1160.89 1498.55 1153.34 1500.71 L 1148.87 1484.21 C 1143.38 1464.63 1138.06 1444.78 1131.25 1425.64 C 1125.19 1426.49 1118.26 1427.86 1112.15 1428.91 C 1110.15 1421.99 1108.86 1414.1 1107.52 1406.95 C 1126.35 1402.96 1145.14 1398.73 1163.87 1394.28 z"/><path transform="translate(0,0)" fill="rgb(254,194,28)" d="M 593.844 1104.47 L 595.109 1105.09 C 599.279 1111.03 604.433 1128.49 606.86 1136.17 C 617.049 1137.94 627.286 1138.59 637.062 1141.85 C 630.422 1149.7 622.866 1154.75 614.608 1160.69 C 616.667 1170.33 618.322 1180.61 620.367 1190.45 C 610.953 1186.22 603.067 1179.71 592.754 1175.02 C 584.797 1178.76 572.069 1186.53 563.706 1191 C 566.074 1180.69 568.319 1170.36 570.44 1160 C 562.842 1153.35 555.772 1147.37 549.081 1139.76 C 560.251 1137.62 569.56 1136.66 580.783 1135.72 C 585.283 1125.37 589.637 1114.95 593.844 1104.47 z"/><path transform="translate(0,0)" fill="rgb(254,194,28)" d="M 613.93 673.444 C 619.179 677.916 624.874 697.841 628.039 705.747 C 639.074 706.269 650.058 707.57 660.91 709.642 C 653.18 718.014 644.857 723.079 636.286 730.5 C 638.139 740.719 639.559 749.025 640.384 759.41 C 632.227 755.313 623.056 749.516 615.117 744.767 C 610.637 743.856 593.768 755.029 587.316 758.382 C 588.666 749.115 591.074 739.312 593.129 730.12 C 586.26 722.468 577.621 716.924 569.902 708.38 C 580.538 707.379 591.188 706.53 601.848 705.832 C 605.936 695.059 609.964 684.263 613.93 673.444 z"/><path transform="translate(0,0)" fill="rgb(254,194,28)" d="M 1428.14 673.58 C 1431.57 678.172 1437.85 698.887 1439.98 705.377 C 1451.04 706.273 1458.63 707.064 1469.27 710.094 C 1462.14 717.605 1455.24 723.016 1447.27 729.532 C 1449.73 738.485 1451.1 749.033 1452.57 758.304 C 1443.73 754.13 1434.78 748.383 1425.62 743.789 C 1416.07 749.521 1409.26 753.397 1399.17 758.352 C 1400.63 749.315 1403.87 738.03 1406.2 728.986 C 1398.97 721.479 1391.69 717.59 1384.29 708.767 C 1394.5 706.412 1403.64 706.078 1414.05 705.861 C 1419.3 695.207 1421.53 684.854 1428.14 673.58 z"/><path transform="translate(0,0)" fill="rgb(1,45,117)" d="M 459.254 1211.9 L 461.23 1212.24 C 466.689 1218.73 476.851 1243.39 481.4 1252.27 C 563.05 1411.64 693.436 1518.4 866.766 1561.2 C 864.449 1568.8 864.696 1575.76 860.43 1581.07 C 856.145 1582.38 856.397 1581.56 851.245 1580.25 C 821.213 1572.29 789.918 1562.47 761.336 1550.2 C 618.848 1489.03 500.308 1364.25 442.964 1220.63 C 447.248 1217.82 454.512 1214.33 459.254 1211.9 z"/><path transform="translate(0,0)" fill="rgb(1,45,117)" d="M 1599.23 1169.11 C 1602.56 1169.84 1616.11 1173.66 1617.91 1175.87 C 1617.95 1179.84 1617.22 1182.26 1615.91 1186.07 C 1560.85 1342.34 1446.03 1470.37 1296.65 1542.05 L 1290.29 1545.27 L 1281.14 1525.27 C 1397.49 1470.63 1493.14 1379.98 1553.96 1266.74 C 1562.83 1250.33 1571.03 1233.82 1578.93 1216.93 C 1585.92 1202.03 1591.31 1183.2 1599.23 1169.11 z"/><path transform="translate(0,0)" fill="rgb(1,45,117)" d="M 883.009 1565.35 C 898.074 1566.27 922.813 1571.86 939.898 1573.75 C 995.267 1579.98 1051.17 1579.89 1106.51 1573.48 C 1116.28 1572.33 1132.98 1570.44 1142.08 1567.78 C 1142.95 1572.99 1146.06 1584.86 1145.49 1589.32 L 1143.76 1590.25 C 1076 1605.31 944.79 1603.89 878.26 1585.45 L 883.009 1565.35 z"/><path transform="translate(0,0)" fill="rgb(1,45,117)" d="M 414.294 1068.41 L 416.351 1069.06 C 417.051 1070.36 428.899 1124 430.729 1130.81 C 436.838 1153.54 445.172 1174.86 454.854 1196.29 C 448.675 1198.82 442.521 1201.42 436.393 1204.08 L 434.943 1203.75 C 431.312 1200.13 427.183 1187.91 425.284 1182.76 C 411.608 1146.5 401.709 1108.92 395.744 1070.63 L 414.294 1068.41 z"/><path transform="translate(0,0)" fill="rgb(1,45,117)" d="M 1262.55 1534.05 C 1265.17 1534.46 1271 1549.83 1272.77 1553.48 C 1261.04 1557.52 1249.54 1562.28 1237.66 1566.24 C 1214.53 1573.84 1191.05 1580.34 1167.29 1585.71 C 1164.71 1585.95 1165.94 1586.06 1163.62 1585.06 C 1161 1580.54 1160.15 1571.55 1157.61 1565.45 C 1196.68 1557.13 1225.5 1547.71 1262.55 1534.05 z"/><path transform="translate(0,0)" fill="rgb(1,45,117)" d="M 343.37 946.153 C 351.82 945.862 360.277 945.834 368.729 946.07 C 367.262 960.92 367.793 977.311 368.137 992.285 C 368.291 998.976 369.43 1006.64 369.25 1013.09 L 366.511 1014.53 C 357.7 1015.71 353.311 1016.02 344.423 1016.07 C 339.765 1000.84 338.815 960.778 343.37 946.153 z"/><path transform="translate(0,0)" fill="rgb(1,45,117)" d="M 367.622 825.778 C 375.709 826.869 383.811 827.846 391.926 828.71 C 387.896 841.14 385.248 855.25 382.472 868.041 C 380.973 874.948 379.323 887.325 376.745 893.278 C 367.496 892.334 361.135 892.012 351.833 891.946 C 356.149 875.032 358.102 839.713 367.622 825.778 z"/><path transform="translate(0,0)" fill="rgb(1,45,117)" d="M 1622.1 1075.32 C 1630.54 1077.1 1636 1077.65 1644.56 1078.23 C 1638.53 1105.32 1635.04 1126.9 1625.57 1153.63 C 1623.18 1154.18 1610.64 1150 1605.07 1149.26 C 1606.43 1142.46 1609.56 1132.69 1611.42 1125.47 C 1615.87 1108.28 1619.41 1092.84 1622.1 1075.32 z"/><path transform="translate(0,0)" fill="rgb(1,45,117)" d="M 1630.01 956.132 C 1638.43 955.657 1643.48 955.58 1651.87 956.029 C 1652.54 976.004 1653.9 1001.09 1649.54 1020.48 C 1642.34 1020.02 1634.47 1019.91 1627.21 1019.67 C 1630.21 1000.45 1630.06 975.347 1630.01 956.132 z"/><path transform="translate(0,0)" fill="rgb(1,45,117)" d="M 388.61 948.196 C 395.993 948.533 403.368 949.009 410.733 949.622 C 408.158 975.316 407.844 980.758 409.444 1006.29 L 409.899 1010.6 C 406.178 1014.33 390.696 1013.3 386.919 1010 L 386.266 1007.08 C 386.021 986.452 384.748 968.514 388.61 948.196 z"/><path transform="translate(0,0)" fill="rgb(0,38,93)" d="M 409.444 1006.29 L 409.899 1010.6 C 406.178 1014.33 390.696 1013.3 386.919 1010 L 386.266 1007.08 L 387.345 1007.86 C 392.103 1008.02 406.351 1009.15 409.444 1006.29 z"/><path transform="translate(0,0)" fill="rgb(1,45,117)" d="M 412.888 831.648 C 418.288 832.382 428.139 835.317 433.77 836.83 C 427.884 857.256 423.589 873.61 419.194 894.436 C 412.261 893.191 404.389 892.42 397.319 891.576 C 398.938 879.873 407.706 841.519 412.888 831.648 z"/></svg>