<svg version="1.1" xmlns="http://www.w3.org/2000/svg" style="display: block;" viewBox="0 0 2048 2048" width="1024" height="1024" preserveAspectRatio="none"><defs><linearGradient id="Gradient1" gradientUnits="userSpaceOnUse" x1="331.648" y1="1286.48" x2="345.679" y2="1237.93"><stop class="stop0" offset="0" stop-opacity="1" stop-color="rgb(247,168,67)"/><stop class="stop1" offset="1" stop-opacity="1" stop-color="rgb(255,241,139)"/></linearGradient><linearGradient id="Gradient2" gradientUnits="userSpaceOnUse" x1="412.548" y1="1264.7" x2="416.98" y2="1228.49"><stop class="stop0" offset="0" stop-opacity="1" stop-color="rgb(209,139,54)"/><stop class="stop1" offset="1" stop-opacity="1" stop-color="rgb(241,165,64)"/></linearGradient><linearGradient id="Gradient3" gradientUnits="userSpaceOnUse" x1="300.494" y1="1239.49" x2="276.73" y2="1188.3"><stop class="stop0" offset="0" stop-opacity="1" stop-color="rgb(227,155,59)"/><stop class="stop1" offset="1" stop-opacity="1" stop-color="rgb(255,203,86)"/></linearGradient><linearGradient id="Gradient4" gradientUnits="userSpaceOnUse" x1="953.705" y1="1072.59" x2="893.615" y2="975.065"><stop class="stop0" offset="0" stop-opacity="1" stop-color="rgb(180,188,196)"/><stop class="stop1" offset="1" stop-opacity="1" stop-color="rgb(198,214,215)"/></linearGradient><linearGradient id="Gradient5" gradientUnits="userSpaceOnUse" x1="929.945" y1="935.732" x2="355.722" y2="591.055"><stop class="stop0" offset="0" stop-opacity="1" stop-color="rgb(188,205,211)"/><stop class="stop1" offset="1" stop-opacity="1" stop-color="rgb(247,250,251)"/></linearGradient><linearGradient id="Gradient6" gradientUnits="userSpaceOnUse" x1="523.885" y1="1523.05" x2="444.884" y2="1516.15"><stop class="stop0" offset="0" stop-opacity="1" stop-color="rgb(113,64,40)"/><stop class="stop1" offset="1" stop-opacity="1" stop-color="rgb(144,88,51)"/></linearGradient><linearGradient id="Gradient7" gradientUnits="userSpaceOnUse" x1="282.498" y1="969.354" x2="280.249" y2="1049.69"><stop class="stop0" offset="0" stop-opacity="1" stop-color="rgb(118,69,42)"/><stop class="stop1" offset="1" stop-opacity="1" stop-color="rgb(165,102,59)"/></linearGradient><linearGradient id="Gradient8" gradientUnits="userSpaceOnUse" x1="1029.27" y1="1661.67" x2="1020.58" y2="1737.67"><stop class="stop0" offset="0" stop-opacity="1" stop-color="rgb(11,8,7)"/><stop class="stop1" offset="1" stop-opacity="1" stop-color="rgb(44,40,39)"/></linearGradient><linearGradient id="Gradient9" gradientUnits="userSpaceOnUse" x1="1317.81" y1="1554.63" x2="1382.58" y2="1576.17"><stop class="stop0" offset="0" stop-opacity="1" stop-color="rgb(98,56,34)"/><stop class="stop1" offset="1" stop-opacity="1" stop-color="rgb(129,76,44)"/></linearGradient><linearGradient id="Gradient10" gradientUnits="userSpaceOnUse" x1="852.812" y1="1583.59" x2="902.124" y2="1580.41"><stop class="stop0" offset="0" stop-opacity="1" stop-color="rgb(115,67,40)"/><stop class="stop1" offset="1" stop-opacity="1" stop-color="rgb(150,90,52)"/></linearGradient><linearGradient id="Gradient11" gradientUnits="userSpaceOnUse" x1="1488.91" y1="1627.61" x2="1173.84" y2="1348.74"><stop class="stop0" offset="0" stop-opacity="1" stop-color="rgb(209,147,82)"/><stop class="stop1" offset="1" stop-opacity="1" stop-color="rgb(237,191,130)"/></linearGradient><linearGradient id="Gradient12" gradientUnits="userSpaceOnUse" x1="101.956" y1="1184.47" x2="442.185" y2="1443.44"><stop class="stop0" offset="0" stop-opacity="1" stop-color="rgb(193,120,64)"/><stop class="stop1" offset="1" stop-opacity="1" stop-color="rgb(251,216,153)"/></linearGradient><linearGradient id="Gradient13" gradientUnits="userSpaceOnUse" x1="989.276" y1="936.404" x2="1071.87" y2="1531.76"><stop class="stop0" offset="0" stop-opacity="1" stop-color="rgb(140,83,49)"/><stop class="stop1" offset="1" stop-opacity="1" stop-color="rgb(166,105,61)"/></linearGradient></defs><path transform="translate(0,0)" fill="url(#Gradient13)" d="M 444.701 407.729 C 447.785 394.847 452.073 380.899 460.754 370.627 C 493.698 331.644 575.081 320.834 622.677 315.017 C 695.415 306.128 869.776 308.802 926.471 355.15 C 950.954 370.657 959.016 394.024 962.69 421.402 C 965.974 445.87 968.901 470.369 971.885 494.871 L 990.575 648.432 L 1005.44 772.774 C 1007.87 791.967 1013.72 829.928 1014.23 848.091 C 1035.34 848.002 1055.13 848.372 1076.18 849.798 C 1084.63 850.371 1093.85 849.936 1102.2 851.098 C 1105.55 851.178 1109.37 851.172 1112.67 851.377 C 1329.33 859.404 1698.65 894.807 1877.29 1020.7 C 1880.37 1022.76 1885.52 1025.98 1888.11 1028.33 C 1933.02 1058.33 1978.52 1110.08 1989.34 1163.64 C 1995.5 1194.36 1994.89 1225.35 1991.11 1256.38 C 1987.95 1282.41 1990.04 1310.89 1986.03 1336.9 C 1978.57 1385.19 1942.99 1429.44 1906.67 1460.39 C 1902.6 1463.85 1897.71 1468.15 1893.29 1470.87 C 1882.47 1480.79 1863.21 1493.19 1850.67 1500.89 C 1802.87 1529.87 1752.44 1554.25 1700.04 1573.72 C 1694.6 1575.78 1673.15 1584.02 1668.13 1584.86 C 1643.5 1595.18 1599.21 1608.09 1573.19 1615.06 C 1481.6 1638.96 1388.42 1656.26 1294.35 1666.82 C 1269.62 1669.63 1244.85 1672.16 1220.05 1674.41 C 1206.16 1675.67 1187.65 1676.78 1174.17 1678.93 C 1174.37 1695.08 1176.4 1713.35 1167.19 1726.88 C 1120.61 1746.36 929.882 1740.04 883.216 1720.31 C 877.297 1709.59 875.808 1692.17 878.674 1680.92 C 875.605 1677.06 846.379 1675.85 839.445 1675.22 C 817.762 1673.22 796.115 1670.84 774.512 1668.1 C 617.847 1648.68 453.328 1610.52 308.172 1548.18 C 222.435 1511.37 107.902 1447.24 71.5829 1356.35 C 67.9929 1347.49 65.3187 1338.28 63.602 1328.87 C 58.8285 1303.56 57.6506 1274.92 55.9348 1249.16 C 53.0647 1206.08 49.7591 1159.08 69.011 1118.84 C 113.982 1025.44 219.618 976.6 310.911 939.982 C 337.279 929.406 365.202 923.434 390.417 913.389 L 391.691 912.875 C 394.593 895.363 396.849 867.468 398.572 849.351 C 401.59 829.631 402.766 807.498 405.446 787.24 C 407.549 750.93 414.16 712.232 416.367 675.835 C 418.196 666.51 417.834 657.445 420.014 648.382 C 420.621 625.014 425.81 586.131 428.287 561.936 C 433.478 510.504 438.95 459.101 444.701 407.729 z"/><path transform="translate(0,0)" fill="rgb(83,47,27)" d="M 391.691 912.875 C 394.593 895.363 396.849 867.468 398.572 849.351 C 399.136 869.543 398.735 884.163 395.334 904.447 C 385.994 960.16 380.876 1018.31 375.701 1074.66 C 375.097 1071.49 374.671 1070.26 373.682 1067.24 C 374.73 1058.12 375.96 1048.9 376.228 1039.73 L 375.824 1040.75 C 374.551 1044.02 374.128 1044.69 373.964 1048.29 C 369.549 1053.04 335.968 1053.3 327.995 1053.05 C 326.944 1050.09 322.988 1039.4 322.674 1036.51 C 322.245 1032.55 323.708 1037.1 322.611 1034.09 C 285.011 1033.47 245.345 1039.99 207.199 1037.02 C 197.882 1036.3 186.563 1037.19 177.506 1035.17 C 169.559 1040.86 162.73 1046.15 155.125 1052.21 C 120.19 1077.36 85.292 1127.21 78.2493 1170.65 C 77.7649 1173.69 77.3883 1176.75 77.1203 1179.82 C 77.2352 1186.89 77.5388 1193.96 78.0311 1201.01 L 80.8253 1202.28 C 81.3681 1205.6 81.6327 1206.29 82.68 1209.37 C 86.4797 1209.79 117.528 1206.42 123.565 1205.87 C 149.363 1203.43 175.186 1201.26 201.03 1199.36 C 213.247 1198.39 228.25 1196.68 240.209 1196.31 C 229.811 1206.22 222.33 1218.4 222.125 1233.28 C 222.114 1234.64 222.147 1236 222.224 1237.36 C 232.661 1263.3 249.473 1263.72 273.456 1268.37 C 288.285 1315.25 338.994 1317.61 380.002 1310.06 L 382.028 1309.69 C 393.926 1302.83 398.154 1293.91 402.754 1281.9 C 425.721 1285.76 442.104 1283.27 461.666 1270.95 C 502.968 1270.67 546.604 1266.4 588.063 1264.56 C 655.996 1262.03 723.973 1260.84 791.954 1260.98 C 846.927 1260.98 909.947 1260.97 964.834 1266.41 C 960.071 1275.35 958.874 1279.4 956.183 1289.06 C 948.345 1305.25 938.857 1322.1 943.164 1340.81 C 950.384 1355.47 958.79 1361.2 974.412 1366.29 C 997.553 1373.85 1025.77 1375.37 1050.3 1377.94 L 1124.21 1385.99 L 1454.77 1421.05 C 1484.79 1423.93 1514.8 1428.05 1544.86 1430.71 C 1548.8 1431.06 1554.62 1431.9 1558.44 1431.8 C 1571.42 1432.67 1582.07 1433.38 1595.17 1432.68 C 1598.47 1435.32 1607.66 1431.97 1612.82 1434.52 C 1621.53 1432.42 1628.4 1428.54 1637.01 1426.51 C 1674.05 1415.23 1710.21 1400.58 1746.5 1387.71 C 1738.14 1397.1 1646.88 1422.35 1630.31 1430.41 C 1625.63 1432.69 1617.81 1434.13 1614.56 1439.68 C 1611.57 1444.77 1613.56 1448.89 1607.59 1451.06 L 1606.67 1453.13 C 1607.46 1456.77 1606.48 1455.65 1608.75 1457.48 C 1614.03 1454.69 1619.51 1455.43 1625.67 1453.79 C 1637.68 1450.6 1652.01 1448 1663.66 1444.07 C 1716.25 1426.32 1769.3 1402.99 1817.73 1375.78 C 1826.46 1370.81 1835.88 1366.85 1843.87 1360.73 C 1859.17 1349.01 1879.26 1338.51 1892.76 1324.68 L 1894.27 1325.74 C 1922.46 1304.4 1945.22 1274.12 1960.4 1242.36 C 1967.85 1223.56 1970.52 1212.1 1969.62 1191.75 C 1969.51 1191.3 1969.35 1187.78 1969.3 1187.07 C 1968.93 1181.77 1968.02 1175.81 1967.25 1170.51 C 1946.35 1104.09 1890 1051.91 1829.88 1019.16 C 1816.23 1010.76 1806.06 1005.15 1791.1 998.632 C 1782.3 993.148 1768.35 988.096 1758.61 983.833 C 1718.12 966.118 1675.97 951.902 1633.19 940.88 C 1622 937.997 1604.4 932.926 1593.02 931.535 C 1571.43 926.209 1529.15 918.606 1507.37 914.925 C 1384.9 890.515 1259.73 881.069 1135.28 872.974 C 1096.24 870.434 1057.97 868.101 1018.82 867.964 C 1017.43 860.908 1017.92 859.354 1014.61 852.76 C 1027.97 849.079 1093.4 856.166 1102.39 852.594 L 1102.2 851.098 C 1105.55 851.178 1109.37 851.172 1112.67 851.377 C 1329.33 859.404 1698.65 894.807 1877.29 1020.7 C 1880.37 1022.76 1885.52 1025.98 1888.11 1028.33 C 1933.02 1058.33 1978.52 1110.08 1989.34 1163.64 C 1995.5 1194.36 1994.89 1225.35 1991.11 1256.38 C 1987.95 1282.41 1990.04 1310.89 1986.03 1336.9 C 1978.57 1385.19 1942.99 1429.44 1906.67 1460.39 C 1902.6 1463.85 1897.71 1468.15 1893.29 1470.87 C 1882.47 1480.79 1863.21 1493.19 1850.67 1500.89 C 1802.87 1529.87 1752.44 1554.25 1700.04 1573.72 C 1694.6 1575.78 1673.15 1584.02 1668.13 1584.86 C 1643.5 1595.18 1599.21 1608.09 1573.19 1615.06 C 1481.6 1638.96 1388.42 1656.26 1294.35 1666.82 C 1269.62 1669.63 1244.85 1672.16 1220.05 1674.41 C 1206.16 1675.67 1187.65 1676.78 1174.17 1678.93 C 1174.37 1695.08 1176.4 1713.35 1167.19 1726.88 C 1120.61 1746.36 929.882 1740.04 883.216 1720.31 C 877.297 1709.59 875.808 1692.17 878.674 1680.92 C 875.605 1677.06 846.379 1675.85 839.445 1675.22 C 817.762 1673.22 796.115 1670.84 774.512 1668.1 C 617.847 1648.68 453.328 1610.52 308.172 1548.18 C 222.435 1511.37 107.902 1447.24 71.5829 1356.35 C 67.9929 1347.49 65.3187 1338.28 63.602 1328.87 C 58.8285 1303.56 57.6506 1274.92 55.9348 1249.16 C 53.0647 1206.08 49.7591 1159.08 69.011 1118.84 C 113.982 1025.44 219.618 976.6 310.911 939.982 C 337.279 929.406 365.202 923.434 390.417 913.389 L 391.691 912.875 z"/><path transform="translate(0,0)" fill="rgb(203,137,81)" d="M 80.8253 1202.28 C 81.3681 1205.6 81.6327 1206.29 82.68 1209.37 C 86.4797 1209.79 117.528 1206.42 123.565 1205.87 C 149.363 1203.43 175.186 1201.26 201.03 1199.36 C 213.247 1198.39 228.25 1196.68 240.209 1196.31 C 229.811 1206.22 222.33 1218.4 222.125 1233.28 C 222.114 1234.64 222.147 1236 222.224 1237.36 C 232.661 1263.3 249.473 1263.72 273.456 1268.37 C 288.285 1315.25 338.994 1317.61 380.002 1310.06 L 382.028 1309.69 C 393.926 1302.83 398.154 1293.91 402.754 1281.9 C 425.721 1285.76 442.104 1283.27 461.666 1270.95 C 502.968 1270.67 546.604 1266.4 588.063 1264.56 C 655.996 1262.03 723.973 1260.84 791.954 1260.98 C 846.927 1260.98 909.947 1260.97 964.834 1266.41 C 960.071 1275.35 958.874 1279.4 956.183 1289.06 C 948.345 1305.25 938.857 1322.1 943.164 1340.81 C 926.371 1337.83 877.78 1348.57 859.892 1352.18 C 874.785 1357.24 890.499 1360.55 905.942 1363.47 C 927.833 1367.63 1017.3 1378.74 1027.61 1399.15 C 1028.86 1401.61 1029.04 1404.23 1027.95 1406.79 C 1024.9 1413.99 1014.93 1417.9 1008.04 1420.29 C 971.974 1432.78 932.419 1438.91 894.839 1445.01 C 846.526 1453.02 798.004 1459.7 749.327 1465.07 L 675.948 1473.04 C 671.421 1473.51 654.875 1473.03 652.637 1474.61 C 633.596 1472.17 609.816 1467.38 590.78 1463.69 C 541.332 1454.34 492.365 1442.61 444.053 1428.52 C 443.862 1429.7 441.594 1436.51 441.834 1434.23 C 441.023 1441.91 442.569 1446.32 435.292 1451.13 C 433.082 1450.31 428.488 1449.22 426.03 1448.56 C 404.868 1439.72 379.732 1433.11 357.813 1424.85 C 264.822 1389.81 93.9174 1311.37 78.0311 1201.01 L 80.8253 1202.28 z"/><path transform="translate(0,0)" fill="rgb(154,100,65)" d="M 80.8253 1202.28 C 81.3681 1205.6 81.6327 1206.29 82.68 1209.37 C 86.4797 1209.79 117.528 1206.42 123.565 1205.87 C 149.363 1203.43 175.186 1201.26 201.03 1199.36 C 213.247 1198.39 228.25 1196.68 240.209 1196.31 C 229.811 1206.22 222.33 1218.4 222.125 1233.28 C 222.114 1234.64 222.147 1236 222.224 1237.36 C 232.661 1263.3 249.473 1263.72 273.456 1268.37 C 288.285 1315.25 338.994 1317.61 380.002 1310.06 L 382.028 1309.69 C 388.689 1312.44 576.259 1308.44 595.831 1308.19 C 640.416 1307.68 685.006 1307.85 729.587 1308.69 C 758.606 1309.12 811.456 1310.17 839.363 1314.94 C 788.56 1320.65 741.992 1322.1 691.501 1325.03 C 655.79 1327.44 620.094 1330.06 584.413 1332.88 C 565.73 1334.37 461.559 1338.01 461.037 1358.68 C 469.608 1373.18 529.661 1371.04 546.991 1371.26 L 615.999 1372.35 C 650.888 1373.07 888.255 1380.07 903.954 1396.67 C 903.81 1398.91 904.3 1398.29 902.801 1399.55 C 884.03 1415.32 548.595 1412.85 496.434 1412.96 C 485.436 1412.98 417.707 1411.9 413.484 1413.19 C 412.771 1413.41 412.42 1414.23 411.888 1414.76 L 410.956 1413.87 C 411.436 1417.24 413.104 1414.34 413.696 1418.31 C 422.465 1422.61 434.69 1425.08 444.053 1428.52 C 443.862 1429.7 441.594 1436.51 441.834 1434.23 C 441.023 1441.91 442.569 1446.32 435.292 1451.13 C 433.082 1450.31 428.488 1449.22 426.03 1448.56 C 404.868 1439.72 379.732 1433.11 357.813 1424.85 C 264.822 1389.81 93.9174 1311.37 78.0311 1201.01 L 80.8253 1202.28 z"/><path transform="translate(0,0)" fill="url(#Gradient12)" d="M 80.8253 1202.28 C 81.3681 1205.6 81.6327 1206.29 82.68 1209.37 C 86.4797 1209.79 117.528 1206.42 123.565 1205.87 C 149.363 1203.43 175.186 1201.26 201.03 1199.36 C 213.247 1198.39 228.25 1196.68 240.209 1196.31 C 229.811 1206.22 222.33 1218.4 222.125 1233.28 C 222.114 1234.64 222.147 1236 222.224 1237.36 L 221.312 1239.52 C 217.507 1240.3 211.4 1240.71 207.426 1240.84 C 179.431 1241.75 145.275 1251.37 117.938 1251.4 C 127.248 1263.98 132.573 1270.7 146.034 1278.85 C 159.07 1279.13 178.162 1279.09 190.984 1277.57 C 196.551 1281.18 205.697 1283.68 212.233 1284.68 C 218.726 1286.76 243.631 1290.84 239.816 1299.74 C 232.295 1305.58 189.943 1305.4 176.541 1306.78 C 183.661 1313.6 203.484 1325.36 212.404 1330.72 C 275.31 1368.73 343.004 1398.19 413.696 1418.31 C 422.465 1422.61 434.69 1425.08 444.053 1428.52 C 443.862 1429.7 441.594 1436.51 441.834 1434.23 C 441.023 1441.91 442.569 1446.32 435.292 1451.13 C 433.082 1450.31 428.488 1449.22 426.03 1448.56 C 404.868 1439.72 379.732 1433.11 357.813 1424.85 C 264.822 1389.81 93.9174 1311.37 78.0311 1201.01 L 80.8253 1202.28 z"/><path transform="translate(0,0)" fill="rgb(119,70,41)" d="M 210.182 1216.58 C 214.38 1216.12 219.349 1214.92 222.716 1217.05 L 222.406 1218.53 C 215.759 1221.64 172.525 1222.94 162.75 1223.15 C 159.107 1223.25 157.01 1223.04 153.36 1222.69 L 153.146 1221.98 C 166.088 1219.57 195.681 1217.95 210.182 1216.58 z"/><path transform="translate(0,0)" fill="rgb(188,120,69)" d="M 190.984 1277.57 C 196.7 1276.27 218.135 1277.37 222.373 1280.59 L 219.47 1282.33 L 219.9 1283.05 L 222.206 1283.54 C 215.895 1284.91 219.504 1281.57 212.233 1284.68 C 205.697 1283.68 196.551 1281.18 190.984 1277.57 z"/><path transform="translate(0,0)" fill="rgb(154,100,65)" d="M 1637.01 1426.51 C 1674.05 1415.23 1710.21 1400.58 1746.5 1387.71 C 1738.14 1397.1 1646.88 1422.35 1630.31 1430.41 C 1625.63 1432.69 1617.81 1434.13 1614.56 1439.68 C 1611.57 1444.77 1613.56 1448.89 1607.59 1451.06 L 1606.67 1453.13 C 1607.46 1456.77 1606.48 1455.65 1608.75 1457.48 C 1614.03 1454.69 1619.51 1455.43 1625.67 1453.79 C 1637.68 1450.6 1652.01 1448 1663.66 1444.07 C 1716.25 1426.32 1769.3 1402.99 1817.73 1375.78 C 1826.46 1370.81 1835.88 1366.85 1843.87 1360.73 C 1859.17 1349.01 1879.26 1338.51 1892.76 1324.68 L 1894.27 1325.74 C 1812 1396.36 1672.04 1447.51 1567.95 1475.32 C 1524.18 1487.02 1474.42 1496.67 1429.78 1505.42 C 1410.62 1508.34 1387.39 1511.5 1368.48 1515.24 C 1350.25 1516.45 1327.28 1520.42 1308.37 1522.32 L 1306.55 1522.38 C 1282.03 1523.38 1249.15 1528.09 1222.86 1529.85 C 1161.01 1534.07 1099.02 1535.88 1037.02 1535.28 C 1019.95 1535.16 980.052 1535.29 963.867 1533.27 C 945.836 1532.74 927.545 1531.49 909.443 1530.84 C 892.347 1528.85 872.373 1528.5 854.711 1526.9 C 834.453 1525.19 814.222 1523.17 794.028 1520.82 L 780.174 1519.64 C 777.11 1518.66 753.439 1516.24 748.722 1515.72 L 739.863 1514.54 C 715.672 1510.06 684.368 1507.11 658.497 1502.91 C 607.571 1494.46 556.991 1484.05 506.871 1471.69 C 482.849 1465.41 458.983 1458.56 435.292 1451.13 C 442.569 1446.32 441.023 1441.91 441.834 1434.23 C 441.594 1436.51 443.862 1429.7 444.053 1428.52 C 492.365 1442.61 541.332 1454.34 590.78 1463.69 C 609.816 1467.38 633.596 1472.17 652.637 1474.61 C 654.875 1473.03 671.421 1473.51 675.948 1473.04 L 749.327 1465.07 C 798.004 1459.7 846.526 1453.02 894.839 1445.01 C 932.419 1438.91 971.974 1432.78 1008.04 1420.29 C 1014.93 1417.9 1024.9 1413.99 1027.95 1406.79 C 1029.04 1404.23 1028.86 1401.61 1027.61 1399.15 C 1017.3 1378.74 927.833 1367.63 905.942 1363.47 C 890.499 1360.55 874.785 1357.24 859.892 1352.18 C 877.78 1348.57 926.371 1337.83 943.164 1340.81 C 950.384 1355.47 958.79 1361.2 974.412 1366.29 C 997.553 1373.85 1025.77 1375.37 1050.3 1377.94 L 1124.21 1385.99 L 1454.77 1421.05 C 1484.79 1423.93 1514.8 1428.05 1544.86 1430.71 C 1548.8 1431.06 1554.62 1431.9 1558.44 1431.8 C 1571.42 1432.67 1582.07 1433.38 1595.17 1432.68 C 1598.47 1435.32 1607.66 1431.97 1612.82 1434.52 C 1621.53 1432.42 1628.4 1428.54 1637.01 1426.51 z"/><path transform="translate(0,0)" fill="url(#Gradient11)" d="M 1637.01 1426.51 C 1674.05 1415.23 1710.21 1400.58 1746.5 1387.71 C 1738.14 1397.1 1646.88 1422.35 1630.31 1430.41 C 1625.63 1432.69 1617.81 1434.13 1614.56 1439.68 C 1611.57 1444.77 1613.56 1448.89 1607.59 1451.06 L 1606.67 1453.13 C 1607.46 1456.77 1606.48 1455.65 1608.75 1457.48 C 1614.03 1454.69 1619.51 1455.43 1625.67 1453.79 C 1637.68 1450.6 1652.01 1448 1663.66 1444.07 C 1716.25 1426.32 1769.3 1402.99 1817.73 1375.78 C 1826.46 1370.81 1835.88 1366.85 1843.87 1360.73 C 1859.17 1349.01 1879.26 1338.51 1892.76 1324.68 L 1894.27 1325.74 C 1812 1396.36 1672.04 1447.51 1567.95 1475.32 C 1524.18 1487.02 1474.42 1496.67 1429.78 1505.42 C 1410.62 1508.34 1387.39 1511.5 1368.48 1515.24 C 1350.25 1516.45 1327.28 1520.42 1308.37 1522.32 L 1306.55 1522.38 C 1282.03 1523.38 1249.15 1528.09 1222.86 1529.85 C 1161.01 1534.07 1099.02 1535.88 1037.02 1535.28 C 1019.95 1535.16 980.052 1535.29 963.867 1533.27 C 964.088 1533.23 964.308 1533.19 964.529 1533.16 C 973.602 1529.82 1014.24 1534.9 1020.57 1532.67 C 1025.75 1525.42 1030.14 1517.48 1032.76 1508.95 C 1017.45 1507.04 992.391 1509.66 978.387 1505.27 C 1117.97 1509.2 1257.63 1500.67 1395.7 1479.77 C 1470.12 1468.64 1540.31 1455.25 1612.82 1434.52 C 1621.53 1432.42 1628.4 1428.54 1637.01 1426.51 z"/><path transform="translate(0,0)" fill="rgb(253,221,157)" d="M 444.053 1428.52 C 492.365 1442.61 541.332 1454.34 590.78 1463.69 C 609.816 1467.38 633.596 1472.17 652.637 1474.61 C 689.181 1481.05 731.826 1485.62 768.738 1489.72 C 838.35 1498.07 908.305 1503.26 978.387 1505.27 C 992.391 1509.66 1017.45 1507.04 1032.76 1508.95 C 1030.14 1517.48 1025.75 1525.42 1020.57 1532.67 C 1014.24 1534.9 973.602 1529.82 964.529 1533.16 C 964.308 1533.19 964.088 1533.23 963.867 1533.27 C 945.836 1532.74 927.545 1531.49 909.443 1530.84 C 892.347 1528.85 872.373 1528.5 854.711 1526.9 C 834.453 1525.19 814.222 1523.17 794.028 1520.82 L 780.174 1519.64 C 777.11 1518.66 753.439 1516.24 748.722 1515.72 L 739.863 1514.54 C 715.672 1510.06 684.368 1507.11 658.497 1502.91 C 607.571 1494.46 556.991 1484.05 506.871 1471.69 C 482.849 1465.41 458.983 1458.56 435.292 1451.13 C 442.569 1446.32 441.023 1441.91 441.834 1434.23 C 441.594 1436.51 443.862 1429.7 444.053 1428.52 z"/><path transform="translate(0,0)" fill="rgb(119,70,41)" d="M 1308.37 1522.32 C 1327.28 1520.42 1350.25 1516.45 1368.48 1515.24 C 1371.33 1517.13 1371.99 1517.35 1375.33 1518.15 C 1378.58 1526.74 1371.56 1599.37 1371.5 1616.27 C 1362.58 1617.55 1350.4 1619.7 1341.68 1620.38 C 1305.58 1626.36 1263.48 1629.4 1227.09 1632.21 C 1150.86 1638.79 1074.37 1641.68 997.868 1640.88 C 973.022 1640.8 948.182 1640.17 923.364 1638.98 C 914.95 1638.58 900.045 1638.19 891.972 1637.11 C 885.129 1636.74 857.443 1635.54 852.365 1634.28 L 854.212 1634.05 L 855.253 1632.51 C 854.973 1615.41 857.797 1538.15 854.711 1526.9 C 872.373 1528.5 892.347 1528.85 909.443 1530.84 C 927.545 1531.49 945.836 1532.74 963.867 1533.27 C 980.052 1535.29 1019.95 1535.16 1037.02 1535.28 C 1099.02 1535.88 1161.01 1534.07 1222.86 1529.85 C 1249.15 1528.09 1282.03 1523.38 1306.55 1522.38 L 1308.37 1522.32 z"/><path transform="translate(0,0)" fill="url(#Gradient10)" d="M 854.711 1526.9 C 872.373 1528.5 892.347 1528.85 909.443 1530.84 L 902.094 1531.53 C 897.983 1537.62 900.604 1625.01 899.174 1636.28 C 899.082 1637.01 892.735 1637.11 891.972 1637.11 C 885.129 1636.74 857.443 1635.54 852.365 1634.28 L 854.212 1634.05 L 855.253 1632.51 C 854.973 1615.41 857.797 1538.15 854.711 1526.9 z"/><path transform="translate(0,0)" fill="url(#Gradient9)" d="M 1308.37 1522.32 C 1327.28 1520.42 1350.25 1516.45 1368.48 1515.24 C 1371.33 1517.13 1371.99 1517.35 1375.33 1518.15 C 1378.58 1526.74 1371.56 1599.37 1371.5 1616.27 C 1362.58 1617.55 1350.4 1619.7 1341.68 1620.38 C 1340.47 1618.48 1340.84 1617.92 1340.69 1615.29 C 1340.51 1607.35 1341.87 1599.72 1341.37 1591.43 L 1339.1 1590.85 C 1337.46 1584.2 1339.28 1569.61 1338.36 1562.8 C 1336.51 1549.1 1332.38 1536.61 1331.09 1522.59 C 1322.06 1521.9 1315.8 1524.68 1308.37 1522.32 z"/><path transform="translate(0,0)" fill="rgb(83,47,27)" d="M 1339.1 1590.85 L 1341.37 1591.43 C 1341.87 1599.72 1340.51 1607.35 1340.69 1615.29 C 1340.11 1616.27 1340.54 1615.91 1339.35 1616.27 C 1338.53 1609.42 1339 1598.08 1339.1 1590.85 z"/><path transform="translate(0,0)" fill="rgb(154,100,65)" d="M 506.871 1471.69 C 556.991 1484.05 607.571 1494.46 658.497 1502.91 C 684.368 1507.11 715.672 1510.06 739.863 1514.54 C 739.511 1519.7 739.546 1524.95 739.296 1530.14 C 737.916 1558.82 732.62 1587.32 732.201 1616.03 C 732.164 1618.56 733.304 1619.7 734.889 1621.45 C 658.713 1609.84 589.036 1599.46 513.654 1580.11 C 516.979 1579.92 518.139 1580.02 521.337 1578.86 C 521.784 1574.91 514.27 1556.78 513.075 1551.01 C 508.4 1528.48 501.297 1501.8 502.249 1478.86 C 502.445 1474.12 503.723 1474.13 506.871 1471.69 z"/><path transform="translate(0,0)" fill="url(#Gradient8)" d="M 882.405 1678.36 C 890.635 1676.3 947.007 1682.64 960.02 1682.92 C 1007.83 1683.77 1055.65 1683.25 1103.43 1681.37 C 1120.73 1680.65 1143.04 1680.16 1159.94 1678.45 C 1174.48 1676.26 1188.64 1673.96 1203.33 1672.74 C 1326.68 1662.63 1449.4 1644.79 1569.28 1613.62 C 1603 1604.85 1633.99 1593.64 1667.07 1583.68 L 1668.13 1584.86 C 1643.5 1595.18 1599.21 1608.09 1573.19 1615.06 C 1481.6 1638.96 1388.42 1656.26 1294.35 1666.82 C 1269.62 1669.63 1244.85 1672.16 1220.05 1674.41 C 1206.16 1675.67 1187.65 1676.78 1174.17 1678.93 C 1174.37 1695.08 1176.4 1713.35 1167.19 1726.88 C 1120.61 1746.36 929.882 1740.04 883.216 1720.31 C 877.297 1709.59 875.808 1692.17 878.674 1680.92 C 881.032 1680.36 880.187 1680.41 882.405 1678.36 z"/><path transform="translate(0,0)" fill="rgb(154,100,65)" d="M 739.863 1514.54 L 748.722 1515.72 C 753.439 1516.24 777.11 1518.66 780.174 1519.64 L 794.028 1520.82 C 814.222 1523.17 834.453 1525.19 854.711 1526.9 C 857.797 1538.15 854.973 1615.41 855.253 1632.51 L 854.212 1634.05 L 852.365 1634.28 C 833.859 1632.76 814.346 1631.14 796.028 1628.51 C 792.972 1628.76 784.495 1627.86 781.354 1627.29 C 766.382 1625.98 751.513 1623.55 736.617 1621.45 L 734.889 1621.45 C 733.304 1619.7 732.164 1618.56 732.201 1616.03 C 732.62 1587.32 737.916 1558.82 739.296 1530.14 C 739.546 1524.95 739.511 1519.7 739.863 1514.54 z"/><path transform="translate(0,0)" fill="rgb(154,100,65)" d="M 739.863 1514.54 L 748.722 1515.72 C 753.439 1516.24 777.11 1518.66 780.174 1519.64 C 781.242 1524.95 781.399 1529.97 781.64 1535.35 C 782.991 1565.47 785.401 1596.14 785.137 1626.3 C 782.947 1627.47 783.792 1627.24 781.354 1627.29 C 766.382 1625.98 751.513 1623.55 736.617 1621.45 L 734.889 1621.45 C 733.304 1619.7 732.164 1618.56 732.201 1616.03 C 732.62 1587.32 737.916 1558.82 739.296 1530.14 C 739.546 1524.95 739.511 1519.7 739.863 1514.54 z"/><path transform="translate(0,0)" fill="rgb(119,70,41)" d="M 739.863 1514.54 L 748.722 1515.72 C 739.908 1528.29 753.277 1603.58 750.102 1620.23 C 749.856 1621.52 738.96 1620.75 736.617 1621.45 L 734.889 1621.45 C 733.304 1619.7 732.164 1618.56 732.201 1616.03 C 732.62 1587.32 737.916 1558.82 739.296 1530.14 C 739.546 1524.95 739.511 1519.7 739.863 1514.54 z"/><path transform="translate(0,0)" fill="rgb(119,70,41)" d="M 780.174 1519.64 L 794.028 1520.82 C 789.284 1535.22 803.894 1606.82 800.724 1626.3 C 800.681 1626.57 797.137 1628.07 796.028 1628.51 C 792.972 1628.76 784.495 1627.86 781.354 1627.29 C 783.792 1627.24 782.947 1627.47 785.137 1626.3 C 785.401 1596.14 782.991 1565.47 781.64 1535.35 C 781.399 1529.97 781.242 1524.95 780.174 1519.64 z"/><path transform="translate(0,0)" fill="url(#Gradient7)" d="M 363.826 945.43 C 371.7 942.96 379.601 940.576 387.527 938.279 C 386.059 948.901 384.482 960.44 383.851 971.126 C 382.256 984.406 380.87 997.709 379.692 1011.03 C 379.071 1017.73 377.865 1033.66 376.228 1039.73 L 375.824 1040.75 C 374.551 1044.02 374.128 1044.69 373.964 1048.29 C 369.549 1053.04 335.968 1053.3 327.995 1053.05 C 326.944 1050.09 322.988 1039.4 322.674 1036.51 C 322.245 1032.55 323.708 1037.1 322.611 1034.09 C 285.011 1033.47 245.345 1039.99 207.199 1037.02 C 197.882 1036.3 186.563 1037.19 177.506 1035.17 C 197.062 1019.51 270.863 978.579 295.623 971.138 C 316.449 961.528 343.278 954.597 363.826 945.43 z"/><path transform="translate(0,0)" fill="rgb(154,100,65)" d="M 363.826 945.43 C 371.7 942.96 379.601 940.576 387.527 938.279 C 386.059 948.901 384.482 960.44 383.851 971.126 C 374.74 971.007 297.44 971.835 295.623 971.138 C 316.449 961.528 343.278 954.597 363.826 945.43 z"/><path transform="translate(0,0)" fill="rgb(154,100,65)" d="M 426.03 1448.56 C 428.488 1449.22 433.082 1450.31 435.292 1451.13 C 458.983 1458.56 482.849 1465.41 506.871 1471.69 C 503.723 1474.13 502.445 1474.12 502.249 1478.86 C 501.297 1501.8 508.4 1528.48 513.075 1551.01 C 514.27 1556.78 521.784 1574.91 521.337 1578.86 C 518.139 1580.02 516.979 1579.92 513.654 1580.11 L 510.761 1579.25 C 490.411 1576.31 465.919 1567.84 446.195 1561.53 C 435.524 1557.94 436.101 1546.47 434.856 1537.31 C 432.04 1516.6 428.734 1496.39 419.483 1477.5 C 419.345 1477.07 419.207 1476.64 419.068 1476.21 L 417.398 1477.05 C 410.091 1488.52 411.995 1525.83 412.285 1540.74 L 411.439 1540.29 C 409.066 1526.3 407.863 1475.98 423.869 1466.75 C 425.636 1465.73 433.424 1466.36 435.614 1467.56 C 441.534 1467.03 445.912 1470.41 449.24 1468.53 C 449.543 1466.25 449.652 1465.69 450.316 1463.48 C 453.902 1462.06 455.559 1461.86 458.731 1460.71 C 450.891 1456.1 431.559 1454.08 426.03 1448.56 z"/><path transform="translate(0,0)" fill="url(#Gradient6)" d="M 426.03 1448.56 C 428.488 1449.22 433.082 1450.31 435.292 1451.13 C 458.983 1458.56 482.849 1465.41 506.871 1471.69 C 503.723 1474.13 502.445 1474.12 502.249 1478.86 C 501.297 1501.8 508.4 1528.48 513.075 1551.01 C 514.27 1556.78 521.784 1574.91 521.337 1578.86 C 518.139 1580.02 516.979 1579.92 513.654 1580.11 L 510.761 1579.25 C 509.469 1577.48 507.89 1578.01 507.382 1575.36 C 504.003 1557.75 502.385 1539.29 499.332 1521.62 C 495.451 1499.15 496.291 1488.28 477.874 1472.66 C 462.5 1470.59 448.663 1473.61 435.614 1467.56 C 441.534 1467.03 445.912 1470.41 449.24 1468.53 C 449.543 1466.25 449.652 1465.69 450.316 1463.48 C 453.902 1462.06 455.559 1461.86 458.731 1460.71 C 450.891 1456.1 431.559 1454.08 426.03 1448.56 z"/><path transform="translate(0,0)" fill="rgb(119,70,41)" d="M 1368.48 1515.24 C 1387.39 1511.5 1410.62 1508.34 1429.78 1505.42 C 1436.05 1507.28 1438.76 1504.85 1444.54 1506.06 C 1448.45 1512.27 1441.28 1591.92 1440.93 1605.37 L 1371.5 1616.27 C 1371.56 1599.37 1378.58 1526.74 1375.33 1518.15 C 1371.99 1517.35 1371.33 1517.13 1368.48 1515.24 z"/><path transform="translate(0,0)" fill="rgb(29,28,28)" d="M 391.691 912.875 C 394.593 895.363 396.849 867.468 398.572 849.351 C 399.136 869.543 398.735 884.163 395.334 904.447 C 385.994 960.16 380.876 1018.31 375.701 1074.66 C 375.097 1071.49 374.671 1070.26 373.682 1067.24 C 374.73 1058.12 375.96 1048.9 376.228 1039.73 C 377.865 1033.66 379.071 1017.73 379.692 1011.03 C 380.87 997.709 382.256 984.406 383.851 971.126 C 384.482 960.44 386.059 948.901 387.527 938.279 C 379.601 940.576 371.7 942.96 363.826 945.43 C 367.197 937.725 383.905 940.728 388.625 934.999 C 388.615 935.011 390.718 919.319 390.647 918.721 C 384.483 917.815 364.555 925.023 357.296 927.464 C 243.206 965.843 81.0643 1032.17 59.2223 1166.05 C 55.1893 1190.77 57.927 1218.48 58.8381 1243.48 C 62.8125 1303.6 62.1815 1350.7 100.647 1400.92 C 118.109 1423.91 138.617 1444.41 161.606 1461.87 C 177.846 1474.43 201.105 1488.8 218.813 1499.17 C 334.97 1567.23 469.65 1607.1 600.527 1635.28 C 644.294 1644.71 698.727 1655.26 743.119 1661.03 C 769.347 1664.36 795.608 1667.42 821.898 1670.22 C 836.539 1671.73 869.644 1673.89 882.405 1678.36 C 880.187 1680.41 881.032 1680.36 878.674 1680.92 C 875.605 1677.06 846.379 1675.85 839.445 1675.22 C 817.762 1673.22 796.115 1670.84 774.512 1668.1 C 617.847 1648.68 453.328 1610.52 308.172 1548.18 C 222.435 1511.37 107.902 1447.24 71.5829 1356.35 C 67.9929 1347.49 65.3187 1338.28 63.602 1328.87 C 58.8285 1303.56 57.6506 1274.92 55.9348 1249.16 C 53.0647 1206.08 49.7591 1159.08 69.011 1118.84 C 113.982 1025.44 219.618 976.6 310.911 939.982 C 337.279 929.406 365.202 923.434 390.417 913.389 L 391.691 912.875 z"/><path transform="translate(0,0)" fill="rgb(29,28,28)" d="M 1112.67 851.377 C 1329.33 859.404 1698.65 894.807 1877.29 1020.7 L 1875.68 1021.3 C 1869.7 1020.84 1853.23 1007.67 1846.36 1004.26 C 1834.2 998.215 1822.04 991.23 1809.74 985.194 C 1773 967.311 1735.06 951.987 1696.21 939.332 C 1632.4 918.792 1560.11 904.332 1494.13 892.985 C 1426.58 881.225 1358.58 872.189 1290.3 865.899 C 1252.68 862.741 1215.59 859.492 1177.82 857.629 C 1167.53 857.121 1117.91 856.551 1112.67 851.377 z"/><path transform="translate(0,0)" fill="rgb(29,28,28)" d="M 1888.11 1028.33 C 1933.02 1058.33 1978.52 1110.08 1989.34 1163.64 C 1995.5 1194.36 1994.89 1225.35 1991.11 1256.38 C 1987.95 1282.41 1990.04 1310.89 1986.03 1336.9 C 1978.57 1385.19 1942.99 1429.44 1906.67 1460.39 C 1902.6 1463.85 1897.71 1468.15 1893.29 1470.87 C 1894.93 1464.36 1910.2 1454.23 1915.59 1448.81 C 1923.86 1440.49 1931.92 1432.2 1939.6 1423.29 C 1954.6 1406 1966.58 1386.3 1975.01 1365.01 C 1977.36 1358.93 1982.18 1344.92 1982.55 1338.55 C 1985.16 1293.87 1991.9 1244.2 1990.06 1199.83 C 1989.53 1185.57 1987.53 1171.4 1984.09 1157.55 C 1976.85 1129.52 1965.25 1108.98 1946.65 1086.52 C 1937.77 1075.91 1928.19 1065.9 1917.99 1056.54 C 1911.76 1050.77 1890.04 1034.27 1888.11 1028.33 z"/><path transform="translate(0,0)" fill="rgb(38,17,10)" d="M 1969.62 1191.75 L 1970.63 1187.73 C 1972.32 1193.05 1971.85 1197.04 1971.63 1202.53 C 1971.24 1211.93 1970.02 1238.83 1960.4 1242.36 C 1967.85 1223.56 1970.52 1212.1 1969.62 1191.75 z"/><path transform="translate(0,0)" fill="rgb(38,17,10)" d="M 1967.25 1170.51 L 1969.35 1170.79 C 1971.92 1176.74 1970.6 1180.74 1969.3 1187.07 C 1968.93 1181.77 1968.02 1175.81 1967.25 1170.51 z"/><path transform="translate(0,0)" fill="rgb(62,62,63)" d="M 444.701 407.729 C 447.785 394.847 452.073 380.899 460.754 370.627 C 493.698 331.644 575.081 320.834 622.677 315.017 C 695.415 306.128 869.776 308.802 926.471 355.15 C 950.954 370.657 959.016 394.024 962.69 421.402 C 965.974 445.87 968.901 470.369 971.885 494.871 L 990.575 648.432 L 1005.44 772.774 C 1007.87 791.967 1013.72 829.928 1014.23 848.091 C 1035.34 848.002 1055.13 848.372 1076.18 849.798 C 1084.63 850.371 1093.85 849.936 1102.2 851.098 L 1102.39 852.594 C 1093.4 856.166 1027.97 849.079 1014.61 852.76 C 1017.92 859.354 1017.43 860.908 1018.82 867.964 C 1020.08 875.521 1022.3 886.752 1022.64 894.123 C 1016.9 904.573 1043.27 1044 1041.89 1066.25 C 1041.11 1078.85 1026.96 1104.73 1017.77 1112.58 C 897.172 1215.55 709.61 1213.52 562.468 1186.57 C 509.707 1176.91 384.008 1130.16 375.701 1074.66 C 380.876 1018.31 385.994 960.16 395.334 904.447 C 398.735 884.163 399.136 869.543 398.572 849.351 C 401.59 829.631 402.766 807.498 405.446 787.24 C 407.549 750.93 414.16 712.232 416.367 675.835 C 418.196 666.51 417.834 657.445 420.014 648.382 C 420.621 625.014 425.81 586.131 428.287 561.936 C 433.478 510.504 438.95 459.101 444.701 407.729 z"/><path transform="translate(0,0)" fill="rgb(29,28,28)" d="M 926.471 355.15 C 950.954 370.657 959.016 394.024 962.69 421.402 C 965.974 445.87 968.901 470.369 971.885 494.871 L 990.575 648.432 L 1005.44 772.774 C 1007.87 791.967 1013.72 829.928 1014.23 848.091 C 1035.34 848.002 1055.13 848.372 1076.18 849.798 C 1084.63 850.371 1093.85 849.936 1102.2 851.098 L 1102.39 852.594 C 1093.4 856.166 1027.97 849.079 1014.61 852.76 C 1007.41 826.243 1008.02 813.523 1004.51 786.949 C 1000.88 759.514 997.309 733.087 994.196 705.486 C 985.828 632.418 976.975 559.407 967.638 486.457 C 963.582 454.654 961.959 422.43 953.097 391.621 C 948.277 374.863 931.458 366.395 926.471 355.15 z"/><path transform="translate(0,0)" fill="rgb(29,28,28)" d="M 444.701 407.729 C 444.67 411.271 445.017 413.918 445.058 416.828 C 445.48 446.587 439.52 480.305 436.568 509.596 L 427.737 600.636 C 426.361 613.736 424.788 634.028 422.021 646.293 L 420.014 648.382 C 420.621 625.014 425.81 586.131 428.287 561.936 C 433.478 510.504 438.95 459.101 444.701 407.729 z"/><path transform="translate(0,0)" fill="rgb(29,28,28)" d="M 405.446 787.24 C 407.549 750.93 414.16 712.232 416.367 675.835 C 422.37 687.357 411.132 746.309 410.782 762.375 C 410.683 766.911 408.787 786.047 406.576 789.19 L 405.446 787.24 z"/><path transform="translate(0,0)" fill="url(#Gradient5)" d="M 477.136 380.992 C 482.526 374.127 488.118 368.378 495.335 363.399 C 547.697 327.273 676.623 320.945 740.14 324.391 C 773.427 326.196 805.886 330.579 838.638 336.628 C 847.016 334.766 875.079 341.878 881.063 346.772 L 880.239 347.647 C 887.704 351.386 894.489 354.478 901.906 358.517 C 904.894 360.144 912.95 365.304 915.012 366.28 C 928.296 367.16 954.158 411.048 945.326 423.223 C 945.935 431.214 952.655 496.083 954.511 500.737 L 955.484 498.183 C 957.314 500.364 957.523 503.498 957.862 506.387 C 965.436 570.829 971.906 635.331 980.344 699.678 C 981.621 709.421 983.15 720.729 983.136 730.438 L 981.383 733.366 C 981.611 736.527 982.493 748.274 983.603 750.786 L 984.629 749.375 C 988.336 754.602 998.879 860.239 1000.93 875.411 C 1004.94 905.065 1010.95 943.185 1013.02 973.668 C 1013.06 974.447 1011.93 975.917 1011.4 976.559 C 1012.71 995.587 1016.64 1016.63 1019.07 1035.68 C 1022.49 1062.42 1026.33 1079.02 1007.01 1101.32 C 1006.5 1101.91 1005.99 1102.48 1005.46 1103.05 C 998.238 1111.62 984.839 1123.48 974.912 1128.64 L 973.836 1130.45 L 973.961 1131.93 C 962.478 1140.99 906.268 1168.97 893.682 1165.44 C 819.022 1185.81 754.186 1191.37 676.781 1186.19 C 655.623 1184.78 626.899 1183.25 606.339 1179.43 C 607.366 1168.72 606.965 1159.39 608.87 1148.32 L 610.643 1147.93 C 608.774 1145.6 588.362 1142.33 582.269 1140.58 C 565.819 1136.44 547.34 1132.18 531.382 1126.94 C 521.822 1124.89 499.436 1114.07 492.714 1114.71 C 485.734 1112.95 466.557 1102.62 460.457 1098.06 L 459.082 1097.81 C 458.824 1106.8 458.804 1128.5 455.981 1136.01 C 446.706 1130.93 439.046 1126.62 430.723 1120.09 C 395.509 1094.66 395.153 1079.75 398.661 1039.07 L 397.165 1036.86 C 396.548 1028.99 399.206 1011.32 399.906 1002.64 C 402.057 975.973 406.285 948.465 408.736 921.977 L 448.147 527.307 C 449.031 519.27 457.07 438.714 459.46 435.844 L 460.539 439.294 L 460.761 435.442 C 456.703 430.576 460.867 412.334 462.403 406.197 L 463.772 407.118 L 466.122 402.891 C 465.456 396.182 472.918 386.082 477.136 380.992 z"/><path transform="translate(0,0)" fill="rgb(154,100,65)" d="M 596.795 873.597 C 672.18 860.368 748.757 855.184 825.238 858.132 C 827.149 870.539 835.663 976.272 833.779 979.455 L 834.684 979.875 C 840.688 980.337 860.771 984.505 863.232 984.271 L 869.315 986.505 C 906.609 996.3 927.544 1004.79 961.087 1023.83 L 961.995 1022.9 C 970.461 1025.71 977.379 1028.27 986.318 1029.34 C 988.147 1027.81 987.398 1028.77 988.449 1026.38 C 989.675 1031.32 990.636 1033.96 992.492 1038.72 C 991.077 1044.62 991.971 1054.45 993.488 1060.26 L 993.362 1060.79 C 992.26 1066 991.668 1068 989.764 1072.98 C 984.564 1080.9 978.263 1089.22 970.496 1094.8 L 970.189 1095.56 C 970.957 1102.47 972.428 1123.95 974.912 1128.64 L 973.836 1130.45 L 973.961 1131.93 C 962.478 1140.99 906.268 1168.97 893.682 1165.44 C 819.022 1185.81 754.186 1191.37 676.781 1186.19 C 655.623 1184.78 626.899 1183.25 606.339 1179.43 C 607.366 1168.72 606.965 1159.39 608.87 1148.32 L 610.643 1147.93 C 608.774 1145.6 588.362 1142.33 582.269 1140.58 C 565.819 1136.44 547.34 1132.18 531.382 1126.94 C 521.822 1124.89 499.436 1114.07 492.714 1114.71 C 485.734 1112.95 466.557 1102.62 460.457 1098.06 L 459.082 1097.81 C 455.591 1095.38 452.917 1093.67 449.832 1090.65 C 453.516 1088.31 451.159 1092.51 457.833 1093.11 C 458.314 1086.2 457.591 1073.5 459.79 1067.52 L 459.151 1066.41 L 453.614 1068.73 L 452.018 1068.11 C 455.069 1066.32 458.083 1064.46 461.058 1062.55 L 460.165 1043.66 L 460.618 1043.28 C 463.073 1042.2 462.255 1042.67 464.262 1040.84 C 464.982 1034.63 465.112 1028.49 465.497 1022.26 C 467.904 983.245 473.906 943.824 475.968 904.861 L 475.993 904.359 C 497.457 897.358 519.003 891.679 540.813 885.869 L 541.732 885.645 C 554.722 882.028 582.472 876.847 596.117 874.537 L 596.795 873.597 z"/><path transform="translate(0,0)" fill="rgb(154,100,65)" d="M 596.795 873.597 C 672.18 860.368 748.757 855.184 825.238 858.132 C 827.149 870.539 835.663 976.272 833.779 979.455 C 752.539 968.296 669.95 971.936 590.006 990.199 C 589.868 979.171 591.415 959.667 592.089 948.141 C 593.624 923.617 594.967 899.082 596.117 874.537 L 596.795 873.597 z"/><path transform="translate(0,0)" fill="rgb(254,254,253)" d="M 638.229 914.173 C 662.482 912.722 668.908 936.332 645.941 948.636 C 622.034 950.859 614.491 926.307 638.229 914.173 z"/><path transform="translate(0,0)" fill="rgb(154,100,65)" d="M 541.732 885.645 C 554.722 882.028 582.472 876.847 596.117 874.537 C 594.967 899.082 593.624 923.617 592.089 948.141 C 591.415 959.667 589.868 979.171 590.006 990.199 L 589.448 993.841 C 589.104 1000.84 588.959 1004.89 589.442 1011.86 L 588.103 1012.55 C 570.996 1017.38 551.589 1022.91 534.87 1028.81 L 535.005 1006.17 C 509.948 1015.42 486.653 1026.12 464.262 1040.84 C 464.982 1034.63 465.112 1028.49 465.497 1022.26 C 467.904 983.245 473.906 943.824 475.968 904.861 L 475.993 904.359 C 497.457 897.358 519.003 891.679 540.813 885.869 L 541.732 885.645 z"/><path transform="translate(0,0)" fill="rgb(230,215,203)" d="M 541.732 885.645 C 554.722 882.028 582.472 876.847 596.117 874.537 C 594.967 899.082 593.624 923.617 592.089 948.141 C 591.415 959.667 589.868 979.171 590.006 990.199 L 589.448 993.841 C 589.104 1000.84 588.959 1004.89 589.442 1011.86 L 588.103 1012.55 C 570.996 1017.38 551.589 1022.91 534.87 1028.81 L 535.005 1006.17 L 535.822 1005.38 C 535.82 968.526 538.607 922.869 540.813 885.869 L 541.732 885.645 z"/><path transform="translate(0,0)" fill="rgb(254,254,253)" d="M 535.822 1005.38 C 544.775 1002.49 581.882 990.286 588.694 991.418 L 589.448 993.841 C 589.104 1000.84 588.959 1004.89 589.442 1011.86 L 588.103 1012.55 C 570.996 1017.38 551.589 1022.91 534.87 1028.81 L 535.005 1006.17 L 535.822 1005.38 z"/><path transform="translate(0,0)" fill="rgb(214,227,230)" d="M 610.643 1147.93 C 613.725 1149.75 623.131 1151.18 626.915 1151.75 C 740.579 1168.89 873.738 1164.48 970.189 1095.56 C 970.957 1102.47 972.428 1123.95 974.912 1128.64 L 973.836 1130.45 L 973.961 1131.93 C 962.478 1140.99 906.268 1168.97 893.682 1165.44 C 819.022 1185.81 754.186 1191.37 676.781 1186.19 C 655.623 1184.78 626.899 1183.25 606.339 1179.43 C 607.366 1168.72 606.965 1159.39 608.87 1148.32 L 610.643 1147.93 z"/><path transform="translate(0,0)" fill="rgb(29,28,28)" d="M 973.836 1130.45 L 973.961 1131.93 C 962.478 1140.99 906.268 1168.97 893.682 1165.44 C 910.767 1159.89 928.599 1153.76 944.889 1146.21 C 953.816 1142.08 963.269 1135.52 972.111 1131.27 L 973.836 1130.45 z"/><path transform="translate(0,0)" fill="rgb(154,100,65)" d="M 464.262 1040.84 C 486.653 1026.12 509.948 1015.42 535.005 1006.17 L 534.87 1028.81 L 533.594 1029.38 C 533.876 1033.2 534.011 1035.19 533.813 1038.99 C 532.429 1064.07 532.743 1089.23 531.926 1114.34 C 531.789 1118.54 531.861 1122.76 531.382 1126.94 C 521.822 1124.89 499.436 1114.07 492.714 1114.71 C 485.734 1112.95 466.557 1102.62 460.457 1098.06 L 459.082 1097.81 C 455.591 1095.38 452.917 1093.67 449.832 1090.65 C 453.516 1088.31 451.159 1092.51 457.833 1093.11 C 458.314 1086.2 457.591 1073.5 459.79 1067.52 L 459.151 1066.41 L 453.614 1068.73 L 452.018 1068.11 C 455.069 1066.32 458.083 1064.46 461.058 1062.55 L 460.165 1043.66 L 460.618 1043.28 C 463.073 1042.2 462.255 1042.67 464.262 1040.84 z"/><path transform="translate(0,0)" fill="rgb(188,203,210)" d="M 464.262 1040.84 C 486.653 1026.12 509.948 1015.42 535.005 1006.17 L 534.87 1028.81 L 533.594 1029.38 C 511.614 1036.36 479.083 1048.79 461.058 1062.55 L 460.165 1043.66 L 460.618 1043.28 C 463.073 1042.2 462.255 1042.67 464.262 1040.84 z"/><path transform="translate(0,0)" fill="rgb(104,75,63)" d="M 533.594 1029.38 C 533.876 1033.2 534.011 1035.19 533.813 1038.99 C 515.164 1047.21 499.335 1053.92 481.706 1064.37 C 473.682 1069.13 467.066 1075.17 460.414 1079.12 C 459.307 1085.3 458.452 1091.52 460.472 1097.49 C 460.467 1097.68 460.462 1097.87 460.457 1098.06 L 459.082 1097.81 C 455.591 1095.38 452.917 1093.67 449.832 1090.65 C 453.516 1088.31 451.159 1092.51 457.833 1093.11 C 458.314 1086.2 457.591 1073.5 459.79 1067.52 L 459.151 1066.41 L 453.614 1068.73 L 452.018 1068.11 C 455.069 1066.32 458.083 1064.46 461.058 1062.55 C 479.083 1048.79 511.614 1036.36 533.594 1029.38 z"/><path transform="translate(0,0)" fill="rgb(183,154,136)" d="M 534.87 1028.81 C 551.589 1022.91 570.996 1017.38 588.103 1012.55 L 588.19 1022.56 C 588.05 1024.13 587.875 1027.27 587.536 1028.67 C 586.798 1037.73 584.768 1058.21 585.057 1066.5 C 585.006 1073.96 583.342 1137.19 582.269 1140.58 C 565.819 1136.44 547.34 1132.18 531.382 1126.94 C 531.861 1122.76 531.789 1118.54 531.926 1114.34 C 532.743 1089.23 532.429 1064.07 533.813 1038.99 C 534.011 1035.19 533.876 1033.2 533.594 1029.38 L 534.87 1028.81 z"/><path transform="translate(0,0)" fill="rgb(230,215,203)" d="M 534.87 1028.81 C 551.589 1022.91 570.996 1017.38 588.103 1012.55 L 588.19 1022.56 C 588.05 1024.13 587.875 1027.27 587.536 1028.67 C 586.798 1037.73 584.768 1058.21 585.057 1066.5 L 583.743 1072.03 C 577.658 1073.83 541.726 1041.85 534.755 1038.81 L 533.813 1038.99 C 534.011 1035.19 533.876 1033.2 533.594 1029.38 L 534.87 1028.81 z"/><path transform="translate(0,0)" fill="rgb(183,154,136)" d="M 534.87 1028.81 C 551.589 1022.91 570.996 1017.38 588.103 1012.55 L 588.19 1022.56 C 588.05 1024.13 587.875 1027.27 587.536 1028.67 L 586.78 1023.98 C 583.76 1022.43 561.998 1029.68 557.46 1031.15 C 549.864 1033.62 542.295 1036.18 534.755 1038.81 L 533.813 1038.99 C 534.011 1035.19 533.876 1033.2 533.594 1029.38 L 534.87 1028.81 z"/><path transform="translate(0,0)" fill="rgb(183,154,136)" d="M 834.684 979.875 C 840.688 980.337 860.771 984.505 863.232 984.271 L 869.315 986.505 C 869.84 992.644 871.662 1005.77 869.958 1010.79 L 871.539 1011.31 C 874.59 1015.87 874.227 1017.27 874.789 1022.88 L 875.051 1023.62 C 877.529 1054.25 882.667 1083.16 884.341 1114.39 C 872.62 1119.82 855.522 1126.13 843.224 1130.43 C 840.264 1104 840.137 1076.29 837.962 1049.69 C 836.983 1037.72 836.27 1024.78 836.007 1012.79 L 835.801 1012.19 L 835.778 1002.33 L 835.184 1001.89 C 835.232 994.486 834.948 987.278 834.684 979.875 z"/><path transform="translate(0,0)" fill="rgb(226,236,237)" d="M 834.684 979.875 C 840.688 980.337 860.771 984.505 863.232 984.271 L 869.315 986.505 C 869.84 992.644 871.662 1005.77 869.958 1010.79 C 858.671 1007.56 847.269 1004.74 835.778 1002.33 L 835.184 1001.89 C 835.232 994.486 834.948 987.278 834.684 979.875 z"/><path transform="translate(0,0)" fill="rgb(154,100,65)" d="M 835.778 1002.33 C 847.269 1004.74 858.671 1007.56 869.958 1010.79 L 871.539 1011.31 C 874.59 1015.87 874.227 1017.27 874.789 1022.88 C 863.563 1019.02 847.746 1014.18 836.007 1012.79 L 835.801 1012.19 L 835.778 1002.33 z"/><path transform="translate(0,0)" fill="url(#Gradient4)" d="M 869.315 986.505 C 906.609 996.3 927.544 1004.79 961.087 1023.83 L 961.995 1022.9 C 970.461 1025.71 977.379 1028.27 986.318 1029.34 C 988.147 1027.81 987.398 1028.77 988.449 1026.38 C 989.675 1031.32 990.636 1033.96 992.492 1038.72 C 991.077 1044.62 991.971 1054.45 993.488 1060.26 L 993.362 1060.79 C 992.26 1066 991.668 1068 989.764 1072.98 C 984.564 1080.9 978.263 1089.22 970.496 1094.8 C 969.898 1085.79 969.401 1078.47 968.007 1069.49 C 946.316 1048.64 904.558 1029.76 875.051 1023.62 L 874.789 1022.88 C 874.227 1017.27 874.59 1015.87 871.539 1011.31 L 869.958 1010.79 C 871.662 1005.77 869.84 992.644 869.315 986.505 z"/><path transform="translate(0,0)" fill="rgb(104,75,63)" d="M 871.539 1011.31 C 911.392 1022.39 950.747 1034.78 982.785 1062.02 C 985.546 1065.1 985.076 1065.72 988.128 1066 C 989.831 1063.95 991.054 1062.09 993.362 1060.79 C 992.26 1066 991.668 1068 989.764 1072.98 C 984.564 1080.9 978.263 1089.22 970.496 1094.8 C 969.898 1085.79 969.401 1078.47 968.007 1069.49 C 946.316 1048.64 904.558 1029.76 875.051 1023.62 L 874.789 1022.88 C 874.227 1017.27 874.59 1015.87 871.539 1011.31 z"/><path transform="translate(0,0)" fill="rgb(94,90,91)" d="M 961.995 1022.9 C 970.461 1025.71 977.379 1028.27 986.318 1029.34 C 988.147 1027.81 987.398 1028.77 988.449 1026.38 C 989.675 1031.32 990.636 1033.96 992.492 1038.72 C 991.077 1044.62 991.971 1054.45 993.488 1060.26 L 993.362 1060.79 C 991.054 1062.09 989.831 1063.95 988.128 1066 C 985.076 1065.72 985.546 1065.1 982.785 1062.02 C 982.579 1040.01 977.881 1037.47 961.087 1023.83 L 961.995 1022.9 z"/><path transform="translate(0,0)" fill="rgb(188,203,210)" d="M 590.006 990.199 C 669.95 971.936 752.539 968.296 833.779 979.455 L 834.684 979.875 C 834.948 987.278 835.232 994.486 835.184 1001.89 C 773.791 989.207 710.556 988.218 648.796 998.979 C 627.678 1002.66 609.742 1007.59 589.442 1011.86 C 588.959 1004.89 589.104 1000.84 589.448 993.841 L 590.006 990.199 z"/><path transform="translate(0,0)" fill="rgb(104,75,63)" d="M 589.442 1011.86 C 609.742 1007.59 627.678 1002.66 648.796 998.979 C 710.556 988.218 773.791 989.207 835.184 1001.89 L 835.778 1002.33 L 835.801 1012.19 C 771.503 998.704 708.314 1000.65 643.451 1010.08 C 624.978 1012.76 606.429 1019.11 588.19 1022.56 L 588.103 1012.55 L 589.442 1011.86 z"/><path transform="translate(0,0)" fill="rgb(254,254,253)" d="M 738.164 1088.23 C 765.089 1085.17 771.645 1110.95 749.04 1123.58 C 733.219 1125.09 728.247 1120.86 723.645 1106.22 C 724.131 1104.53 724.657 1102.85 725.222 1101.19 C 727.826 1093.69 731.373 1091.56 738.164 1088.23 z"/><path transform="translate(0,0)" fill="rgb(214,227,230)" d="M 616.619 531.425 C 674.814 538.108 733.58 538.158 791.786 531.571 C 813.177 529.032 841.507 522.46 860.586 520.681 C 876.601 569.048 885.306 625.491 894.354 675.571 L 929.557 864.948 L 929.753 868.565 C 908.606 863.993 877.857 861.902 855.847 859.929 C 851.798 860.035 851.193 860.112 847.311 859.226 C 839.477 859.06 833.492 858.845 825.727 858.02 L 825.238 858.132 C 748.757 855.184 672.18 860.368 596.795 873.597 L 609.298 671.374 C 611.761 626.34 612.6 575.8 616.619 531.425 z"/><path transform="translate(0,0)" fill="rgb(226,236,237)" d="M 796.769 543.997 C 805.233 549.454 812.411 549.9 821.608 553.302 C 833.788 583.723 836.648 652.546 839.508 687.233 L 851.267 819.591 C 851.848 825.521 855.523 855.2 854.432 857.932 C 850.867 859.698 850.117 858.636 847.311 859.226 C 839.477 859.06 833.492 858.845 825.727 858.02 C 823.892 847.01 822.736 826.122 821.648 814.281 L 813.011 717.573 C 807.95 660.838 799.885 600.668 796.769 543.997 z"/><path transform="translate(0,0)" fill="rgb(254,254,253)" d="M 477.136 380.992 C 482.526 374.127 488.118 368.378 495.335 363.399 C 547.697 327.273 676.623 320.945 740.14 324.391 C 773.427 326.196 805.886 330.579 838.638 336.628 C 847.016 334.766 875.079 341.878 881.063 346.772 L 880.239 347.647 C 887.704 351.386 894.489 354.478 901.906 358.517 C 904.894 360.144 912.95 365.304 915.012 366.28 C 918.975 369.879 924.406 374.394 926.115 379.52 C 923.689 425.948 815.764 431.444 780.2 437.474 L 783.557 438.773 L 783.105 439.72 L 776.534 440.958 C 741.974 442.559 707.547 443.89 672.897 442.665 C 650.629 441.877 627.085 439.132 604.542 437.962 C 595.048 434.971 581.763 434.37 572.012 432.794 C 558.502 430.611 499.466 417.798 495.028 406.758 C 493.036 403.903 487.591 400.505 484.595 396.458 C 480.056 390.327 479.648 388.351 477.136 380.992 z"/><path transform="translate(0,0)" fill="rgb(75,113,135)" d="M 495.028 406.758 C 565.633 442.237 701.533 443.842 780.2 437.474 L 783.557 438.773 L 783.105 439.72 L 776.534 440.958 C 741.974 442.559 707.547 443.89 672.897 442.665 C 650.629 441.877 627.085 439.132 604.542 437.962 C 595.048 434.971 581.763 434.37 572.012 432.794 C 558.502 430.611 499.466 417.798 495.028 406.758 z"/><path transform="translate(0,0)" fill="rgb(29,28,28)" d="M 838.638 336.628 C 847.016 334.766 875.079 341.878 881.063 346.772 L 880.239 347.647 C 869.396 345.667 851.873 339.523 838.638 336.628 z"/><path transform="translate(0,0)" fill="rgb(188,203,210)" d="M 644.351 342.621 C 657.657 339.391 753.169 338.6 763.713 342.628 C 795.036 344.897 861.865 353.759 886.698 376.564 C 902.85 391.397 858.3 404.678 850 405.677 C 843.206 407.328 837.128 408.411 830.76 409.59 C 821.526 411.979 802.314 413.81 792.706 414.783 C 736.066 420.517 678.037 419.278 621.306 415.634 C 614.567 415.201 588.106 413.432 583.574 411.057 C 563.556 408.182 543.814 405.649 525.177 397.145 C 520.09 394.824 511.547 390.397 509.986 384.598 C 509.409 382.458 510.395 379.35 511.768 378.01 C 535.296 355.047 614.554 345.321 644.351 342.621 z"/><path transform="translate(0,0)" fill="rgb(137,159,169)" d="M 644.351 342.621 C 657.657 339.391 753.169 338.6 763.713 342.628 C 795.036 344.897 861.865 353.759 886.698 376.564 C 902.85 391.397 858.3 404.678 850 405.677 C 843.206 407.328 837.128 408.411 830.76 409.59 L 829.351 408.783 L 830.243 407.9 C 838.208 396.344 844.672 389.509 854.317 379.3 C 844.047 372.187 805.736 360.665 793.394 360.285 C 797.153 363.558 801.919 363.097 805.041 366.029 C 787.774 365.364 767.383 359.827 747.591 358.996 C 698.074 356.916 592.486 360.314 547.419 375.422 C 551.96 380.844 566.291 400.118 570.929 406.692 C 575.136 409.084 577.43 409.141 582.226 409.949 L 583.574 411.057 C 563.556 408.182 543.814 405.649 525.177 397.145 C 520.09 394.824 511.547 390.397 509.986 384.598 C 509.409 382.458 510.395 379.35 511.768 378.01 C 535.296 355.047 614.554 345.321 644.351 342.621 z"/><path transform="translate(0,0)" fill="rgb(75,113,135)" d="M 583.574 411.057 C 563.556 408.182 543.814 405.649 525.177 397.145 C 520.09 394.824 511.547 390.397 509.986 384.598 C 509.409 382.458 510.395 379.35 511.768 378.01 C 535.296 355.047 614.554 345.321 644.351 342.621 L 645.754 343.924 C 642.221 345.745 635.123 345.792 630.853 346.299 C 609.572 348.825 519.623 360.411 511.982 382.256 C 512.681 397.125 559.022 405.514 570.929 406.692 C 575.136 409.084 577.43 409.141 582.226 409.949 L 583.574 411.057 z"/><path transform="translate(0,0)" fill="rgb(75,113,135)" d="M 763.713 342.628 C 795.036 344.897 861.865 353.759 886.698 376.564 C 902.85 391.397 858.3 404.678 850 405.677 C 843.206 407.328 837.128 408.411 830.76 409.59 L 829.351 408.783 L 830.243 407.9 C 957.455 384.674 840.181 352.627 788.357 347.285 C 784.045 346.841 764.617 345.148 761.947 343.633 L 763.713 342.628 z"/><path transform="translate(0,0)" fill="rgb(226,236,237)" d="M 528.172 513.129 C 540.19 516.716 550.541 519.626 562.74 522.487 C 580.441 525.609 598.856 529.131 616.619 531.425 C 612.6 575.8 611.761 626.34 609.298 671.374 L 596.795 873.597 L 596.117 874.537 C 582.472 876.847 554.722 882.028 541.732 885.645 L 540.813 885.869 C 519.003 891.679 497.457 897.358 475.993 904.359 C 473.108 897.04 477.952 861.469 478.973 851.243 C 483.591 839.962 488.186 789.474 490.125 774.549 L 509.835 620.591 C 514.816 584.017 519.062 549.082 528.172 513.129 z"/><path transform="translate(0,0)" fill="rgb(254,254,253)" d="M 562.74 522.487 C 580.441 525.609 598.856 529.131 616.619 531.425 C 612.6 575.8 611.761 626.34 609.298 671.374 L 596.795 873.597 L 596.117 874.537 C 582.472 876.847 554.722 882.028 541.732 885.645 C 538.499 877.721 555.333 648.754 556.906 621.427 C 558.376 594.984 560.035 568.552 561.884 542.132 C 562.056 539.483 562.642 522.822 562.74 522.487 z"/><path transform="translate(0,0)" fill="rgb(154,100,65)" d="M 943.042 514.802 L 945.627 515.996 C 948.025 513.221 935.006 428.679 943.724 412.691 C 944.244 416.04 944.95 419.908 945.326 423.223 C 945.935 431.214 952.655 496.083 954.511 500.737 L 955.484 498.183 C 957.314 500.364 957.523 503.498 957.862 506.387 C 965.436 570.829 971.906 635.331 980.344 699.678 C 981.621 709.421 983.15 720.729 983.136 730.438 L 981.383 733.366 C 981.611 736.527 982.493 748.274 983.603 750.786 L 984.629 749.375 C 988.336 754.602 998.879 860.239 1000.93 875.411 C 1004.94 905.065 1010.95 943.185 1013.02 973.668 C 1013.06 974.447 1011.93 975.917 1011.4 976.559 C 1012.71 995.587 1016.64 1016.63 1019.07 1035.68 C 1022.49 1062.42 1026.33 1079.02 1007.01 1101.32 C 1006.5 1101.91 1005.99 1102.48 1005.46 1103.05 C 998.238 1111.62 984.839 1123.48 974.912 1128.64 C 972.428 1123.95 970.957 1102.47 970.189 1095.56 L 970.496 1094.8 C 978.263 1089.22 984.564 1080.9 989.764 1072.98 C 991.668 1068 992.26 1066 993.362 1060.79 L 993.488 1060.26 C 991.971 1054.45 991.077 1044.62 992.492 1038.72 C 990.636 1033.96 989.675 1031.32 988.449 1026.38 C 987.398 1028.77 988.147 1027.81 986.318 1029.34 C 977.379 1028.27 970.461 1025.71 961.995 1022.9 L 961.087 1023.83 C 927.544 1004.79 906.609 996.3 869.315 986.505 L 863.232 984.271 C 860.771 984.505 840.688 980.337 834.684 979.875 L 833.779 979.455 C 835.663 976.272 827.149 870.539 825.238 858.132 L 825.727 858.02 C 833.492 858.845 839.477 859.06 847.311 859.226 C 851.193 860.112 851.798 860.035 855.847 859.929 C 877.857 861.902 908.606 863.993 929.753 868.565 C 933.553 869.166 939.593 869.92 943.12 870.878 L 943.952 871.212 C 952.548 872.529 961.062 874.334 969.453 876.619 C 968.587 866.639 966.606 839.4 964.373 830.318 C 963.359 814.373 960.009 792.009 958.125 775.49 L 945.718 659.617 C 943.236 637.006 938.961 606.673 937.858 584.558 C 938.742 574.714 937.715 523.506 943.042 514.802 z"/><path transform="translate(0,0)" fill="rgb(226,236,237)" d="M 943.042 514.802 L 945.627 515.996 C 948.025 513.221 935.006 428.679 943.724 412.691 C 944.244 416.04 944.95 419.908 945.326 423.223 C 945.935 431.214 952.655 496.083 954.511 500.737 L 955.484 498.183 C 957.314 500.364 957.523 503.498 957.862 506.387 C 965.436 570.829 971.906 635.331 980.344 699.678 C 981.621 709.421 983.15 720.729 983.136 730.438 L 981.383 733.366 C 981.611 736.527 982.493 748.274 983.603 750.786 L 984.629 749.375 C 988.336 754.602 998.879 860.239 1000.93 875.411 C 1004.94 905.065 1010.95 943.185 1013.02 973.668 C 1013.06 974.447 1011.93 975.917 1011.4 976.559 C 1012.71 995.587 1016.64 1016.63 1019.07 1035.68 C 1022.49 1062.42 1026.33 1079.02 1007.01 1101.32 C 1006.5 1101.91 1005.99 1102.48 1005.46 1103.05 C 998.238 1111.62 984.839 1123.48 974.912 1128.64 C 972.428 1123.95 970.957 1102.47 970.189 1095.56 L 970.496 1094.8 C 978.263 1089.22 984.564 1080.9 989.764 1072.98 C 991.668 1068 992.26 1066 993.362 1060.79 L 993.488 1060.26 C 991.971 1054.45 991.077 1044.62 992.492 1038.72 C 990.636 1033.96 989.675 1031.32 988.449 1026.38 C 988.506 1018.31 982.384 979.727 981.043 969.455 C 977.064 938.985 974.006 906.822 969.453 876.619 C 968.587 866.639 966.606 839.4 964.373 830.318 C 963.359 814.373 960.009 792.009 958.125 775.49 L 945.718 659.617 C 943.236 637.006 938.961 606.673 937.858 584.558 C 938.742 574.714 937.715 523.506 943.042 514.802 z"/><path transform="translate(0,0)" fill="rgb(188,203,210)" d="M 989.764 1072.98 C 993.379 1082.58 993.443 1099.85 1005.46 1103.05 C 998.238 1111.62 984.839 1123.48 974.912 1128.64 C 972.428 1123.95 970.957 1102.47 970.189 1095.56 L 970.496 1094.8 C 978.263 1089.22 984.564 1080.9 989.764 1072.98 z"/><path transform="translate(0,0)" fill="rgb(29,28,28)" d="M 954.511 500.737 L 955.484 498.183 C 957.314 500.364 957.523 503.498 957.862 506.387 C 965.436 570.829 971.906 635.331 980.344 699.678 C 981.621 709.421 983.15 720.729 983.136 730.438 L 981.383 733.366 C 971.323 657.164 962.801 577.193 954.511 500.737 z"/><path transform="translate(0,0)" fill="rgb(29,28,28)" d="M 983.603 750.786 L 984.629 749.375 C 988.336 754.602 998.879 860.239 1000.93 875.411 C 1004.94 905.065 1010.95 943.185 1013.02 973.668 C 1013.06 974.447 1011.93 975.917 1011.4 976.559 C 1003.23 923.726 998.175 869.566 991.187 816.517 C 988.342 794.914 985.573 772.454 983.603 750.786 z"/><path transform="translate(0,0)" fill="rgb(62,62,63)" d="M 993.488 1060.26 C 991.971 1054.45 991.077 1044.62 992.492 1038.72 C 995.249 1047.28 995.818 1051.4 993.488 1060.26 z"/><path transform="translate(0,0)" fill="rgb(137,159,169)" d="M 943.952 871.212 C 952.548 872.529 961.062 874.334 969.453 876.619 C 974.006 906.822 977.064 938.985 981.043 969.455 C 982.384 979.727 988.506 1018.31 988.449 1026.38 C 987.398 1028.77 988.147 1027.81 986.318 1029.34 C 977.379 1028.27 970.461 1025.71 961.995 1022.9 C 960 1021.44 959.026 1020.06 958.717 1017.57 C 956.701 1001.35 955.081 985.065 953.361 968.804 C 949.67 936.329 946.533 903.793 943.952 871.212 z"/><path transform="translate(0,0)" fill="rgb(183,154,136)" d="M 825.727 858.02 C 833.492 858.845 839.477 859.06 847.311 859.226 C 851.193 860.112 851.798 860.035 855.847 859.929 C 856.816 870.657 867.335 981.92 867.027 982.621 L 863.232 984.271 C 860.771 984.505 840.688 980.337 834.684 979.875 L 833.779 979.455 C 835.663 976.272 827.149 870.539 825.238 858.132 L 825.727 858.02 z"/><path transform="translate(0,0)" fill="rgb(137,159,169)" d="M 915.012 366.28 C 928.296 367.16 954.158 411.048 945.326 423.223 C 944.95 419.908 944.244 416.04 943.724 412.691 C 935.006 428.679 948.025 513.221 945.627 515.996 L 943.042 514.802 C 925.766 493.47 924.66 453.214 912.813 443.544 C 906.423 438.329 895.794 437.509 887.821 438.383 C 884.259 438.774 881.56 440.084 879.347 442.926 C 880.426 444.584 893.689 448.418 897.127 449.516 C 903.923 451.688 908.389 461.367 902.636 466.165 C 879.285 485.64 829.288 492.853 800.177 495.632 C 783.131 497.051 766.258 498.539 749.162 499.214 C 741.029 500.519 721.365 500.144 712.01 500.125 C 657.264 500.017 598.435 497.434 545.376 483.048 C 534.146 479.352 515.26 473.002 509.685 461.844 C 504.44 451.347 520.853 441.872 528.901 438.607 C 516.879 438.517 510.096 439.814 499.058 443.954 C 493.286 457.348 485.763 505.447 476.561 510.748 C 474.907 509.45 474.324 507.612 474.328 505.485 C 474.398 470.033 475.529 437.735 466.972 402.958 L 466.122 402.891 C 465.456 396.182 472.918 386.082 477.136 380.992 C 479.648 388.351 480.056 390.327 484.595 396.458 C 487.591 400.505 493.036 403.903 495.028 406.758 C 499.466 417.798 558.502 430.611 572.012 432.794 C 581.763 434.37 595.048 434.971 604.542 437.962 C 627.085 439.132 650.629 441.877 672.897 442.665 C 707.547 443.89 741.974 442.559 776.534 440.958 L 783.105 439.72 L 783.557 438.773 L 780.2 437.474 C 815.764 431.444 923.689 425.948 926.115 379.52 C 924.406 374.394 918.975 369.879 915.012 366.28 z"/><path transform="translate(0,0)" fill="rgb(188,203,210)" d="M 776.534 440.958 C 791.919 440.81 807.55 438.945 822.92 438.427 C 831.999 438.121 854.797 432.63 860.191 440.976 C 865.609 442.741 871.517 441.421 873.374 443.397 C 852.58 444.844 847.041 448.133 828.087 451.044 C 800.314 455.057 772.361 457.711 744.329 458.996 C 722.15 460.231 699.925 460.384 677.731 459.453 C 668.571 459.058 641.552 456.462 634.428 457.447 C 624.974 456.32 617.124 453.497 607.84 451.337 C 596.847 448.78 587.465 449.544 576.278 449.942 C 579.874 445.633 582.649 442.65 586.536 438.666 C 593.255 438.786 597.892 439.046 604.542 437.962 C 627.085 439.132 650.629 441.877 672.897 442.665 C 707.547 443.89 741.974 442.559 776.534 440.958 z"/><path transform="translate(0,0)" fill="rgb(226,236,237)" d="M 576.278 449.942 C 587.465 449.544 596.847 448.78 607.84 451.337 C 617.124 453.497 624.974 456.32 634.428 457.447 C 640.339 460.172 647.264 464.283 649.579 470.477 C 649.406 472.753 649.443 474.502 647.291 476.297 C 638.034 484.019 615.287 484.946 603.987 484.854 C 590.374 484.397 573.763 482.348 563.826 472.174 C 553.697 461.804 568.285 454.486 576.278 449.942 z"/><path transform="translate(0,0)" fill="rgb(29,28,28)" d="M 915.012 366.28 C 928.296 367.16 954.158 411.048 945.326 423.223 C 944.95 419.908 944.244 416.04 943.724 412.691 C 944.45 402.24 935.963 389.388 929.314 381.89 C 930.568 383.304 926.265 379.684 926.115 379.52 C 924.406 374.394 918.975 369.879 915.012 366.28 z"/><path transform="translate(0,0)" fill="rgb(75,113,135)" d="M 749.162 499.214 L 741.892 498.514 C 750.699 495.385 786.125 496.406 797.445 494.345 C 798.209 494.206 799.494 495.175 800.177 495.632 C 783.131 497.051 766.258 498.539 749.162 499.214 z"/><path transform="translate(0,0)" fill="rgb(137,159,169)" d="M 509.829 502.299 C 536.291 507.313 565.52 513.048 592.366 516.088 C 662.894 524.073 737.94 524.693 808.539 516.647 C 832.618 513.902 862.779 507.749 886.537 502.891 C 896.051 530.152 900.139 562.319 905.829 590.955 C 919.658 660.547 928.471 730.924 937.287 801.32 C 939.118 815.592 940.604 829.905 941.743 844.249 C 942.172 849.461 942.978 864.52 943.898 868.865 L 943.12 870.878 C 939.593 869.92 933.553 869.166 929.753 868.565 L 929.557 864.948 L 894.354 675.571 C 885.306 625.491 876.601 569.048 860.586 520.681 C 841.507 522.46 813.177 529.032 791.786 531.571 C 733.58 538.158 674.814 538.108 616.619 531.425 C 598.856 529.131 580.441 525.609 562.74 522.487 C 550.541 519.626 540.19 516.716 528.172 513.129 C 519.062 549.082 514.816 584.017 509.835 620.591 L 490.125 774.549 C 488.186 789.474 483.591 839.962 478.973 851.243 C 475.754 852.065 475.797 851.978 472.438 851.832 C 470.859 850.576 468.639 848.635 468.766 846.318 C 474.499 741.91 488.357 637.215 505.049 533.914 C 505.856 528.917 507.928 505.087 509.829 502.299 z"/><path transform="translate(0,0)" fill="rgb(188,203,210)" d="M 929.557 864.948 C 935.374 866.93 939.774 866.198 943.898 868.865 L 943.12 870.878 C 939.593 869.92 933.553 869.166 929.753 868.565 L 929.557 864.948 z"/><path transform="translate(0,0)" fill="rgb(188,203,210)" d="M 447.538 913.734 C 445.298 909.974 452.479 839.649 453.182 831.011 L 463.33 701.413 C 466.931 656.769 469.434 609.81 476.653 565.664 C 478.859 552.172 492.683 510.636 502.638 501.907 C 507.253 500.783 504.939 500.814 509.829 502.299 C 507.928 505.087 505.856 528.917 505.049 533.914 C 488.357 637.215 474.499 741.91 468.766 846.318 C 468.639 848.635 470.859 850.576 472.438 851.832 C 475.797 851.978 475.754 852.065 478.973 851.243 C 477.952 861.469 473.108 897.04 475.993 904.359 L 475.968 904.861 C 469.164 906.862 453.129 912.721 447.538 913.734 z"/><path transform="translate(0,0)" fill="rgb(137,159,169)" d="M 475.968 904.861 C 473.906 943.824 467.904 983.245 465.497 1022.26 C 465.112 1028.49 464.982 1034.63 464.262 1040.84 C 462.255 1042.67 463.073 1042.2 460.618 1043.28 C 461.389 1038.48 462.803 1036.29 458.34 1033.92 C 450.395 1034.77 443.096 1044.3 436.858 1040.63 C 435.619 1037.61 438.462 1031.06 437.574 1025.7 C 437.473 1023.72 438.852 1003.05 439.169 1001.33 C 441.508 988.626 442.767 919.84 447.538 913.734 C 453.129 912.721 469.164 906.862 475.968 904.861 z"/><path transform="translate(0,0)" fill="rgb(29,28,28)" d="M 398.661 1039.07 L 397.165 1036.86 C 396.548 1028.99 399.206 1011.32 399.906 1002.64 C 402.057 975.973 406.285 948.465 408.736 921.977 L 448.147 527.307 C 449.031 519.27 457.07 438.714 459.46 435.844 L 460.539 439.294 L 414.022 894.323 C 408.978 942.265 404.656 991.368 398.661 1039.07 z"/><path transform="translate(0,0)" fill="rgb(188,203,210)" d="M 929.645 671.48 L 929.337 671.62 C 937.991 663.729 932.24 666.169 936.224 657.253 C 942.931 654.61 936.18 659.583 942.806 658.764 C 948.247 646.339 929.894 596.835 937.858 584.558 C 938.961 606.673 943.236 637.006 945.718 659.617 L 958.125 775.49 C 960.009 792.009 963.359 814.373 964.373 830.318 L 963.552 832.577 C 962.196 826.618 963.072 821.15 961.71 815.541 C 960.487 810.508 958.929 814.438 953.409 810.979 C 951.737 807.912 951.461 807.903 951.502 804.31 C 953.791 801.464 956.435 801.565 960.085 800.946 C 958.313 795.524 957.587 795.172 952.331 795.836 C 951.187 782.408 944.361 745.464 948.31 735.265 C 950.475 734.743 949.33 734.805 951.748 735.217 C 951.988 729.581 949.514 706.469 948.403 700.705 C 946.592 701.05 946.021 701.214 944.186 701.794 L 942.53 702.332 C 924.485 696.765 925.374 688.028 929.645 671.48 z"/><path transform="translate(0,0)" fill="rgb(94,90,91)" d="M 437.574 1025.7 C 438.462 1031.06 435.619 1037.61 436.858 1040.63 C 443.096 1044.3 450.395 1034.77 458.34 1033.92 C 462.803 1036.29 461.389 1038.48 460.618 1043.28 L 460.165 1043.66 L 461.058 1062.55 C 458.083 1064.46 455.069 1066.32 452.018 1068.11 L 453.614 1068.73 L 459.151 1066.41 L 459.79 1067.52 C 457.591 1073.5 458.314 1086.2 457.833 1093.11 C 451.159 1092.51 453.516 1088.31 449.832 1090.65 C 444.79 1087.58 442.435 1084.71 438.434 1080.49 C 437.49 1078.87 436.589 1077.21 435.733 1075.54 C 424.264 1053.48 430.953 1046.18 437.574 1025.7 z"/><path transform="translate(0,0)" fill="rgb(137,159,169)" d="M 445.626 1054.1 C 450.521 1050.32 454.833 1046.83 460.165 1043.66 L 461.058 1062.55 C 458.083 1064.46 455.069 1066.32 452.018 1068.11 L 448.809 1068.32 C 449.332 1062.62 447.995 1059.14 445.626 1054.1 z"/><path transform="translate(0,0)" fill="rgb(137,159,169)" d="M 448.809 1068.32 C 445.651 1068.68 441.339 1063.05 441.273 1060.04 C 441.203 1056.78 443.391 1056.01 445.626 1054.1 C 447.995 1059.14 449.332 1062.62 448.809 1068.32 z"/><path transform="translate(0,0)" fill="rgb(188,203,210)" d="M 438.434 1080.49 C 442.435 1084.71 444.79 1087.58 449.832 1090.65 C 452.917 1093.67 455.591 1095.38 459.082 1097.81 C 458.824 1106.8 458.804 1128.5 455.981 1136.01 C 446.706 1130.93 439.046 1126.62 430.723 1120.09 C 432.046 1116.68 437.76 1085.23 438.434 1080.49 z"/><path transform="translate(0,0)" fill="rgb(29,28,28)" d="M 460.761 435.442 C 456.703 430.576 460.867 412.334 462.403 406.197 L 463.772 407.118 C 463.462 415.386 461.755 426.987 460.761 435.442 z"/><path transform="translate(0,0)" fill="rgb(254,254,253)" d="M 459.082 1097.81 L 460.457 1098.06 C 466.557 1102.62 485.734 1112.95 492.714 1114.71 C 499.436 1114.07 521.822 1124.89 531.382 1126.94 C 547.34 1132.18 565.819 1136.44 582.269 1140.58 C 588.362 1142.33 608.774 1145.6 610.643 1147.93 L 608.87 1148.32 C 606.965 1159.39 607.366 1168.72 606.339 1179.43 C 580.601 1175.77 557.191 1171.76 532.022 1164.64 C 506.058 1158.96 479.587 1148.2 455.981 1136.01 C 458.804 1128.5 458.824 1106.8 459.082 1097.81 z"/><path transform="translate(0,0)" fill="rgb(214,227,230)" d="M 459.082 1097.81 L 460.457 1098.06 C 466.557 1102.62 485.734 1112.95 492.714 1114.71 C 505.53 1120.87 518.289 1125.03 531.771 1129.33 C 531.935 1141.1 532.018 1152.87 532.022 1164.64 C 506.058 1158.96 479.587 1148.2 455.981 1136.01 C 458.804 1128.5 458.824 1106.8 459.082 1097.81 z"/><path transform="translate(0,0)" fill="rgb(119,70,41)" d="M 492.714 1114.71 C 499.436 1114.07 521.822 1124.89 531.382 1126.94 C 547.34 1132.18 565.819 1136.44 582.269 1140.58 C 588.362 1142.33 608.774 1145.6 610.643 1147.93 L 608.87 1148.32 C 582.835 1143.44 557.095 1137.1 531.771 1129.33 C 518.289 1125.03 505.53 1120.87 492.714 1114.71 z"/><path transform="translate(0,0)" fill="rgb(254,246,209)" d="M 958.132 1289.39 C 961.038 1272.33 979.27 1244.65 988.494 1228.66 L 1033.93 1150.17 L 1079.63 1071.72 C 1108.45 1022.41 1107.46 1007.93 1169.49 1009.95 C 1197.34 1010.86 1226.78 1011.57 1255.03 1013.35 C 1389.55 1021.88 1523.53 1038.01 1657.49 1052.62 C 1675.42 1054.57 1699.88 1056.96 1715.44 1066.61 C 1726.16 1073.27 1724.99 1085.72 1723.44 1096.61 C 1724.32 1102.02 1721.93 1108.62 1720.8 1114.46 C 1728.66 1116.73 1738.28 1119.68 1745.68 1122.97 C 1733.38 1177.36 1714.16 1232.24 1699.66 1286.24 C 1690.08 1321.93 1681.45 1358.74 1668.27 1393.21 C 1661.91 1409.12 1652.87 1417.53 1637.01 1423.63 L 1637.01 1426.51 C 1628.4 1428.54 1621.53 1432.42 1612.82 1434.52 C 1607.66 1431.97 1598.47 1435.32 1595.17 1432.68 C 1582.07 1433.38 1571.42 1432.67 1558.44 1431.8 C 1554.62 1431.9 1548.8 1431.06 1544.86 1430.71 C 1514.8 1428.05 1484.79 1423.93 1454.77 1421.05 L 1124.21 1385.99 L 1050.3 1377.94 C 1025.77 1375.37 997.553 1373.85 974.412 1366.29 C 958.79 1361.2 950.384 1355.47 943.164 1340.81 C 938.857 1322.1 948.345 1305.25 956.183 1289.06 L 958.132 1289.39 z"/><path transform="translate(0,0)" fill="rgb(83,47,27)" d="M 1723.44 1096.61 C 1724.32 1102.02 1721.93 1108.62 1720.8 1114.46 C 1728.66 1116.73 1738.28 1119.68 1745.68 1122.97 C 1733.38 1177.36 1714.16 1232.24 1699.66 1286.24 C 1690.08 1321.93 1681.45 1358.74 1668.27 1393.21 C 1661.91 1409.12 1652.87 1417.53 1637.01 1423.63 L 1637.01 1426.51 C 1628.4 1428.54 1621.53 1432.42 1612.82 1434.52 C 1607.66 1431.97 1598.47 1435.32 1595.17 1432.68 C 1582.07 1433.38 1571.42 1432.67 1558.44 1431.8 C 1554.62 1431.9 1548.8 1431.06 1544.86 1430.71 C 1514.8 1428.05 1484.79 1423.93 1454.77 1421.05 L 1124.21 1385.99 L 1050.3 1377.94 C 1025.77 1375.37 997.553 1373.85 974.412 1366.29 C 958.79 1361.2 950.384 1355.47 943.164 1340.81 C 938.857 1322.1 948.345 1305.25 956.183 1289.06 L 958.132 1289.39 C 958.352 1299.35 958.923 1302.47 962.936 1311.56 C 972.275 1321.38 982.694 1326.94 995.969 1329.34 C 1021.2 1333.88 1048.66 1335.77 1074.25 1338.51 L 1234.94 1355.17 L 1460.86 1378.19 C 1499.85 1382.06 1540.4 1387.17 1579.5 1388.86 C 1604.04 1389.92 1624.7 1386.02 1642.7 1368.63 C 1643.66 1367.71 1644.6 1366.78 1645.54 1365.84 C 1653.3 1351.52 1668.27 1293 1673.81 1273.07 C 1690.03 1214.16 1706.58 1155.34 1723.44 1096.61 z"/><path transform="translate(0,0)" fill="rgb(154,100,65)" d="M 962.936 1311.56 C 972.275 1321.38 982.694 1326.94 995.969 1329.34 C 1021.2 1333.88 1048.66 1335.77 1074.25 1338.51 L 1234.94 1355.17 L 1460.86 1378.19 C 1499.85 1382.06 1540.4 1387.17 1579.5 1388.86 C 1604.04 1389.92 1624.7 1386.02 1642.7 1368.63 C 1643.66 1367.71 1644.6 1366.78 1645.54 1365.84 C 1642.85 1388.93 1618.25 1403.81 1596.51 1405.08 C 1558.58 1407.3 1518.68 1401.56 1480.78 1397.71 C 1428.03 1392.74 1375.32 1387.44 1322.64 1381.79 L 1115.45 1360.05 C 1080.51 1356.3 1045.04 1353.16 1010.3 1348.22 C 986.329 1344.8 965.329 1339 962.936 1311.56 z"/><path transform="translate(0,0)" fill="rgb(154,100,65)" d="M 1600.3 1431.82 C 1606.21 1431.83 1629.82 1425.39 1637.01 1423.63 L 1637.01 1426.51 C 1628.4 1428.54 1621.53 1432.42 1612.82 1434.52 C 1607.66 1431.97 1598.47 1435.32 1595.17 1432.68 L 1600.3 1431.82 z"/><path transform="translate(0,0)" fill="rgb(38,17,10)" d="M 1558.44 1431.8 C 1566.7 1430.01 1592.87 1428.81 1600.3 1431.82 L 1595.17 1432.68 C 1582.07 1433.38 1571.42 1432.67 1558.44 1431.8 z"/><path transform="translate(0,0)" fill="rgb(128,168,60)" d="M 1191.4 1033.42 C 1200.93 1032.52 1218.48 1032.66 1228.1 1032.87 C 1274.38 1033.86 1321.7 1038.05 1367.8 1042.38 C 1418.1 1046.92 1468.36 1051.83 1518.58 1057.11 L 1597.47 1065.03 C 1621.18 1067.5 1682.83 1068.23 1679.03 1104.11 C 1677.35 1120 1670.06 1141.48 1665.48 1157.36 L 1641.38 1241 C 1632.7 1271 1624.36 1302.55 1614.96 1332.16 C 1603.65 1367.79 1537.3 1358.86 1508.21 1356.33 C 1484.03 1354.87 1452.38 1350.68 1427.82 1348.22 L 1248.36 1329.46 L 1139.59 1317.89 C 1110.27 1314.71 1080.92 1311.62 1052.01 1305.74 C 1038.15 1303.76 1014.1 1293.5 1014.17 1276.65 C 1014.27 1253.48 1035.78 1219.42 1046.73 1199.65 C 1059.94 1175.67 1073.38 1151.82 1087.05 1128.09 C 1101.29 1103.35 1117.53 1072.06 1135.2 1049.99 C 1146.06 1036.44 1175.15 1034.23 1191.4 1033.42 z"/><path transform="translate(0,0)" fill="rgb(254,246,209)" d="M 1185.48 1050.41 C 1210.08 1048.38 1258.8 1050.4 1283.94 1052.11 C 1359.48 1057.22 1435.84 1064.79 1511.19 1072.43 L 1586.96 1080.16 C 1608.18 1082.34 1635.4 1082.83 1654.27 1092.67 C 1659.97 1095.65 1657.18 1112.19 1655.74 1117.55 C 1645.61 1153.33 1638.56 1179.74 1627.69 1215.95 C 1621.98 1234.97 1599.94 1320.06 1591.53 1332.85 C 1585.26 1342.39 1530.95 1337.94 1514.76 1336.6 C 1484.81 1334.63 1453.53 1331.09 1423.65 1328.12 L 1266.69 1312.02 C 1211.14 1306.16 1155.52 1300.82 1100.04 1294.04 C 1084.3 1292.12 1058.56 1289.43 1044.81 1281.57 C 1033.66 1275.19 1036.74 1262.73 1041.34 1252.72 C 1048.2 1237.82 1056.6 1222.42 1064.61 1207.81 C 1077.4 1184.45 1090.42 1161.22 1103.67 1138.11 C 1117.51 1114.08 1132.49 1086.51 1149.13 1064.48 C 1158.65 1051.86 1170.59 1051.63 1185.48 1050.41 z"/><path transform="translate(0,0)" fill="rgb(29,28,28)" d="M 1240.93 1138.17 C 1260.24 1137.04 1280.76 1142.13 1286.92 1163.14 C 1289.35 1171.67 1288.1 1180.83 1283.47 1188.4 C 1276.77 1199.6 1266.72 1204.02 1254.77 1207.11 C 1235.66 1210.47 1212.83 1203.56 1207.13 1183.01 C 1204.79 1174.37 1206.11 1165.14 1210.78 1157.51 C 1217.58 1146.21 1228.62 1141.03 1240.93 1138.17 z"/><path transform="translate(0,0)" fill="rgb(253,221,157)" d="M 1250.27 1141.82 C 1263.18 1146.78 1266.17 1160.54 1250.31 1166.49 C 1232.39 1161.64 1236.59 1149.39 1250.27 1141.82 z"/><path transform="translate(0,0)" fill="rgb(29,28,28)" d="M 1472.28 1166.23 C 1483.48 1165.85 1493.83 1166.93 1503.47 1173.52 C 1510.69 1178.39 1515.66 1185.94 1517.28 1194.49 C 1521.57 1217.97 1501.9 1231.96 1481.25 1235.73 C 1430.05 1241.61 1414.75 1178.26 1472.28 1166.23 z"/><path transform="translate(0,0)" fill="rgb(253,221,157)" d="M 1480.16 1171.97 C 1496.18 1171.83 1495.08 1188.31 1480.92 1193.45 C 1465.82 1190.18 1467.12 1178.12 1480.16 1171.97 z"/><path transform="translate(0,0)" fill="rgb(29,28,28)" d="M 1343.33 1214.38 C 1360.58 1212.56 1383.02 1219.15 1396.01 1231 C 1403.54 1237.85 1414.75 1256.74 1405.88 1266.01 C 1398.38 1265.68 1394.94 1247.01 1383.84 1239.28 C 1372.94 1231.69 1372.55 1231.85 1359.9 1227.83 C 1309.1 1218.84 1296.04 1254.23 1281.39 1252.49 L 1280.04 1250.28 C 1279.91 1243.34 1287.31 1239.17 1292.42 1235.37 C 1308.27 1223.58 1323.6 1216.4 1343.33 1214.38 z"/><path transform="translate(0,0)" fill="rgb(137,159,169)" d="M 1547.5 1209.88 L 1547.03 1211.18 C 1543.33 1221.21 1527.57 1244.43 1532.79 1250.24 C 1556.28 1276.35 1561.23 1218.41 1562.34 1214.72 C 1567.2 1226.98 1572.73 1241.9 1567.16 1254.88 C 1564.45 1261.29 1559.22 1266.31 1552.71 1268.76 C 1541.51 1273.02 1523.94 1269.48 1519.41 1257.33 C 1519.11 1256.27 1518.86 1255.18 1518.68 1254.09 C 1517.24 1245.98 1521.25 1239.2 1525.67 1232.8 C 1532.24 1224.03 1540.24 1219.83 1547.5 1209.88 z"/><path transform="translate(0,0)" fill="rgb(99,142,180)" d="M 1525.67 1232.8 C 1525.67 1234.57 1520.13 1255.3 1519.41 1257.33 C 1519.11 1256.27 1518.86 1255.18 1518.68 1254.09 C 1517.24 1245.98 1521.25 1239.2 1525.67 1232.8 z"/><path transform="translate(0,0)" fill="rgb(137,159,169)" d="M 1169.86 1181.51 C 1175.83 1185.15 1179.78 1207.08 1176.11 1214.64 C 1165.14 1237.21 1122.51 1229.78 1138.59 1200.38 C 1144.64 1190.67 1148.5 1187.12 1157.68 1180.66 C 1153.35 1188.92 1143.8 1204.08 1150.4 1213.75 C 1153.49 1218.27 1159.44 1215.76 1162.61 1212.38 C 1170.78 1203.64 1169.95 1192.57 1169.86 1181.51 z"/><path transform="translate(0,0)" fill="rgb(188,120,69)" d="M 1297.07 1104.91 C 1300.57 1105.08 1299.13 1104.49 1301.73 1106.17 C 1302.55 1125.88 1218.71 1133.34 1204.24 1134.76 C 1200.14 1134.25 1198.15 1131.61 1198.94 1127.58 C 1202.36 1124.65 1212.4 1124.51 1216.92 1124.05 C 1248.2 1120.86 1268.37 1117.87 1297.07 1104.91 z"/><path transform="translate(0,0)" fill="rgb(188,120,69)" d="M 1458.48 1127.39 C 1466.14 1127.74 1484.09 1140.74 1492.51 1144.67 C 1501.24 1148.75 1526.68 1153.19 1531.07 1158.52 L 1530.21 1162.17 C 1519.42 1163.62 1503.37 1158.28 1492.99 1154.43 C 1480.45 1149.78 1457.16 1143.92 1458.48 1127.39 z"/><path transform="translate(0,0)" fill="rgb(83,47,27)" d="M 268.153 1175.35 C 288.487 1166.04 307.537 1160.92 329.602 1167.48 C 353.95 1174.72 356.248 1210.91 346.098 1229.68 L 346.332 1231.96 C 363.324 1244.79 362.752 1207.62 388.802 1205.51 C 422.438 1202.78 465.853 1205.88 475.522 1245.28 C 472.149 1255.22 469.275 1263.37 461.666 1270.95 C 442.104 1283.27 425.721 1285.76 402.754 1281.9 C 398.154 1293.91 393.926 1302.83 382.028 1309.69 L 380.002 1310.06 C 338.994 1317.61 288.285 1315.25 273.456 1268.37 C 249.473 1263.72 232.661 1263.3 222.224 1237.36 C 222.147 1236 222.114 1234.64 222.125 1233.28 C 222.33 1218.4 229.811 1206.22 240.209 1196.31 C 241.603 1195.27 245.974 1190.43 247.422 1188.89 C 253.242 1184.2 261.525 1178.86 268.153 1175.35 z"/><path transform="translate(0,0)" fill="url(#Gradient3)" d="M 293.964 1171.51 C 315.986 1167.1 338.715 1169.14 342.439 1195.72 C 343.659 1204.43 341.269 1212.96 335.724 1219.87 C 321.843 1235.38 296.512 1245.58 276.153 1248.06 C 264.773 1249.45 248.522 1248.45 239.728 1240.98 C 230.518 1233.16 231.575 1223.44 235.52 1213.09 C 247.382 1190.21 270.867 1179.23 293.964 1171.51 z"/><path transform="translate(0,0)" fill="rgb(254,214,107)" d="M 235.52 1213.09 C 247.382 1190.21 270.867 1179.23 293.964 1171.51 C 299.319 1176.18 305.851 1173.84 313.358 1176.52 C 318.069 1178.19 320.012 1179.35 324.245 1181.85 C 315.397 1198.4 306.092 1203.08 290.822 1212.84 C 274.375 1223.36 247.331 1237.22 235.52 1213.09 z"/><path transform="translate(0,0)" fill="url(#Gradient2)" d="M 382.76 1210.08 C 407.841 1205.04 437.782 1210.8 458.226 1226.49 L 458.996 1227.46 C 465.584 1233.54 470.33 1241.57 466.283 1250.26 C 454.393 1275.8 407.772 1269.19 387.461 1259.19 C 372.57 1251.86 359.917 1236.67 369.155 1220.57 C 373.669 1214.66 376.01 1213.11 382.76 1210.08 z"/><path transform="translate(0,0)" fill="rgb(254,214,107)" d="M 382.76 1210.08 C 407.841 1205.04 437.782 1210.8 458.226 1226.49 C 457.985 1230.38 458.168 1235.02 458.208 1238.98 C 439.813 1245.71 395.587 1243.04 383.159 1224.45 C 379.792 1219.42 382.277 1216.64 382.701 1210.95 L 382.76 1210.08 z"/><path transform="translate(0,0)" fill="rgb(254,167,49)" d="M 369.155 1220.57 C 373.669 1214.66 376.01 1213.11 382.76 1210.08 L 382.701 1210.95 C 382.277 1216.64 379.792 1219.42 383.159 1224.45 C 395.587 1243.04 439.813 1245.71 458.208 1238.98 C 458.168 1235.02 457.985 1230.38 458.226 1226.49 L 458.996 1227.46 C 459.029 1230.11 459.285 1239.51 458.462 1241.12 C 450.233 1257.24 413.736 1254.05 400.34 1249.16 C 383.646 1243.07 376.082 1234.84 369.155 1220.57 z"/><path transform="translate(0,0)" fill="url(#Gradient1)" d="M 333.142 1234.24 C 340.928 1234.41 348.506 1236.79 354.994 1241.1 C 366.216 1248.52 379.479 1267.39 369.355 1280.87 C 363.544 1288.6 353.233 1289.3 344.275 1290.08 C 290.694 1285.54 291.216 1242.5 333.142 1234.24 z"/><path transform="translate(0,0)" fill="rgb(119,70,41)" d="M 1018.82 867.964 C 1057.97 868.101 1096.24 870.434 1135.28 872.974 C 1259.73 881.069 1384.9 890.515 1507.37 914.925 C 1500.42 917.876 1475.45 915.225 1466.05 915.206 C 1419.14 914.655 1372.23 914.62 1325.32 915.101 C 1295.42 915.659 1264.24 917.57 1234.25 918.954 C 1190.72 920.576 1147.21 922.882 1103.75 925.873 C 1078.32 927.648 1053.04 930.406 1027.54 932.01 C 1026.14 919.352 1024.5 906.721 1022.64 894.123 C 1022.3 886.752 1020.08 875.521 1018.82 867.964 z"/><path transform="translate(0,0)" fill="rgb(188,120,69)" d="M 1027.54 932.01 C 1053.04 930.406 1078.32 927.648 1103.75 925.873 C 1147.21 922.882 1190.72 920.576 1234.25 918.954 C 1264.24 917.57 1295.42 915.659 1325.32 915.101 C 1372.23 914.62 1419.14 914.655 1466.05 915.206 C 1475.45 915.225 1500.42 917.876 1507.37 914.925 C 1529.15 918.606 1571.43 926.209 1593.02 931.535 C 1589.25 932.718 1563.06 931.824 1556.76 931.876 C 1536.71 932.096 1516.66 932.525 1496.62 933.164 C 1396.77 936.799 1296.38 945.45 1196.39 948.494 C 1178.65 949.035 1160.69 944.96 1142.98 944.147 C 1105.81 942.845 1065.92 940.506 1028.88 940.256 L 1027.54 932.01 z"/><path transform="translate(0,0)" fill="rgb(29,28,28)" d="M 375.701 1074.66 C 384.008 1130.16 509.707 1176.91 562.468 1186.57 C 709.61 1213.52 897.172 1215.55 1017.77 1112.58 C 1026.96 1104.73 1041.11 1078.85 1041.89 1066.25 C 1043.27 1044 1016.9 904.573 1022.64 894.123 C 1024.5 906.721 1026.14 919.352 1027.54 932.01 L 1028.88 940.256 C 1031.97 965.776 1035.34 991.261 1038.99 1016.71 C 1047.1 1073.27 1061.44 1107.66 1007.2 1144.77 C 949.06 1184.54 882.079 1198.63 813.052 1206.32 C 694.527 1218.21 566.186 1213.29 453.85 1170.54 C 402.74 1151.08 364.559 1128.07 373.682 1067.24 C 374.671 1070.26 375.097 1071.49 375.701 1074.66 z"/><path transform="translate(0,0)" fill="rgb(203,137,81)" d="M 77.1203 1179.82 C 82.1316 1177.3 252.413 1174.08 268.153 1175.35 C 261.525 1178.86 253.242 1184.2 247.422 1188.89 C 245.974 1190.43 241.603 1195.27 240.209 1196.31 C 228.25 1196.68 213.247 1198.39 201.03 1199.36 C 175.186 1201.26 149.363 1203.43 123.565 1205.87 C 117.528 1206.42 86.4797 1209.79 82.68 1209.37 C 81.6327 1206.29 81.3681 1205.6 80.8253 1202.28 L 78.0311 1201.01 C 77.5388 1193.96 77.2352 1186.89 77.1203 1179.82 z"/><path transform="translate(0,0)" fill="rgb(154,100,65)" d="M 80.8253 1202.28 C 119.628 1197.31 159.239 1195.83 198.155 1191.73 C 214.71 1189.99 230.749 1188.56 247.422 1188.89 C 245.974 1190.43 241.603 1195.27 240.209 1196.31 C 228.25 1196.68 213.247 1198.39 201.03 1199.36 C 175.186 1201.26 149.363 1203.43 123.565 1205.87 C 117.528 1206.42 86.4797 1209.79 82.68 1209.37 C 81.6327 1206.29 81.3681 1205.6 80.8253 1202.28 z"/><path transform="translate(0,0)" fill="rgb(188,120,69)" d="M 177.506 1035.17 C 186.563 1037.19 197.882 1036.3 207.199 1037.02 C 245.345 1039.99 285.011 1033.47 322.611 1034.09 C 323.708 1037.1 322.245 1032.55 322.674 1036.51 C 322.988 1039.4 326.944 1050.09 327.995 1053.05 C 284.48 1054.29 243.409 1053.98 199.895 1052.52 C 192.794 1052.28 158.6 1052.97 155.125 1052.21 C 162.73 1046.15 169.559 1040.86 177.506 1035.17 z"/><path transform="translate(0,0)" fill="rgb(188,120,69)" d="M 1791.1 998.632 C 1806.06 1005.15 1816.23 1010.76 1829.88 1019.16 C 1823.54 1018.75 1830.8 1019.34 1827 1018.8 C 1794.13 1014.12 1759.78 1017.32 1726.62 1015.5 C 1713.78 1014.8 1701.51 1014.03 1688.94 1013.36 C 1721.18 1007.57 1758.07 1003.42 1791.1 998.632 z"/><path transform="translate(0,0)" fill="rgb(236,190,126)" d="M 1743 1270.85 C 1753.96 1249.07 1797.41 1238.36 1811.82 1261.75 L 1812.92 1270.29 L 1813.45 1264.59 L 1814.59 1264.2 C 1820.27 1275.37 1806.34 1292.28 1794.67 1295.25 L 1793.03 1296.07 C 1792.36 1297.85 1797.12 1307.13 1798.46 1310.83 C 1781.93 1319.27 1775.97 1319.23 1759.66 1311.67 C 1754.29 1302.53 1734.88 1283.24 1741.82 1273.06 L 1743 1270.85 z"/><path transform="translate(0,0)" fill="rgb(253,221,157)" d="M 1743 1270.85 C 1753.96 1249.07 1797.41 1238.36 1811.82 1261.75 C 1796.39 1267.34 1778.91 1275.63 1762.51 1273.94 C 1754.2 1273.09 1752.08 1269.99 1743 1270.85 z"/><path transform="translate(0,0)" fill="rgb(119,70,41)" d="M 1759.66 1311.67 C 1754.29 1302.53 1734.88 1283.24 1741.82 1273.06 C 1741.86 1286.12 1746.44 1282.84 1753.63 1289.94 C 1758.99 1296.72 1785.55 1293.55 1794.67 1295.25 L 1793.03 1296.07 C 1792.36 1297.85 1797.12 1307.13 1798.46 1310.83 C 1781.93 1319.27 1775.97 1319.23 1759.66 1311.67 z"/><path transform="translate(0,0)" fill="rgb(83,47,27)" d="M 1812.92 1270.29 L 1813.45 1264.59 L 1814.59 1264.2 C 1820.27 1275.37 1806.34 1292.28 1794.67 1295.25 C 1785.55 1293.55 1758.99 1296.72 1753.63 1289.94 C 1776.75 1294.23 1800.47 1293.77 1812.92 1270.29 z"/><path transform="translate(0,0)" fill="rgb(236,190,126)" d="M 1802.07 1307.36 C 1815.82 1301.55 1830.21 1311.47 1833.07 1324.96 C 1834.39 1328.92 1834.25 1330.25 1832.53 1334.48 L 1832.44 1335.49 C 1824.51 1343.15 1800.78 1333.17 1799.98 1321.68 C 1799.86 1320.48 1799.75 1319.28 1799.66 1318.07 C 1799.27 1313.07 1798.78 1311.24 1802.07 1307.36 z"/><path transform="translate(0,0)" fill="rgb(253,221,157)" d="M 1802.07 1307.36 C 1815.82 1301.55 1830.21 1311.47 1833.07 1324.96 L 1832.1 1325.28 C 1830.9 1323.49 1805.91 1309.6 1802.07 1307.36 z"/><path transform="translate(0,0)" fill="rgb(83,47,27)" d="M 1799.98 1321.68 C 1811.21 1332.26 1815 1334.94 1831.1 1334.53 L 1832.53 1334.48 L 1832.44 1335.49 C 1824.51 1343.15 1800.78 1333.17 1799.98 1321.68 z"/><path transform="translate(0,0)" fill="rgb(203,137,81)" d="M 1741.27 1349.83 C 1745.15 1342.07 1761.03 1325.36 1770.19 1331.97 L 1770.81 1332.11 C 1784.42 1336.81 1767.07 1364.74 1755.86 1357.63 C 1748.81 1355.91 1743.97 1356.9 1741.27 1349.83 z"/><path transform="translate(0,0)" fill="rgb(253,221,157)" d="M 1741.27 1349.83 C 1745.15 1342.07 1761.03 1325.36 1770.19 1331.97 C 1764.06 1340.69 1749.71 1344.7 1741.27 1349.83 z"/><path transform="translate(0,0)" fill="rgb(83,47,27)" d="M 1770.81 1332.11 C 1784.42 1336.81 1767.07 1364.74 1755.86 1357.63 C 1757.26 1357.31 1758.56 1357.04 1759.9 1356.52 C 1764.81 1354.6 1768.77 1350.84 1770.93 1346.03 C 1772.96 1341.4 1772.53 1336.71 1770.81 1332.11 z"/><path transform="translate(0,0)" fill="rgb(62,62,63)" d="M 1606.79 533.522 C 1610.67 520.768 1629.65 451.829 1636.46 447.834 C 1641.53 444.852 1649.46 446.591 1654.69 448.252 C 1664.6 451.404 1699.2 466.536 1704.11 474.463 C 1709.66 483.41 1701.23 502.428 1697.85 511.013 C 1694.69 519.017 1690.48 526.719 1683.08 531.508 C 1680.24 534.245 1669.54 540.05 1665.26 540.771 C 1661.7 539.67 1663.05 540.696 1661.01 537.641 C 1660.23 532.798 1662.26 528.368 1663.82 523.531 C 1667.61 513.175 1671.85 502.217 1675.28 491.796 C 1667.01 488.497 1656.43 484.853 1648.63 481.481 C 1641.97 501.327 1624.55 562.144 1615.44 576.114 C 1611.67 581.993 1606.37 586.732 1600.1 589.821 C 1575.08 601.947 1531.4 588.794 1544.03 554.059 C 1552.75 530.09 1585.25 530.003 1606.79 533.522 z"/><path transform="translate(0,0)" fill="rgb(29,28,28)" d="M 1683.08 531.508 C 1680.24 534.245 1669.54 540.05 1665.26 540.771 C 1661.7 539.67 1663.05 540.696 1661.01 537.641 C 1660.23 532.798 1662.26 528.368 1663.82 523.531 C 1664.35 527.613 1664.29 532.134 1666.98 534.973 C 1671.79 536.262 1675.6 531.54 1683.08 531.508 z"/><path transform="translate(0,0)" fill="rgb(62,62,63)" d="M 1256.29 315.397 C 1273.23 316.165 1288.52 318.946 1301.09 331.294 C 1321.03 350.869 1315.38 384.256 1296.34 402.402 C 1259.08 437.916 1200.01 429.19 1152.76 433.296 C 1143.95 434.061 1130.34 434.83 1122.51 437.435 C 1113.78 440.348 1105.5 444.466 1097.9 449.67 C 1090.76 454.576 1063.18 483.605 1056 471.698 C 1057.2 453.153 1088.34 431.078 1104.07 423.373 C 1147.85 406.128 1202.43 416.022 1248.35 406.011 C 1271.1 403.291 1304.59 372.747 1290.72 349.357 C 1274.99 322.836 1229.01 334.254 1214.76 357.971 C 1210.03 365.85 1191.28 394.523 1184.55 375.664 C 1182.26 369.244 1199.54 346.431 1204.1 341.508 C 1218.42 324.401 1234.25 316.801 1256.29 315.397 z"/><path transform="translate(0,0)" fill="rgb(254,167,49)" d="M 249.169 431.562 C 254.424 436.937 262.549 460.061 273.533 470.238 C 289.754 485.268 301.087 488.502 323.063 492.361 C 327.437 493.13 334.401 493.906 337.94 496.131 C 336.035 498.838 322.349 503.179 316.538 507.024 C 288.537 525.548 286.192 561.453 279.382 590.609 L 278.413 590.925 C 275.582 589.369 262.87 563.416 257.25 556.98 C 233.029 529.246 219.366 525.138 185.333 520.917 C 228.864 502.824 247.575 480.195 249.169 431.562 z"/><path transform="translate(0,0)" fill="rgb(254,214,107)" d="M 252.137 448.969 C 256.12 454.772 257.202 459.875 263.188 467.1 C 279.794 487.139 298.543 494.694 323.46 497.728 C 296.414 511.42 286.537 528.324 281.973 557.045 C 281.12 562.417 279.027 572.998 276.744 577.729 C 271.666 572.798 271.319 567.977 267.821 562.895 C 250.735 538.077 232.467 525.505 204.938 517.536 C 234.75 500.715 247.376 483.99 252.137 448.969 z"/><path transform="translate(0,0)" fill="rgb(62,62,63)" d="M 1197.52 464.357 C 1220.42 461.026 1223.37 479.481 1201.99 482.215 C 1187.61 484.055 1172.75 484.793 1158.25 486.035 C 1153.23 486.094 1148.33 486.216 1143.79 485.507 C 1139.39 485.654 1132.79 477.862 1137.05 474.716 C 1149.94 465.204 1181.96 466.458 1197.52 464.357 z"/></svg>